<?xml version="1.0" encoding="UTF-8"?>
<!DOCTYPE svg PUBLIC "-//W3C//DTD SVG 1.1//EN" "http://www.w3.org/Graphics/SVG/1.1/DTD/svg11.dtd">
<svg version="1.1" xmlns="http://www.w3.org/2000/svg" xmlns:xlink="http://www.w3.org/1999/xlink" x="0" y="0" width="707" height="792" viewBox="0, 0, 707, 792">
  <g id="Layer_1">
    <path d="M353.5,789.975 C547.65,789.975 706,734.047 706,665.475 C706,596.903 547.65,540.975 353.5,540.975 C159.35,540.975 1,596.903 1,665.475 C1,734.047 159.35,789.975 353.5,789.975" fill="#E5E5E0"/>
    <path d="M157.2,1.107 C112.988,1.107 76.812,37.282 76.812,81.497 L76.812,619.55 C76.812,663.765 112.988,699.943 157.2,699.943 L549.8,699.943 C594.013,699.943 630.188,663.765 630.188,619.55 L630.188,81.497 C630.188,37.282 594.013,1.107 549.8,1.107 L157.2,1.107 z M157.2,69.215 L549.8,69.215 C556.555,69.215 562.083,74.743 562.083,81.497 L562.083,619.55 C562.083,626.31 556.555,631.835 549.8,631.835 L157.2,631.835 C150.445,631.835 144.92,626.31 144.92,619.55 L144.92,81.497 C144.92,74.743 150.445,69.215 157.2,69.215" fill="#C79D72"/>
    <path d="M157.2,69.215 L516.513,69.215 C516.518,68.433 516.545,67.658 516.545,66.875 C516.545,44.568 515.015,22.62 512.117,1.108 L157.2,1.108 C112.988,1.108 76.812,37.283 76.812,81.498 L76.812,552.73 C100.03,550.427 122.768,546.5 144.92,541.07 L144.92,81.498 C144.92,74.743 150.445,69.215 157.2,69.215" fill="#D5AE83"/>
    <path d="M630.188,602.513 C626.19,618.02 623.083,636.732 620.722,657.273 C616.477,665.19 610.95,672.328 604.417,678.398 C608.653,629.688 616.66,586.905 630.188,563.935 L630.188,602.513 z M630.188,107.463 C614.425,128.622 602.393,152.285 595.513,177 C586.77,208.405 586.365,241.53 597.247,273.348 C600.922,284.087 606.857,298.76 613.71,315.705 L613.71,315.732 C618.865,328.48 624.532,342.487 630.188,357.198 L630.188,398.205 C620.68,370.67 609.797,343.755 600.6,321.015 L600.59,321.02 C593.695,303.978 587.727,289.225 583.852,277.888 C572,243.245 572.415,207.275 581.89,173.235 C590.828,141.14 607.83,110.775 630.188,84.908 L630.188,107.463 z M76.812,96.637 L76.812,138.415 C83.923,155.265 93.435,173.7 108.24,196.912 C121.15,217.145 122.245,249.242 117.232,283.228 C110.418,329.402 92.327,378.425 76.812,407.03 L76.812,506.56 C88.582,476.353 87.105,455.342 85.973,439.272 L85.973,439.245 C85.283,429.473 84.745,421.835 87.965,416.065 C104.385,386.655 123.997,334.335 131.238,285.275 C136.693,248.31 135.145,212.845 120.143,189.327 C94.945,149.825 85.613,124.522 76.812,96.637 z M144.92,331.783 C138.685,349.715 131.738,377.902 126.033,406.332 C119.61,438.323 114.79,470.445 114.353,488.443 C113.905,506.74 113.588,522.97 113.295,537.732 C112.05,601.062 111.323,637.8 103.95,679.64 C99.412,675.61 95.327,671.083 91.79,666.138 C97.37,629.232 98.062,594.155 99.177,537.458 C99.47,522.56 99.795,506.177 100.232,488.11 C100.69,469.315 105.625,436.272 112.19,403.565 C118.65,371.38 126.723,339.345 133.702,321.33 C137.863,310.6 141.583,300.4 144.92,290.663 L144.92,331.783 z M161.298,631.835 L157.2,631.835 C153.525,631.835 150.212,630.195 147.958,627.615 C146.428,644.688 144.693,670.7 143.398,698.742 C147.885,699.53 152.497,699.943 157.2,699.943 L157.25,699.943 C158.395,672.95 159.935,648.068 161.298,631.835 z M212.167,631.835 L197.81,631.835 C196.465,639.13 195.583,645.66 195.247,651.105 C193.857,673.747 192.455,688.487 190.738,699.943 L205.055,699.943 C206.675,688.438 208.025,673.72 209.365,651.935 C209.708,646.357 210.68,639.528 212.167,631.835 z M276.215,631.835 L260.625,631.835 C250.553,653.588 241.962,675.335 237.3,699.943 L251.792,699.943 C256.772,675.487 265.818,653.81 276.215,631.835 z M332.72,631.835 L317.555,631.835 C308.658,653.04 298.165,677.463 287.915,699.943 L302.465,699.943 C313.358,676.745 323.985,652.417 332.72,631.835 z M403.92,631.835 L384.207,631.835 C367.408,649.69 353.875,668.49 350.052,699.943 L364.408,699.943 C369.005,668.088 385.195,650.698 403.92,631.835 z M448.57,631.835 L431.913,631.835 C427.905,639.383 424.465,655.443 420.312,674.825 C418.612,682.76 416.783,691.29 414.783,699.943 L429.29,699.943 C431.038,692.295 432.642,684.805 434.152,677.76 C438.293,658.438 441.677,642.648 444.615,638.042 L448.57,631.835 z M525.343,631.835 L510.49,631.835 C503.87,653.427 494.973,675.982 483.165,699.943 L498.888,699.943 C510.323,676.003 518.94,653.445 525.343,631.835 z M562.083,316.32 L562.083,375.293 C591.2,492.9 590.362,511.195 586.28,599.765 C585.497,616.775 584.595,636.37 583.747,660.097 C583.425,669.12 580.795,681.55 576.328,695.41 C582.375,693.28 588.097,690.445 593.395,687.003 C596.055,676.835 597.61,667.755 597.865,660.597 C598.695,637.357 599.607,617.562 600.4,600.378 C604.59,509.448 605.427,491.215 575.172,369.332 C575.073,368.93 574.595,367.103 573.705,363.638 C571.362,354.5 566.975,337.413 562.083,316.32 z M552.713,69.567 C558.073,70.882 562.083,75.745 562.083,81.497 L562.083,84.455 C572.085,59.572 580.823,33.897 583.55,8.587 C579.088,6.507 574.41,4.822 569.56,3.585 C567.828,25.32 561.052,47.652 552.713,69.567 z M455.735,69.215 L470.235,69.215 C471.253,65.26 472.663,61.482 474.533,57.915 C484.383,39.115 489.885,19.597 492.207,1.107 L478.02,1.107 C475.763,17.475 470.753,34.712 462.02,51.382 C459.062,57.032 457.013,62.995 455.735,69.215 z M397.867,69.215 L411.987,69.215 C412.24,46.327 415.062,23.492 420.63,1.107 L406.09,1.107 C400.8,23.517 398.11,46.34 397.867,69.215 z M378.253,69.215 L392.408,69.215 C392.552,58.117 393.342,46.877 394.098,36.077 C394.967,23.692 395.795,11.837 395.608,1.107 L381.485,1.107 C381.655,11.232 380.84,22.89 379.98,35.135 C379.203,46.21 378.397,57.727 378.253,69.215 z M336.392,69.215 L350.578,69.215 C350.205,58.967 350.008,47.775 350.008,35.49 C350.008,29.9 349.52,22.605 348.99,14.685 C348.698,10.297 348.392,5.7 348.147,1.107 L333.992,1.107 C334.235,6.042 334.562,10.94 334.875,15.625 C335.372,23.112 335.835,30.01 335.835,35.49 C335.835,47.717 336.027,58.92 336.392,69.215 z M309.85,69.215 L324.02,69.215 C323.31,57.522 321.802,46.365 319.115,36.075 C315.69,22.96 312.337,11.342 309.047,1.107 L294.568,1.107 C297.922,11.902 301.535,24.667 305.44,39.62 C307.812,48.692 309.177,58.665 309.85,69.215 z M204.428,69.215 C205.695,57.427 208.227,45.932 212.292,34.797 C214.885,27.692 216.182,24.097 217.465,20.537 C219.865,13.887 222.215,7.375 224.54,1.107 L239.583,1.107 C236.725,8.747 233.783,16.9 230.753,25.3 C228.645,31.145 226.495,37.102 225.577,39.612 C222.102,49.132 219.872,59.022 218.68,69.215 L204.428,69.215 z M173.805,69.215 L188.133,69.215 C189.952,60.095 193.042,52.06 197.795,45.487 C206.745,33.102 211.255,17.72 212.81,1.107 L198.635,1.107 C197.202,14.862 193.458,27.38 186.333,37.237 C179.833,46.232 175.89,57.077 173.805,69.215 z M157.2,69.215 L159.628,69.215 L157.245,63.662 C149.41,45.442 141.345,26.685 135.65,4.065 C131.02,5.362 126.558,7.062 122.298,9.13 C128.18,31.912 136.32,50.847 144.235,69.255 C145.072,71.205 145.908,73.147 146.738,75.088 C148.905,71.572 152.79,69.215 157.2,69.215" fill="#B99066"/>
    <path d="M76.812,96.638 L76.812,138.415 C83.923,155.265 93.435,173.7 108.24,196.913 C121.15,217.145 122.245,249.243 117.233,283.228 C110.418,329.402 92.327,378.425 76.812,407.03 L76.812,506.56 C88.583,476.353 87.105,455.342 85.973,439.272 L85.973,439.245 C85.283,429.473 84.745,421.835 87.965,416.065 C104.385,386.655 123.998,334.335 131.238,285.275 C136.693,248.31 135.145,212.845 120.143,189.327 C94.945,149.825 85.613,124.522 76.812,96.638 z M455.735,69.215 L470.235,69.215 C471.253,65.26 472.663,61.483 474.533,57.915 C484.383,39.115 489.885,19.598 492.207,1.108 L478.02,1.108 C475.763,17.475 470.753,34.713 462.02,51.383 C459.062,57.033 457.013,62.995 455.735,69.215 z M397.867,69.215 L411.987,69.215 C412.24,46.328 415.062,23.493 420.63,1.108 L406.09,1.108 C400.8,23.518 398.11,46.34 397.867,69.215 z M378.253,69.215 L392.408,69.215 C392.552,58.118 393.342,46.878 394.098,36.078 C394.967,23.693 395.795,11.838 395.608,1.108 L381.485,1.108 C381.655,11.233 380.84,22.89 379.98,35.135 C379.203,46.21 378.397,57.728 378.253,69.215 z M336.393,69.215 L350.578,69.215 C350.205,58.968 350.008,47.775 350.008,35.49 C350.008,29.9 349.52,22.605 348.99,14.685 C348.698,10.298 348.393,5.7 348.147,1.108 L333.992,1.108 C334.235,6.043 334.562,10.94 334.875,15.625 C335.372,23.113 335.835,30.01 335.835,35.49 C335.835,47.718 336.027,58.92 336.393,69.215 z M309.85,69.215 L324.02,69.215 C323.31,57.523 321.802,46.365 319.115,36.075 C315.69,22.96 312.337,11.343 309.048,1.108 L294.568,1.108 C297.923,11.903 301.535,24.668 305.44,39.62 C307.812,48.693 309.177,58.665 309.85,69.215 z M204.428,69.215 C205.695,57.428 208.228,45.933 212.292,34.798 C214.885,27.693 216.182,24.098 217.465,20.538 C219.865,13.888 222.215,7.375 224.54,1.108 L239.583,1.108 C236.725,8.748 233.783,16.9 230.753,25.3 C228.645,31.145 226.495,37.103 225.577,39.613 C222.103,49.133 219.872,59.023 218.68,69.215 L204.428,69.215 z M173.805,69.215 L188.133,69.215 C189.952,60.095 193.042,52.06 197.795,45.488 C206.745,33.103 211.255,17.72 212.81,1.108 L198.635,1.108 C197.202,14.863 193.458,27.38 186.333,37.238 C179.833,46.233 175.89,57.078 173.805,69.215 z M113.098,547.77 C108.397,548.593 103.673,549.333 98.928,550.02 L99.178,537.458 C99.47,522.56 99.795,506.177 100.233,488.11 C100.69,469.315 105.625,436.272 112.19,403.565 C118.65,371.38 126.723,339.345 133.702,321.33 C137.863,310.6 141.583,300.4 144.92,290.663 L144.92,331.783 C138.685,349.715 131.738,377.902 126.033,406.332 C119.61,438.323 114.79,470.445 114.353,488.443 C113.905,506.74 113.588,522.97 113.295,537.732 L113.098,547.77 z M157.2,69.215 L159.628,69.215 L157.245,63.663 C149.41,45.443 141.345,26.685 135.65,4.065 C131.02,5.363 126.558,7.063 122.298,9.13 C128.18,31.913 136.32,50.848 144.235,69.255 C145.073,71.205 145.908,73.147 146.738,75.088 C148.905,71.573 152.79,69.215 157.2,69.215" fill="#CAA479"/>
    <path d="M144.92,148.625 L562.083,148.625 L562.083,179.375 L144.92,179.375 z" fill="#E5E5E0"/>
    <path d="M144.92,171.125 L562.083,171.125 L562.083,179.375 L144.92,179.375 z" fill="#D0CFCA"/>
    <path d="M144.92,150.31 L562.083,150.31 L562.083,157.248 L144.92,157.248 z" fill="#F2F2EF"/>
    <path d="M144.92,163.622 L562.083,163.622 L562.083,166.622 L144.92,166.622 z" fill="#C7C7C2"/>
    <path d="M532.383,114.497 L532.383,114.497 C543.315,114.497 552.258,123.442 552.258,134.372 L552.258,195.872 C552.258,206.805 543.315,215.747 532.383,215.747 C521.453,215.747 512.508,206.805 512.508,195.872 L512.508,134.372 C512.508,123.442 521.453,114.497 532.383,114.497" fill="#694123"/>
    <path d="M519.093,210.62 C521.932,202.655 524.023,192.335 521.98,176.825 C521.415,172.542 523.46,168.29 525.73,163.58 C530.883,152.877 537.035,140.09 522.395,117.207 C520.85,118.115 519.435,119.222 518.19,120.495 C530.883,140.647 525.483,151.87 520.953,161.275 C518.328,166.735 515.955,171.657 516.728,177.51 C518.355,189.87 517.153,198.707 515.108,205.667 C516.165,207.525 517.515,209.195 519.093,210.62 z M543.953,118.237 C545.508,119.357 546.898,120.697 548.073,122.21 C546.797,125.412 545.315,129.357 543.948,134.655 C541.573,143.86 540.427,153.305 540.872,162.557 C541.283,171.06 543.043,179.395 546.438,187.217 C548.68,192.392 549.985,198.03 550.595,203.807 C549.455,206.4 547.78,208.707 545.71,210.585 C545.565,203.14 544.385,195.782 541.578,189.315 C537.918,180.872 536.02,171.915 535.578,162.805 C535.108,153.025 536.312,143.052 538.82,133.345 C540.5,126.832 542.285,122.392 543.713,118.835 L543.953,118.237" fill="#5C3920"/>
    <path d="M532.383,114.497 C543.315,114.497 552.258,123.442 552.258,134.372 L552.258,195.872 C552.258,206.805 543.315,215.747 532.383,215.747 L532.383,114.497" fill="#5C3920"/>
    <path d="M543.953,118.237 C545.508,119.357 546.898,120.697 548.073,122.21 C546.797,125.412 545.315,129.357 543.948,134.655 C541.573,143.86 540.427,153.305 540.872,162.557 C541.282,171.06 543.042,179.395 546.438,187.217 C548.68,192.392 549.985,198.03 550.595,203.807 C549.455,206.4 547.78,208.707 545.71,210.585 C545.565,203.14 544.385,195.782 541.578,189.315 C537.917,180.872 536.02,171.915 535.578,162.805 C535.107,153.025 536.312,143.052 538.82,133.345 C540.5,126.832 542.285,122.392 543.713,118.835 L543.953,118.237" fill="#50321C"/>
    <path d="M487.195,114.497 L487.195,114.497 C498.125,114.497 507.07,123.442 507.07,134.372 L507.07,195.872 C507.07,206.805 498.125,215.747 487.195,215.747 C476.26,215.747 467.318,206.805 467.318,195.872 L467.318,134.372 C467.318,123.442 476.26,114.497 487.195,114.497" fill="#694123"/>
    <path d="M473.905,210.62 C476.745,202.655 478.835,192.335 476.79,176.825 C476.228,172.542 478.273,168.29 480.54,163.58 C485.695,152.877 491.845,140.09 477.205,117.207 C475.66,118.115 474.248,119.222 473.003,120.495 C485.693,140.647 480.293,151.87 475.765,161.275 C473.138,166.735 470.765,171.657 471.538,177.51 C473.168,189.87 471.965,198.707 469.918,205.667 C470.978,207.525 472.328,209.195 473.905,210.62 z M498.763,118.237 C500.32,119.357 501.708,120.697 502.885,122.21 C501.61,125.412 500.123,129.357 498.758,134.655 C496.38,143.86 495.235,153.305 495.683,162.557 C496.095,171.06 497.855,179.395 501.248,187.217 C503.49,192.392 504.798,198.03 505.405,203.807 C504.268,206.4 502.59,208.707 500.52,210.585 C500.378,203.14 499.193,195.782 496.388,189.315 C492.728,180.872 490.83,171.915 490.39,162.805 C489.915,153.025 491.125,143.052 493.63,133.345 C495.312,126.832 497.095,122.392 498.525,118.835 L498.763,118.237" fill="#5C3920"/>
    <path d="M487.195,114.497 C498.125,114.497 507.07,123.442 507.07,134.372 L507.07,195.872 C507.07,206.805 498.125,215.747 487.195,215.747 L487.195,114.497" fill="#5C3920"/>
    <path d="M498.763,118.237 C500.32,119.357 501.708,120.697 502.885,122.21 C501.61,125.412 500.122,129.357 498.758,134.655 C496.38,143.86 495.235,153.305 495.683,162.557 C496.095,171.06 497.855,179.395 501.247,187.217 C503.49,192.392 504.798,198.03 505.405,203.807 C504.268,206.4 502.59,208.707 500.52,210.585 C500.378,203.14 499.193,195.782 496.388,189.315 C492.728,180.872 490.83,171.915 490.39,162.805 C489.915,153.025 491.125,143.052 493.63,133.345 C495.312,126.832 497.095,122.392 498.525,118.835 L498.763,118.237" fill="#50321C"/>
    <path d="M441.737,114.497 L441.737,114.497 C452.67,114.497 461.612,123.442 461.612,134.372 L461.612,195.872 C461.612,206.805 452.67,215.747 441.737,215.747 C430.807,215.747 421.865,206.805 421.865,195.872 L421.865,134.372 C421.865,123.442 430.807,114.497 441.737,114.497" fill="#2A2B28"/>
    <path d="M428.45,210.62 C431.288,202.655 433.38,192.335 431.335,176.825 C430.77,172.542 432.82,168.29 435.085,163.58 C440.237,152.877 446.39,140.09 431.75,117.207 C430.207,118.115 428.79,119.222 427.545,120.495 C440.237,140.647 434.837,151.87 430.31,161.275 C427.682,166.735 425.312,171.657 426.082,177.51 C427.712,189.87 426.51,198.707 424.462,205.667 C425.522,207.525 426.875,209.195 428.45,210.62 z M453.307,118.237 C454.865,119.357 456.255,120.697 457.427,122.21 C456.155,125.412 454.67,129.357 453.302,134.655 C450.927,143.86 449.783,153.305 450.228,162.557 C450.637,171.06 452.4,179.395 455.792,187.217 C458.035,192.392 459.34,198.03 459.95,203.807 C458.812,206.4 457.135,208.707 455.065,210.585 C454.92,203.14 453.74,195.782 450.935,189.315 C447.272,180.872 445.375,171.915 444.935,162.805 C444.462,153.025 445.67,143.052 448.175,133.345 C449.855,126.832 451.64,122.392 453.068,118.835 L453.307,118.237" fill="#1F201E"/>
    <path d="M441.737,114.497 C452.67,114.497 461.612,123.442 461.612,134.372 L461.612,195.872 C461.612,206.805 452.67,215.747 441.737,215.747 L441.737,114.497" fill="#1F201E"/>
    <path d="M453.307,118.237 C454.865,119.357 456.255,120.697 457.427,122.21 C456.155,125.412 454.67,129.357 453.302,134.655 C450.927,143.86 449.783,153.305 450.227,162.557 C450.637,171.06 452.4,179.395 455.792,187.217 C458.035,192.392 459.34,198.03 459.95,203.807 C458.812,206.4 457.135,208.707 455.065,210.585 C454.92,203.14 453.74,195.782 450.935,189.315 C447.272,180.872 445.375,171.915 444.935,162.805 C444.462,153.025 445.67,143.052 448.175,133.345 C449.855,126.832 451.64,122.392 453.068,118.835 L453.307,118.237" fill="#171816"/>
    <path d="M396.55,114.497 L396.55,114.497 C407.482,114.497 416.425,123.442 416.425,134.372 L416.425,195.872 C416.425,206.805 407.482,215.747 396.55,215.747 C385.617,215.747 376.675,206.805 376.675,195.872 L376.675,134.372 C376.675,123.442 385.617,114.497 396.55,114.497" fill="#694123"/>
    <path d="M383.26,210.62 C386.1,202.655 388.19,192.335 386.147,176.825 C385.582,172.542 387.628,168.29 389.897,163.58 C395.05,152.877 401.202,140.09 386.562,117.207 C385.015,118.115 383.603,119.222 382.357,120.495 C395.047,140.647 389.65,151.87 385.12,161.275 C382.495,166.735 380.122,171.657 380.892,177.51 C382.522,189.87 381.32,198.707 379.275,205.667 C380.332,207.525 381.682,209.195 383.26,210.62 z M408.12,118.237 C409.675,119.357 411.062,120.697 412.24,122.21 C410.965,125.412 409.48,129.357 408.115,134.655 C405.74,143.86 404.592,153.305 405.038,162.557 C405.45,171.06 407.21,179.395 410.605,187.217 C412.848,192.392 414.152,198.03 414.76,203.807 C413.622,206.4 411.948,208.707 409.875,210.585 C409.732,203.14 408.55,195.782 405.742,189.315 C402.085,180.872 400.185,171.915 399.745,162.805 C399.272,153.025 400.48,143.052 402.985,133.345 C404.667,126.832 406.452,122.392 407.88,118.835 L408.12,118.237" fill="#5C3920"/>
    <path d="M396.55,114.497 C407.482,114.497 416.425,123.442 416.425,134.372 L416.425,195.872 C416.425,206.805 407.482,215.747 396.55,215.747 L396.55,114.497" fill="#5C3920"/>
    <path d="M408.12,118.237 C409.675,119.357 411.062,120.697 412.24,122.21 C410.965,125.412 409.48,129.357 408.115,134.655 C405.74,143.86 404.592,153.305 405.037,162.557 C405.45,171.06 407.21,179.395 410.605,187.217 C412.848,192.392 414.152,198.03 414.76,203.807 C413.622,206.4 411.947,208.707 409.875,210.585 C409.732,203.14 408.55,195.782 405.742,189.315 C402.085,180.872 400.185,171.915 399.745,162.805 C399.272,153.025 400.48,143.052 402.985,133.345 C404.667,126.832 406.452,122.392 407.88,118.835 L408.12,118.237" fill="#50321C"/>
    <path d="M352.283,114.497 L352.283,114.497 C363.215,114.497 372.158,123.442 372.158,134.372 L372.158,195.872 C372.158,206.805 363.215,215.747 352.283,215.747 C341.353,215.747 332.408,206.805 332.408,195.872 L332.408,134.372 C332.408,123.442 341.353,114.497 352.283,114.497" fill="#694123"/>
    <path d="M338.995,210.62 C341.832,202.655 343.922,192.335 341.88,176.825 C341.315,172.542 343.362,168.29 345.63,163.58 C350.783,152.877 356.935,140.09 342.295,117.207 C340.75,118.115 339.335,119.222 338.09,120.495 C350.783,140.647 345.383,151.87 340.853,161.275 C338.228,166.735 335.855,171.657 336.628,177.51 C338.255,189.87 337.055,198.707 335.008,205.667 C336.065,207.525 337.415,209.195 338.995,210.62 z M363.853,118.237 C365.408,119.357 366.797,120.697 367.973,122.21 C366.698,125.412 365.215,129.357 363.848,134.655 C361.47,143.86 360.325,153.305 360.772,162.557 C361.182,171.06 362.943,179.395 366.337,187.217 C368.58,192.392 369.885,198.03 370.495,203.807 C369.355,206.4 367.68,208.707 365.61,210.585 C365.465,203.14 364.283,195.782 361.478,189.315 C357.818,180.872 355.92,171.915 355.478,162.805 C355.008,153.025 356.212,143.052 358.72,133.345 C360.4,126.832 362.185,122.392 363.612,118.835 L363.853,118.237" fill="#5C3920"/>
    <path d="M352.282,114.497 C363.215,114.497 372.157,123.442 372.157,134.372 L372.157,195.872 C372.157,206.805 363.215,215.747 352.282,215.747 L352.282,114.497" fill="#5C3920"/>
    <path d="M363.852,118.237 C365.407,119.357 366.797,120.697 367.972,122.21 C366.697,125.412 365.215,129.357 363.847,134.655 C361.47,143.86 360.325,153.305 360.772,162.557 C361.182,171.06 362.942,179.395 366.337,187.217 C368.58,192.392 369.885,198.03 370.495,203.807 C369.355,206.4 367.68,208.707 365.61,210.585 C365.465,203.14 364.282,195.782 361.477,189.315 C357.817,180.872 355.92,171.915 355.477,162.805 C355.007,153.025 356.212,143.052 358.72,133.345 C360.4,126.832 362.185,122.392 363.612,118.835 L363.852,118.237" fill="#50321C"/>
    <path d="M144.92,276.075 C283.973,276.075 423.027,276.075 562.083,276.075 C562.083,286.325 562.083,296.577 562.083,306.827 C423.027,306.827 283.973,306.827 144.92,306.827 C144.92,296.577 144.92,286.325 144.92,276.075" fill="#E5E5E0"/>
    <path d="M144.92,298.575 C283.973,298.575 423.027,298.575 562.083,298.575 C562.083,301.325 562.083,304.078 562.083,306.825 C423.027,306.825 283.973,306.825 144.92,306.825 C144.92,304.078 144.92,301.325 144.92,298.575" fill="#D0CFCA"/>
    <path d="M144.92,277.763 C283.973,277.763 423.027,277.763 562.083,277.763 C562.083,280.073 562.083,282.385 562.083,284.7 C423.027,284.7 283.973,284.7 144.92,284.7 C144.92,282.385 144.92,280.073 144.92,277.763" fill="#F2F2EF"/>
    <path d="M144.92,291.075 C283.973,291.075 423.027,291.075 562.083,291.075 C562.083,292.075 562.083,293.075 562.083,294.075 C423.027,294.075 283.973,294.075 144.92,294.075 C144.92,293.075 144.92,292.075 144.92,291.075" fill="#C7C7C2"/>
    <path d="M532.383,241.947 L532.383,241.947 C543.315,241.947 552.258,250.892 552.258,261.825 C552.258,282.325 552.258,302.825 552.258,323.325 C552.258,334.255 543.315,343.197 532.383,343.197 C521.453,343.197 512.508,334.255 512.508,323.325 C512.508,302.825 512.508,282.325 512.508,261.825 C512.508,250.892 521.453,241.947 532.383,241.947" fill="#694123"/>
    <path d="M519.093,338.072 C521.932,330.107 524.023,319.787 521.98,304.277 C521.415,299.992 523.46,295.742 525.73,291.032 C530.883,280.327 537.035,267.54 522.395,244.66 C520.85,245.565 519.435,246.672 518.19,247.945 C530.883,268.1 525.483,279.322 520.953,288.727 C518.328,294.185 515.955,299.11 516.728,304.96 C518.355,317.32 517.153,326.16 515.108,333.12 C516.165,334.975 517.515,336.647 519.093,338.072 z M543.953,245.69 C545.508,246.81 546.898,248.15 548.073,249.66 C546.797,252.865 545.315,256.807 543.948,262.105 C541.573,271.312 540.427,280.757 540.872,290.007 C541.283,298.51 543.043,306.845 546.438,314.67 C548.68,319.845 549.985,325.48 550.595,331.26 C549.455,333.852 547.78,336.16 545.71,338.037 C545.565,330.59 544.385,323.235 541.578,316.765 C537.918,308.325 536.02,299.367 535.578,290.257 C535.108,280.477 536.312,270.505 538.82,260.795 C540.5,254.285 542.285,249.842 543.713,246.287 C543.793,246.087 543.87,245.89 543.953,245.69" fill="#5C3920"/>
    <path d="M532.383,241.947 C543.315,241.947 552.258,250.892 552.258,261.825 C552.258,282.325 552.258,302.825 552.258,323.325 C552.258,334.255 543.315,343.197 532.383,343.197 C532.383,309.447 532.383,275.697 532.383,241.947" fill="#5C3920"/>
    <path d="M543.953,245.69 C545.508,246.81 546.898,248.15 548.073,249.66 C546.797,252.865 545.315,256.807 543.948,262.105 C541.573,271.312 540.427,280.758 540.872,290.008 C541.282,298.51 543.042,306.845 546.438,314.67 C548.68,319.845 549.985,325.48 550.595,331.26 C549.455,333.852 547.78,336.16 545.71,338.038 C545.565,330.59 544.385,323.235 541.578,316.765 C537.917,308.325 536.02,299.367 535.578,290.258 C535.107,280.477 536.312,270.505 538.82,260.795 C540.5,254.285 542.285,249.842 543.713,246.287 C543.792,246.087 543.87,245.89 543.953,245.69" fill="#50321C"/>
    <path d="M487.195,241.947 L487.195,241.947 C498.125,241.947 507.07,250.892 507.07,261.825 C507.07,282.325 507.07,302.825 507.07,323.325 C507.07,334.255 498.125,343.197 487.195,343.197 C476.26,343.197 467.318,334.255 467.318,323.325 C467.318,302.825 467.318,282.325 467.318,261.825 C467.318,250.892 476.26,241.947 487.195,241.947" fill="#694123"/>
    <path d="M473.905,338.072 C476.745,330.107 478.835,319.787 476.79,304.277 C476.228,299.992 478.273,295.742 480.54,291.032 C485.695,280.327 491.845,267.54 477.205,244.66 C475.66,245.565 474.248,246.672 473.003,247.945 C485.693,268.1 480.293,279.322 475.765,288.727 C473.138,294.185 470.765,299.11 471.538,304.96 C473.168,317.32 471.965,326.16 469.918,333.12 C470.978,334.975 472.328,336.647 473.905,338.072 z M498.763,245.69 C500.32,246.81 501.708,248.15 502.885,249.66 C501.61,252.865 500.123,256.807 498.758,262.105 C496.38,271.312 495.235,280.757 495.683,290.007 C496.095,298.51 497.855,306.845 501.248,314.67 C503.49,319.845 504.798,325.48 505.405,331.26 C504.268,333.852 502.59,336.16 500.52,338.037 C500.378,330.59 499.193,323.235 496.388,316.765 C492.728,308.325 490.83,299.367 490.39,290.257 C489.915,280.477 491.125,270.505 493.63,260.795 C495.312,254.285 497.095,249.842 498.525,246.287 C498.603,246.087 498.683,245.89 498.763,245.69" fill="#5C3920"/>
    <path d="M487.195,241.947 C498.125,241.947 507.07,250.892 507.07,261.825 C507.07,282.325 507.07,302.825 507.07,323.325 C507.07,334.255 498.125,343.197 487.195,343.197 C487.195,309.447 487.195,275.697 487.195,241.947" fill="#5C3920"/>
    <path d="M498.763,245.69 C500.32,246.81 501.708,248.15 502.885,249.66 C501.61,252.865 500.122,256.807 498.758,262.105 C496.38,271.312 495.235,280.758 495.683,290.008 C496.095,298.51 497.855,306.845 501.247,314.67 C503.49,319.845 504.798,325.48 505.405,331.26 C504.268,333.852 502.59,336.16 500.52,338.038 C500.378,330.59 499.193,323.235 496.388,316.765 C492.728,308.325 490.83,299.367 490.39,290.258 C489.915,280.477 491.125,270.505 493.63,260.795 C495.312,254.285 497.095,249.842 498.525,246.287 C498.603,246.087 498.683,245.89 498.763,245.69" fill="#50321C"/>
    <path d="M441.737,241.947 L441.737,241.947 C452.67,241.947 461.612,250.892 461.612,261.825 C461.612,282.325 461.612,302.825 461.612,323.325 C461.612,334.255 452.67,343.197 441.737,343.197 C430.807,343.197 421.865,334.255 421.865,323.325 C421.865,302.825 421.865,282.325 421.865,261.825 C421.865,250.892 430.807,241.947 441.737,241.947" fill="#2A2B28"/>
    <path d="M428.45,338.072 C431.288,330.107 433.38,319.787 431.335,304.277 C430.77,299.992 432.82,295.742 435.085,291.032 C440.237,280.327 446.39,267.54 431.75,244.66 C430.207,245.565 428.79,246.672 427.545,247.945 C440.237,268.1 434.837,279.322 430.31,288.727 C427.682,294.185 425.312,299.11 426.082,304.96 C427.712,317.32 426.51,326.16 424.462,333.12 C425.522,334.975 426.875,336.647 428.45,338.072 z M453.307,245.69 C454.865,246.81 456.255,248.15 457.427,249.66 C456.155,252.865 454.67,256.807 453.302,262.105 C450.927,271.312 449.783,280.757 450.228,290.007 C450.637,298.51 452.4,306.845 455.792,314.67 C458.035,319.845 459.34,325.48 459.95,331.26 C458.812,333.852 457.135,336.16 455.065,338.037 C454.92,330.59 453.74,323.235 450.935,316.765 C447.272,308.325 445.375,299.367 444.935,290.257 C444.462,280.477 445.67,270.505 448.175,260.795 C449.855,254.285 451.64,249.842 453.068,246.287 C453.147,246.087 453.23,245.89 453.307,245.69" fill="#1F201E"/>
    <path d="M441.737,241.947 C452.67,241.947 461.612,250.892 461.612,261.825 C461.612,282.325 461.612,302.825 461.612,323.325 C461.612,334.255 452.67,343.197 441.737,343.197 C441.737,309.447 441.737,275.697 441.737,241.947" fill="#1F201E"/>
    <path d="M453.307,245.69 C454.865,246.81 456.255,248.15 457.427,249.66 C456.155,252.865 454.67,256.807 453.302,262.105 C450.927,271.312 449.783,280.758 450.227,290.008 C450.637,298.51 452.4,306.845 455.792,314.67 C458.035,319.845 459.34,325.48 459.95,331.26 C458.812,333.852 457.135,336.16 455.065,338.038 C454.92,330.59 453.74,323.235 450.935,316.765 C447.272,308.325 445.375,299.367 444.935,290.258 C444.462,280.477 445.67,270.505 448.175,260.795 C449.855,254.285 451.64,249.842 453.068,246.287 C453.147,246.087 453.23,245.89 453.307,245.69" fill="#171816"/>
    <path d="M396.55,241.947 L396.55,241.947 C407.482,241.947 416.425,250.892 416.425,261.825 C416.425,282.325 416.425,302.825 416.425,323.325 C416.425,334.255 407.482,343.197 396.55,343.197 C385.617,343.197 376.675,334.255 376.675,323.325 C376.675,302.825 376.675,282.325 376.675,261.825 C376.675,250.892 385.617,241.947 396.55,241.947" fill="#694123"/>
    <path d="M383.26,338.072 C386.1,330.107 388.19,319.787 386.147,304.277 C385.582,299.992 387.628,295.742 389.897,291.032 C395.05,280.327 401.202,267.54 386.562,244.66 C385.015,245.565 383.603,246.672 382.357,247.945 C395.047,268.1 389.65,279.322 385.12,288.727 C382.495,294.185 380.122,299.11 380.892,304.96 C382.522,317.32 381.32,326.16 379.275,333.12 C380.332,334.975 381.682,336.647 383.26,338.072 z M408.12,245.69 C409.675,246.81 411.062,248.15 412.24,249.66 C410.965,252.865 409.48,256.807 408.115,262.105 C405.74,271.312 404.592,280.757 405.038,290.007 C405.45,298.51 407.21,306.845 410.605,314.67 C412.848,319.845 414.152,325.48 414.76,331.26 C413.622,333.852 411.948,336.16 409.875,338.037 C409.732,330.59 408.55,323.235 405.742,316.765 C402.085,308.325 400.185,299.367 399.745,290.257 C399.272,280.477 400.48,270.505 402.985,260.795 C404.667,254.285 406.452,249.842 407.88,246.287 C407.957,246.087 408.038,245.89 408.12,245.69" fill="#5C3920"/>
    <path d="M396.55,241.947 C407.482,241.947 416.425,250.892 416.425,261.825 C416.425,282.325 416.425,302.825 416.425,323.325 C416.425,334.255 407.482,343.197 396.55,343.197 C396.55,309.447 396.55,275.697 396.55,241.947" fill="#5C3920"/>
    <path d="M408.12,245.69 C409.675,246.81 411.062,248.15 412.24,249.66 C410.965,252.865 409.48,256.807 408.115,262.105 C405.74,271.312 404.592,280.758 405.037,290.008 C405.45,298.51 407.21,306.845 410.605,314.67 C412.848,319.845 414.152,325.48 414.76,331.26 C413.622,333.852 411.947,336.16 409.875,338.038 C409.732,330.59 408.55,323.235 405.742,316.765 C402.085,308.325 400.185,299.367 399.745,290.258 C399.272,280.477 400.48,270.505 402.985,260.795 C404.667,254.285 406.452,249.842 407.88,246.287 C407.957,246.087 408.037,245.89 408.12,245.69" fill="#50321C"/>
    <path d="M352.285,241.947 L352.285,241.947 C363.215,241.947 372.16,250.892 372.16,261.825 C372.16,282.325 372.16,302.825 372.16,323.325 C372.16,334.255 363.215,343.197 352.285,343.197 C341.352,343.197 332.408,334.255 332.408,323.325 C332.408,302.825 332.408,282.325 332.408,261.825 C332.408,250.892 341.352,241.947 352.285,241.947" fill="#694123"/>
    <path d="M338.995,338.072 C341.835,330.107 343.925,319.787 341.883,304.277 C341.315,299.992 343.362,295.742 345.63,291.032 C350.783,280.327 356.935,267.54 342.297,244.66 C340.75,245.565 339.335,246.672 338.092,247.945 C350.783,268.1 345.383,279.322 340.855,288.727 C338.23,294.185 335.855,299.11 336.628,304.96 C338.255,317.32 337.055,326.16 335.01,333.12 C336.065,334.975 337.418,336.647 338.995,338.072 z M363.855,245.69 C365.41,246.81 366.797,248.15 367.975,249.66 C366.7,252.865 365.215,256.807 363.848,262.105 C361.47,271.312 360.325,280.757 360.772,290.007 C361.182,298.51 362.943,306.845 366.337,314.67 C368.58,319.845 369.885,325.48 370.495,331.26 C369.357,333.852 367.68,336.16 365.61,338.037 C365.467,330.59 364.283,323.235 361.478,316.765 C357.818,308.325 355.92,299.367 355.48,290.257 C355.008,280.477 356.215,270.505 358.72,260.795 C360.4,254.285 362.185,249.842 363.612,246.287 C363.693,246.087 363.772,245.89 363.855,245.69" fill="#5C3920"/>
    <path d="M352.282,241.947 C363.215,241.947 372.157,250.892 372.157,261.825 C372.157,282.325 372.157,302.825 372.157,323.325 C372.157,334.255 363.215,343.197 352.282,343.197 C352.282,309.447 352.282,275.697 352.282,241.947" fill="#5C3920"/>
    <path d="M363.852,245.69 C365.407,246.81 366.797,248.15 367.972,249.66 C366.697,252.865 365.215,256.807 363.847,262.105 C361.47,271.312 360.325,280.758 360.772,290.008 C361.182,298.51 362.942,306.845 366.337,314.67 C368.58,319.845 369.885,325.48 370.495,331.26 C369.355,333.852 367.68,336.16 365.61,338.038 C365.465,330.59 364.282,323.235 361.477,316.765 C357.817,308.325 355.92,299.367 355.477,290.258 C355.007,280.477 356.212,270.505 358.72,260.795 C360.4,254.285 362.185,249.842 363.612,246.287 C363.692,246.087 363.77,245.89 363.852,245.69" fill="#50321C"/>
    <path d="M144.92,403.527 C283.973,403.527 423.027,403.527 562.083,403.527 C562.083,413.78 562.083,424.027 562.083,434.277 C423.027,434.277 283.973,434.277 144.92,434.277 C144.92,424.027 144.92,413.78 144.92,403.527" fill="#E5E5E0"/>
    <path d="M144.92,426.027 C283.973,426.027 423.027,426.027 562.083,426.027 C562.083,428.777 562.083,431.527 562.083,434.277 C423.027,434.277 283.973,434.277 144.92,434.277 C144.92,431.527 144.92,428.777 144.92,426.027" fill="#D0CFCA"/>
    <path d="M144.92,405.212 C283.973,405.212 423.027,405.212 562.083,405.212 C562.083,407.525 562.083,409.84 562.083,412.15 C423.027,412.15 283.973,412.15 144.92,412.15 C144.92,409.84 144.92,407.525 144.92,405.212" fill="#F2F2EF"/>
    <path d="M144.92,418.525 C283.973,418.525 423.027,418.525 562.083,418.525 C562.083,419.527 562.083,420.527 562.083,421.525 C423.027,421.525 283.973,421.525 144.92,421.525 C144.92,420.527 144.92,419.527 144.92,418.525" fill="#C7C7C2"/>
    <path d="M532.383,369.4 L532.383,369.4 C543.315,369.4 552.258,378.345 552.258,389.277 C552.258,409.775 552.258,430.275 552.258,450.777 C552.258,461.71 543.315,470.65 532.383,470.65 C521.453,470.65 512.508,461.71 512.508,450.777 C512.508,430.275 512.508,409.775 512.508,389.277 C512.508,378.345 521.453,369.4 532.383,369.4" fill="#694123"/>
    <path d="M519.093,465.522 C521.932,457.56 524.023,447.24 521.98,431.73 C521.415,427.448 523.46,423.193 525.73,418.485 C530.883,407.78 537.035,394.992 522.395,372.112 C520.85,373.017 519.435,374.125 518.19,375.397 C530.883,395.552 525.483,406.772 520.953,416.18 C518.328,421.635 515.955,426.562 516.728,432.413 C518.355,444.772 517.153,453.61 515.108,460.573 C516.165,462.427 517.515,464.1 519.093,465.522 z M543.953,373.14 C545.508,374.262 546.898,375.6 548.073,377.112 C546.797,380.318 545.315,384.26 543.948,389.555 C541.573,398.765 540.427,408.207 540.872,417.462 C541.283,425.962 543.043,434.297 546.438,442.122 C548.68,447.295 549.985,452.932 550.595,458.712 C549.455,461.305 547.78,463.607 545.71,465.487 C545.565,458.042 544.385,450.688 541.578,444.22 C537.918,435.777 536.02,426.818 535.578,417.71 C535.108,407.93 536.312,397.957 538.82,388.247 C540.5,381.735 542.285,377.295 543.713,373.74 C543.793,373.54 543.87,373.34 543.953,373.14" fill="#5C3920"/>
    <path d="M532.383,369.4 C543.315,369.4 552.258,378.345 552.258,389.277 C552.258,409.775 552.258,430.275 552.258,450.777 C552.258,461.71 543.315,470.65 532.383,470.65 C532.383,436.9 532.383,403.15 532.383,369.4" fill="#5C3920"/>
    <path d="M543.953,373.14 C545.508,374.263 546.898,375.6 548.073,377.113 C546.797,380.318 545.315,384.26 543.948,389.555 C541.573,398.765 540.427,408.208 540.872,417.462 C541.282,425.962 543.042,434.298 546.438,442.122 C548.68,447.295 549.985,452.932 550.595,458.712 C549.455,461.305 547.78,463.608 545.71,465.488 C545.565,458.043 544.385,450.688 541.578,444.22 C537.917,435.777 536.02,426.818 535.578,417.71 C535.107,407.93 536.312,397.958 538.82,388.247 C540.5,381.735 542.285,377.295 543.713,373.74 C543.792,373.54 543.87,373.34 543.953,373.14" fill="#50321C"/>
    <path d="M487.195,369.4 L487.195,369.4 C498.125,369.4 507.07,378.345 507.07,389.277 C507.07,409.775 507.07,430.275 507.07,450.777 C507.07,461.71 498.125,470.65 487.195,470.65 C476.26,470.65 467.318,461.71 467.318,450.777 C467.318,430.275 467.318,409.775 467.318,389.277 C467.318,378.345 476.26,369.4 487.195,369.4" fill="#694123"/>
    <path d="M473.905,465.522 C476.745,457.56 478.835,447.24 476.79,431.73 C476.228,427.448 478.273,423.193 480.54,418.485 C485.695,407.78 491.845,394.992 477.205,372.112 C475.66,373.017 474.248,374.125 473.003,375.397 C485.693,395.552 480.293,406.772 475.765,416.18 C473.138,421.635 470.765,426.562 471.538,432.413 C473.168,444.772 471.965,453.61 469.918,460.573 C470.978,462.427 472.328,464.1 473.905,465.522 z M498.763,373.14 C500.32,374.262 501.708,375.6 502.885,377.112 C501.61,380.318 500.123,384.26 498.758,389.555 C496.38,398.765 495.235,408.207 495.683,417.462 C496.095,425.962 497.855,434.297 501.248,442.122 C503.49,447.295 504.798,452.932 505.405,458.712 C504.268,461.305 502.59,463.607 500.52,465.487 C500.378,458.042 499.193,450.688 496.388,444.22 C492.728,435.777 490.83,426.818 490.39,417.71 C489.915,407.93 491.125,397.957 493.63,388.247 C495.312,381.735 497.095,377.295 498.525,373.74 C498.603,373.54 498.683,373.34 498.763,373.14" fill="#5C3920"/>
    <path d="M487.195,369.4 C498.125,369.4 507.07,378.345 507.07,389.277 C507.07,409.775 507.07,430.275 507.07,450.777 C507.07,461.71 498.125,470.65 487.195,470.65 C487.195,436.9 487.195,403.15 487.195,369.4" fill="#5C3920"/>
    <path d="M498.763,373.14 C500.32,374.263 501.708,375.6 502.885,377.113 C501.61,380.318 500.122,384.26 498.758,389.555 C496.38,398.765 495.235,408.208 495.683,417.462 C496.095,425.962 497.855,434.298 501.247,442.122 C503.49,447.295 504.798,452.932 505.405,458.712 C504.268,461.305 502.59,463.608 500.52,465.488 C500.378,458.043 499.193,450.688 496.388,444.22 C492.728,435.777 490.83,426.818 490.39,417.71 C489.915,407.93 491.125,397.958 493.63,388.247 C495.312,381.735 497.095,377.295 498.525,373.74 C498.603,373.54 498.683,373.34 498.763,373.14" fill="#50321C"/>
    <path d="M295.84,369.4 L295.84,369.4 C306.77,369.4 315.712,378.345 315.712,389.277 C315.712,409.775 315.712,430.275 315.712,450.777 C315.712,461.71 306.77,470.65 295.84,470.65 C284.908,470.65 275.962,461.71 275.962,450.777 C275.962,430.275 275.962,409.775 275.962,389.277 C275.962,378.345 284.908,369.4 295.84,369.4" fill="#2A2B28"/>
    <path d="M282.55,465.522 C285.39,457.56 287.48,447.24 285.432,431.73 C284.87,427.448 286.918,423.193 289.182,418.485 C294.337,407.78 300.49,394.992 285.85,372.112 C284.305,373.017 282.89,374.125 281.645,375.397 C294.337,395.552 288.938,406.772 284.408,416.18 C281.783,421.635 279.41,426.562 280.182,432.413 C281.81,444.772 280.61,453.61 278.56,460.573 C279.62,462.427 280.973,464.1 282.55,465.522 z M307.408,373.14 C308.965,374.262 310.353,375.6 311.527,377.112 C310.255,380.318 308.768,384.26 307.402,389.555 C305.025,398.765 303.88,408.207 304.328,417.462 C304.738,425.962 306.497,434.297 309.893,442.122 C312.135,447.295 313.44,452.932 314.05,458.712 C312.913,461.305 311.235,463.607 309.165,465.487 C309.02,458.042 307.837,450.688 305.033,444.22 C301.37,435.777 299.475,426.818 299.035,417.71 C298.56,407.93 299.77,397.957 302.275,388.247 C303.955,381.735 305.74,377.295 307.168,373.74 C307.247,373.54 307.328,373.34 307.408,373.14" fill="#1F201E"/>
    <path d="M295.84,369.4 C306.77,369.4 315.712,378.345 315.712,389.277 C315.712,409.775 315.712,430.275 315.712,450.777 C315.712,461.71 306.77,470.65 295.84,470.65 C295.84,436.9 295.84,403.15 295.84,369.4" fill="#1F201E"/>
    <path d="M307.408,373.14 C308.965,374.263 310.353,375.6 311.527,377.113 C310.255,380.318 308.767,384.26 307.402,389.555 C305.025,398.765 303.88,408.208 304.328,417.462 C304.737,425.962 306.497,434.298 309.892,442.122 C312.135,447.295 313.44,452.932 314.05,458.712 C312.913,461.305 311.235,463.608 309.165,465.488 C309.02,458.043 307.837,450.688 305.033,444.22 C301.37,435.777 299.475,426.818 299.035,417.71 C298.56,407.93 299.77,397.958 302.275,388.247 C303.955,381.735 305.74,377.295 307.168,373.74 C307.247,373.54 307.328,373.34 307.408,373.14" fill="#171816"/>
    <path d="M250.648,369.4 L250.648,369.4 C261.58,369.4 270.525,378.345 270.525,389.277 C270.525,409.775 270.525,430.275 270.525,450.777 C270.525,461.71 261.58,470.65 250.648,470.65 C239.718,470.65 230.773,461.71 230.773,450.777 C230.773,430.275 230.773,409.775 230.773,389.277 C230.773,378.345 239.718,369.4 250.648,369.4" fill="#694123"/>
    <path d="M237.36,465.522 C240.2,457.56 242.29,447.24 240.245,431.73 C239.683,427.448 241.728,423.193 243.995,418.485 C249.15,407.78 255.303,394.992 240.66,372.112 C239.118,373.017 237.702,374.125 236.458,375.397 C249.148,395.552 243.75,406.772 239.22,416.18 C236.592,421.635 234.223,426.562 234.993,432.413 C236.623,444.772 235.42,453.61 233.373,460.573 C234.433,462.427 235.783,464.1 237.36,465.522 z M262.217,373.14 C263.772,374.262 265.163,375.6 266.34,377.112 C265.065,380.318 263.578,384.26 262.212,389.555 C259.837,398.765 258.69,408.207 259.138,417.462 C259.55,425.962 261.31,434.297 264.703,442.122 C266.948,447.295 268.25,452.932 268.86,458.712 C267.72,461.305 266.048,463.607 263.973,465.487 C263.833,458.042 262.647,450.688 259.845,444.22 C256.182,435.777 254.283,426.818 253.845,417.71 C253.37,407.93 254.58,397.957 257.085,388.247 C258.765,381.735 260.55,377.295 261.98,373.74 C262.057,373.54 262.138,373.34 262.217,373.14" fill="#5C3920"/>
    <path d="M250.647,369.4 C261.58,369.4 270.525,378.345 270.525,389.277 C270.525,409.775 270.525,430.275 270.525,450.777 C270.525,461.71 261.58,470.65 250.647,470.65 C250.647,436.9 250.647,403.15 250.647,369.4" fill="#5C3920"/>
    <path d="M262.217,373.14 C263.772,374.263 265.163,375.6 266.34,377.113 C265.065,380.318 263.577,384.26 262.212,389.555 C259.837,398.765 258.69,408.208 259.137,417.462 C259.55,425.962 261.31,434.298 264.702,442.122 C266.947,447.295 268.25,452.932 268.86,458.712 C267.72,461.305 266.047,463.608 263.973,465.488 C263.832,458.043 262.647,450.688 259.845,444.22 C256.182,435.777 254.282,426.818 253.845,417.71 C253.37,407.93 254.58,397.958 257.085,388.247 C258.765,381.735 260.55,377.295 261.98,373.74 C262.057,373.54 262.137,373.34 262.217,373.14" fill="#50321C"/>
    <path d="M206.383,369.4 L206.383,369.4 C217.315,369.4 226.258,378.345 226.258,389.277 C226.258,409.775 226.258,430.275 226.258,450.777 C226.258,461.71 217.315,470.65 206.383,470.65 C195.45,470.65 186.508,461.71 186.508,450.777 C186.508,430.275 186.508,409.775 186.508,389.277 C186.508,378.345 195.45,369.4 206.383,369.4" fill="#694123"/>
    <path d="M193.095,465.522 C195.935,457.56 198.025,447.24 195.98,431.73 C195.415,427.448 197.462,423.193 199.73,418.485 C204.882,407.78 211.035,394.992 196.395,372.112 C194.85,373.017 193.435,374.125 192.19,375.397 C204.882,395.552 199.482,406.772 194.952,416.18 C192.327,421.635 189.955,426.562 190.727,432.413 C192.357,444.772 191.152,453.61 189.107,460.573 C190.165,462.427 191.518,464.1 193.095,465.522 z M217.952,373.14 C219.507,374.262 220.897,375.6 222.072,377.112 C220.798,380.318 219.312,384.26 217.947,389.555 C215.572,398.765 214.425,408.207 214.872,417.462 C215.283,425.962 217.042,434.297 220.438,442.122 C222.68,447.295 223.985,452.932 224.592,458.712 C223.455,461.305 221.78,463.607 219.708,465.487 C219.565,458.042 218.382,450.688 215.577,444.22 C211.917,435.777 210.018,426.818 209.58,417.71 C209.105,407.93 210.315,397.957 212.818,388.247 C214.5,381.735 216.285,377.295 217.712,373.74 C217.792,373.54 217.872,373.34 217.952,373.14" fill="#5C3920"/>
    <path d="M206.383,369.4 C217.312,369.4 226.258,378.345 226.258,389.277 C226.258,409.775 226.258,430.275 226.258,450.777 C226.258,461.71 217.312,470.65 206.383,470.65 C206.383,436.9 206.383,403.15 206.383,369.4" fill="#5C3920"/>
    <path d="M217.952,373.14 C219.508,374.263 220.898,375.6 222.073,377.113 C220.798,380.318 219.312,384.26 217.945,389.555 C215.57,398.765 214.425,408.208 214.872,417.462 C215.283,425.962 217.042,434.298 220.435,442.122 C222.68,447.295 223.982,452.932 224.592,458.712 C223.455,461.305 221.777,463.608 219.708,465.488 C219.565,458.043 218.383,450.688 215.577,444.22 C211.915,435.777 210.018,426.818 209.577,417.71 C209.105,407.93 210.312,397.958 212.818,388.247 C214.497,381.735 216.283,377.295 217.713,373.74 C217.792,373.54 217.87,373.34 217.952,373.14" fill="#50321C"/>
    <path d="M144.92,530.98 L562.083,530.98 L562.083,561.73 L144.92,561.73 z" fill="#E5E5E0"/>
    <path d="M144.92,553.48 L562.083,553.48 L562.083,561.73 L144.92,561.73 z" fill="#D0CFCA"/>
    <path d="M144.92,532.665 L562.083,532.665 L562.083,539.603 L144.92,539.603 z" fill="#F2F2EF"/>
    <path d="M144.92,545.977 L562.083,545.977 L562.083,548.977 L144.92,548.977 z" fill="#C7C7C2"/>
    <path d="M532.383,496.852 L532.383,496.852 C543.315,496.852 552.258,505.795 552.258,516.727 L552.258,578.227 C552.258,589.16 543.315,598.102 532.383,598.102 C521.453,598.102 512.508,589.16 512.508,578.227 L512.508,516.727 C512.508,505.795 521.453,496.852 532.383,496.852" fill="#694123"/>
    <path d="M519.093,592.975 C521.932,585.01 524.023,574.69 521.98,559.18 C521.415,554.898 523.46,550.645 525.73,545.935 C530.883,535.233 537.035,522.445 522.395,499.563 C520.85,500.47 519.435,501.578 518.19,502.85 C530.883,523.003 525.483,534.228 520.953,543.63 C518.328,549.09 515.955,554.015 516.728,559.863 C518.355,572.225 517.153,581.062 515.108,588.023 C516.165,589.878 517.515,591.55 519.093,592.975 z M543.953,500.593 C545.508,501.715 546.898,503.053 548.073,504.563 C546.797,507.77 545.315,511.713 543.948,517.008 C541.573,526.213 540.427,535.66 540.872,544.91 C541.283,553.413 543.043,561.747 546.438,569.573 C548.68,574.747 549.985,580.383 550.595,586.163 C549.455,588.755 547.78,591.062 545.71,592.943 C545.565,585.492 544.385,578.138 541.578,571.67 C537.918,563.228 536.02,554.27 535.578,545.163 C535.108,535.38 536.312,525.408 538.82,515.7 C540.5,509.188 542.285,504.748 543.713,501.19 L543.953,500.593" fill="#5C3920"/>
    <path d="M532.383,496.852 C543.315,496.852 552.258,505.795 552.258,516.727 L552.258,578.227 C552.258,589.16 543.315,598.102 532.383,598.102 L532.383,496.852" fill="#5C3920"/>
    <path d="M543.953,500.592 C545.508,501.715 546.898,503.052 548.073,504.562 C546.797,507.77 545.315,511.712 543.948,517.007 C541.573,526.212 540.427,535.66 540.872,544.91 C541.282,553.412 543.042,561.747 546.438,569.572 C548.68,574.747 549.985,580.382 550.595,586.162 C549.455,588.755 547.78,591.062 545.71,592.942 C545.565,585.492 544.385,578.137 541.578,571.67 C537.917,563.227 536.02,554.27 535.578,545.162 C535.107,535.38 536.312,525.407 538.82,515.7 C540.5,509.187 542.285,504.747 543.713,501.19 L543.953,500.592" fill="#50321C"/>
    <path d="M487.195,496.852 L487.195,496.852 C498.125,496.852 507.07,505.795 507.07,516.727 L507.07,578.227 C507.07,589.16 498.125,598.102 487.195,598.102 C476.26,598.102 467.318,589.16 467.318,578.227 L467.318,516.727 C467.318,505.795 476.26,496.852 487.195,496.852" fill="#694123"/>
    <path d="M473.905,592.975 C476.745,585.01 478.835,574.69 476.79,559.18 C476.228,554.898 478.273,550.645 480.54,545.935 C485.695,535.233 491.845,522.445 477.205,499.563 C475.66,500.47 474.248,501.578 473.003,502.85 C485.693,523.003 480.293,534.228 475.765,543.63 C473.138,549.09 470.765,554.015 471.538,559.863 C473.168,572.225 471.965,581.062 469.918,588.023 C470.978,589.878 472.328,591.55 473.905,592.975 z M498.763,500.593 C500.32,501.715 501.708,503.053 502.885,504.563 C501.61,507.77 500.123,511.713 498.758,517.008 C496.38,526.213 495.235,535.66 495.683,544.91 C496.095,553.413 497.855,561.747 501.248,569.573 C503.49,574.747 504.798,580.383 505.405,586.163 C504.268,588.755 502.59,591.062 500.52,592.943 C500.378,585.492 499.193,578.138 496.388,571.67 C492.728,563.228 490.83,554.27 490.39,545.163 C489.915,535.38 491.125,525.408 493.63,515.7 C495.312,509.188 497.095,504.748 498.525,501.19 L498.763,500.593" fill="#5C3920"/>
    <path d="M487.195,496.852 C498.125,496.852 507.07,505.795 507.07,516.727 L507.07,578.227 C507.07,589.16 498.125,598.102 487.195,598.102 L487.195,496.852" fill="#5C3920"/>
    <path d="M498.763,500.592 C500.32,501.715 501.708,503.052 502.885,504.562 C501.61,507.77 500.122,511.712 498.758,517.007 C496.38,526.212 495.235,535.66 495.683,544.91 C496.095,553.412 497.855,561.747 501.247,569.572 C503.49,574.747 504.798,580.382 505.405,586.162 C504.268,588.755 502.59,591.062 500.52,592.942 C500.378,585.492 499.193,578.137 496.388,571.67 C492.728,563.227 490.83,554.27 490.39,545.162 C489.915,535.38 491.125,525.407 493.63,515.7 C495.312,509.187 497.095,504.747 498.525,501.19 L498.763,500.592" fill="#50321C"/>
    <path d="M441.737,496.852 L441.737,496.852 C452.67,496.852 461.612,505.795 461.612,516.727 L461.612,578.227 C461.612,589.16 452.67,598.102 441.737,598.102 C430.807,598.102 421.865,589.16 421.865,578.227 L421.865,516.727 C421.865,505.795 430.807,496.852 441.737,496.852" fill="#2A2B28"/>
    <path d="M428.45,592.975 C431.288,585.01 433.38,574.69 431.335,559.18 C430.77,554.898 432.82,550.645 435.085,545.935 C440.237,535.233 446.39,522.445 431.75,499.563 C430.207,500.47 428.79,501.578 427.545,502.85 C440.237,523.003 434.837,534.228 430.31,543.63 C427.682,549.09 425.312,554.015 426.082,559.863 C427.712,572.225 426.51,581.062 424.462,588.023 C425.522,589.878 426.875,591.55 428.45,592.975 z M453.307,500.593 C454.865,501.715 456.255,503.053 457.427,504.563 C456.155,507.77 454.67,511.713 453.302,517.008 C450.927,526.213 449.783,535.66 450.228,544.91 C450.637,553.413 452.4,561.747 455.792,569.573 C458.035,574.747 459.34,580.383 459.95,586.163 C458.812,588.755 457.135,591.062 455.065,592.943 C454.92,585.492 453.74,578.138 450.935,571.67 C447.272,563.228 445.375,554.27 444.935,545.163 C444.462,535.38 445.67,525.408 448.175,515.7 C449.855,509.188 451.64,504.748 453.068,501.19 L453.307,500.593" fill="#1F201E"/>
    <path d="M441.737,496.852 C452.67,496.852 461.612,505.795 461.612,516.727 L461.612,578.227 C461.612,589.16 452.67,598.102 441.737,598.102 L441.737,496.852" fill="#1F201E"/>
    <path d="M453.307,500.592 C454.865,501.715 456.255,503.052 457.427,504.562 C456.155,507.77 454.67,511.712 453.302,517.007 C450.927,526.212 449.783,535.66 450.227,544.91 C450.637,553.412 452.4,561.747 455.792,569.572 C458.035,574.747 459.34,580.382 459.95,586.162 C458.812,588.755 457.135,591.062 455.065,592.942 C454.92,585.492 453.74,578.137 450.935,571.67 C447.272,563.227 445.375,554.27 444.935,545.162 C444.462,535.38 445.67,525.407 448.175,515.7 C449.855,509.187 451.64,504.747 453.068,501.19 L453.307,500.592" fill="#171816"/>
    <path d="M396.55,496.852 L396.55,496.852 C407.482,496.852 416.425,505.795 416.425,516.727 L416.425,578.227 C416.425,589.16 407.482,598.102 396.55,598.102 C385.617,598.102 376.675,589.16 376.675,578.227 L376.675,516.727 C376.675,505.795 385.617,496.852 396.55,496.852" fill="#694123"/>
    <path d="M383.26,592.975 C386.1,585.01 388.19,574.69 386.147,559.18 C385.582,554.898 387.628,550.645 389.897,545.935 C395.05,535.233 401.202,522.445 386.562,499.563 C385.015,500.47 383.603,501.578 382.357,502.85 C395.047,523.003 389.65,534.228 385.12,543.63 C382.495,549.09 380.122,554.015 380.892,559.863 C382.522,572.225 381.32,581.062 379.275,588.023 C380.332,589.878 381.682,591.55 383.26,592.975 z M408.12,500.593 C409.675,501.715 411.062,503.053 412.24,504.563 C410.965,507.77 409.48,511.713 408.115,517.008 C405.74,526.213 404.592,535.66 405.038,544.91 C405.45,553.413 407.21,561.747 410.605,569.573 C412.848,574.747 414.152,580.383 414.76,586.163 C413.622,588.755 411.948,591.062 409.875,592.943 C409.732,585.492 408.55,578.138 405.742,571.67 C402.085,563.228 400.185,554.27 399.745,545.163 C399.272,535.38 400.48,525.408 402.985,515.7 C404.667,509.188 406.452,504.748 407.88,501.19 L408.12,500.593" fill="#5C3920"/>
    <path d="M396.55,496.852 C407.482,496.852 416.425,505.795 416.425,516.727 L416.425,578.227 C416.425,589.16 407.482,598.102 396.55,598.102 L396.55,496.852" fill="#5C3920"/>
    <path d="M408.12,500.592 C409.675,501.715 411.062,503.052 412.24,504.562 C410.965,507.77 409.48,511.712 408.115,517.007 C405.74,526.212 404.592,535.66 405.037,544.91 C405.45,553.412 407.21,561.747 410.605,569.572 C412.848,574.747 414.152,580.382 414.76,586.162 C413.622,588.755 411.947,591.062 409.875,592.942 C409.732,585.492 408.55,578.137 405.742,571.67 C402.085,563.227 400.185,554.27 399.745,545.162 C399.272,535.38 400.48,525.407 402.985,515.7 C404.667,509.187 406.452,504.747 407.88,501.19 L408.12,500.592" fill="#50321C"/>
    <path d="M352.283,496.852 L352.283,496.852 C363.215,496.852 372.158,505.795 372.158,516.727 L372.158,578.227 C372.158,589.16 363.215,598.102 352.283,598.102 C341.353,598.102 332.408,589.16 332.408,578.227 L332.408,516.727 C332.408,505.795 341.353,496.852 352.283,496.852" fill="#694123"/>
    <path d="M338.995,592.975 C341.832,585.01 343.922,574.69 341.88,559.18 C341.315,554.898 343.362,550.645 345.63,545.935 C350.783,535.233 356.935,522.445 342.295,499.563 C340.75,500.47 339.335,501.578 338.09,502.85 C350.783,523.003 345.383,534.228 340.853,543.63 C338.228,549.09 335.855,554.015 336.628,559.863 C338.255,572.225 337.055,581.062 335.008,588.023 C336.065,589.878 337.415,591.55 338.995,592.975 z M363.853,500.593 C365.408,501.715 366.797,503.053 367.973,504.563 C366.698,507.77 365.215,511.713 363.848,517.008 C361.47,526.213 360.325,535.66 360.772,544.91 C361.182,553.413 362.943,561.747 366.337,569.573 C368.58,574.747 369.885,580.383 370.495,586.163 C369.355,588.755 367.68,591.062 365.61,592.943 C365.465,585.492 364.283,578.138 361.478,571.67 C357.818,563.228 355.92,554.27 355.478,545.163 C355.008,535.38 356.212,525.408 358.72,515.7 C360.4,509.188 362.185,504.748 363.612,501.19 L363.853,500.593" fill="#5C3920"/>
    <path d="M352.282,496.852 C363.215,496.852 372.157,505.795 372.157,516.727 L372.157,578.227 C372.157,589.16 363.215,598.102 352.282,598.102 L352.282,496.852" fill="#5C3920"/>
    <path d="M363.852,500.592 C365.407,501.715 366.797,503.052 367.972,504.562 C366.697,507.77 365.215,511.712 363.847,517.007 C361.47,526.212 360.325,535.66 360.772,544.91 C361.182,553.412 362.942,561.747 366.337,569.572 C368.58,574.747 369.885,580.382 370.495,586.162 C369.355,588.755 367.68,591.062 365.61,592.942 C365.465,585.492 364.282,578.137 361.477,571.67 C357.817,563.227 355.92,554.27 355.477,545.162 C355.007,535.38 356.212,525.407 358.72,515.7 C360.4,509.187 362.185,504.747 363.612,501.19 L363.852,500.592" fill="#50321C"/>
  </g>
</svg>