<?xml version="1.0" encoding="UTF-8" standalone="no"?>
<svg xmlns:rdf="http://www.w3.org/1999/02/22-rdf-syntax-ns#" xmlns="http://www.w3.org/2000/svg" xmlns:cc="http://web.resource.org/cc/" xmlns:xlink="http://www.w3.org/1999/xlink" xmlns:dc="http://purl.org/dc/elements/1.1/" xmlns:svg="http://www.w3.org/2000/svg" xmlns:inkscape="http://www.inkscape.org/namespaces/inkscape" xmlns:sodipodi="http://sodipodi.sourceforge.net/DTD/sodipodi-0.dtd" xmlns:ns1="http://sozi.baierouge.fr" viewBox="0 0 353 500">
  <defs>
    <linearGradient id="imagebot_117">
      <stop id="imagebot_600" stop-color="rgb(255, 177, 66)" offset="0"/>
      <stop id="imagebot_599" stop-color="rgb(200, 118, 0)" offset="1"/>
    </linearGradient>
    <linearGradient id="imagebot_70" y2=".83885" xlink:href="#imagebot_117" y1=".53307" x2="1.3511" x1="1.3511"/>
    <linearGradient id="imagebot_68" y2=".83885" xlink:href="#imagebot_117" y1=".53307" x2="2.5616" x1="2.5616"/>
    <linearGradient id="imagebot_66" y2=".83885" xlink:href="#imagebot_117" y1=".53307" x2="1.9651" x1="1.9651"/>
    <linearGradient id="imagebot_64" y2=".83885" xlink:href="#imagebot_117" y1=".53307" x2="-1.3506" x1="-1.3506"/>
    <linearGradient id="imagebot_62" y2=".83885" xlink:href="#imagebot_117" y1=".53307" x2="-.14012" x1="-.14012"/>
    <linearGradient id="imagebot_60" y2=".83885" xlink:href="#imagebot_117" y1=".53307" x2="-.73662" x1="-.73661"/>
    <linearGradient id="imagebot_26" y2=".63457" xlink:href="#imagebot_117" y1=".63457" x2=".66694" x1=".44102"/>
    <linearGradient id="imagebot_1285" y2="1">
      <stop stop-color="#f6e6b3" offset="0"/>
      <stop stop-color="#ed9016" offset="1"/>
    </linearGradient>
  </defs>
  <g id="imagebot_71">
    <title>imagebot_71</title>
  </g>
  <g id="imagebot_2">
    <path id="imagebot_69" stroke-linejoin="round" d="m2467.6 379.05a14.25 23.024 0 0 1 -28.5 0 14.25 23.024 0 1 1 28.5 0z" transform="translate(-2.3984 -.0039062) matrix(.94751 0 0 .94751 -2163.7 116.66)" stroke="#000000" stroke-linecap="round" stroke-width="5" fill="url(#imagebot_70)"/>
    <path id="imagebot_67" stroke-linejoin="round" d="m2433.1 379.05a14.25 23.024 0 0 1 -28.5 0 14.25 23.024 0 1 1 28.5 0z" transform="translate(-2.3984 -.0039062) matrix(.94751 0 0 .94751 -2163.7 116.66)" stroke="#000000" stroke-linecap="round" stroke-width="5" fill="url(#imagebot_68)"/>
    <path id="imagebot_65" stroke-linejoin="round" d="m2450.1 379.05a14.25 23.024 0 0 1 -28.5 0 14.25 23.024 0 1 1 28.5 0z" transform="translate(-2.3984 -.0039062) matrix(.94751 0 0 .94751 -2163.7 116.66)" stroke="#000000" stroke-linecap="round" stroke-width="5" fill="url(#imagebot_66)"/>
    <path id="imagebot_63" stroke-linejoin="round" d="m2544.6 379.05a14.25 23.024 0 0 1 -28.5 0 14.25 23.024 0 1 1 28.5 0z" transform="translate(-2.3984 -.0039062) matrix(.94751 0 0 .94751 -2163.7 116.66)" stroke="#000000" stroke-linecap="round" stroke-width="5" fill="url(#imagebot_64)"/>
    <path id="imagebot_61" stroke-linejoin="round" d="m2510.1 379.05a14.25 23.024 0 0 1 -28.5 0 14.25 23.024 0 1 1 28.5 0z" transform="translate(-2.3984 -.0039062) matrix(.94751 0 0 .94751 -2163.7 116.66)" stroke="#000000" stroke-linecap="round" stroke-width="5" fill="url(#imagebot_62)"/>
    <path id="imagebot_59" stroke-linejoin="round" d="m2527.1 379.05a14.25 23.024 0 0 1 -28.5 0 14.25 23.024 0 1 1 28.5 0z" transform="translate(-2.3984 -.0039062) matrix(.94751 0 0 .94751 -2163.7 116.66)" stroke="#000000" stroke-linecap="round" stroke-width="5" fill="url(#imagebot_60)"/>
    <path id="imagebot_58" d="m2418.9 356.02c-5.8 0-10.8 5.63-13 13.69 18.9 5.07 39.8 8.03 61.7 8.44-0.3-12.29-6.6-22.13-14.2-22.13-3.3 0-6.4 1.83-8.8 4.88-2.4-3.05-5.4-4.88-8.7-4.88-3.2 0-6.2 1.71-8.5 4.56-2.4-2.85-5.3-4.56-8.5-4.56zm77 0c-7.7 0-13.9 9.79-14.2 22.03 21.8-0.7 42.6-3.98 61.4-9.34-2.4-7.52-7.2-12.69-12.7-12.69-3.3 0-6.4 1.83-8.8 4.88-2.4-3.05-5.4-4.88-8.7-4.88-3.2 0-6.2 1.71-8.5 4.56-2.4-2.85-5.3-4.56-8.5-4.56z" fill-opacity=".31373" transform="translate(-2.3984 -.0039062) matrix(.94751 0 0 .94751 -2163.7 116.66)" fill="#000000"/>
    <path id="imagebot_57" d="m333.68 308.97a156.87 156.87 8.5377e-7 0 1 -313.75 0 156.87 156.87 8.5377e-7 1 1 313.75 0z" stroke="#000000" stroke-linecap="round" stroke-width="5" fill="url(#imagebot_1285)"/>
    <path id="imagebot_56" d="m2409.4 360.68c-5.8 0-1.2 11.72-3.4 19.78 18.9 5.07 39.8 8.03 61.7 8.44-0.3-12.29-6.6-22.13-14.2-22.13-3.3 0-6.4 1.83-8.8 4.88-2.4-3.05-5.4-4.88-8.7-4.88-3.2 0-6.2 1.71-8.5 4.57-2.4-2.86-14.9-10.66-18.1-10.66zm86.6 6.09c-7.7 0-13.9 9.79-14.2 22.03 21.8-0.7 42.6-3.98 61.4-9.34-2.4-7.52 5.6-16.84 0-16.84-3.3 0-19.1 5.98-21.5 9.03-2.4-3.05-5.4-4.88-8.7-4.88-3.2 0-6.2 1.71-8.5 4.57-2.4-2.86-5.3-4.57-8.5-4.57z" fill-opacity=".31373" transform="translate(-2.3984 -.0039062) matrix(.94751 0 0 .94751 -2163.7 116.66)" fill="#000000"/>
    <path id="imagebot_55" stroke-linejoin="round" d="m2554.6 285.74c-26.5-4.92-2.3 21.63-6.4 31.23-16-7.89-9.9 18.25-17.2 25.52-13.7-0.74-15.9 13.14-25.5 17.2-11.6-6.43-20.1 6.31-31.2 6.31s-17.6-12.24-31.2-6.31c-9.6-4.06-11.8-17.44-25.6-17.2-7.2-7.27-6.1-34.91-17.2-25.52-4-9.6 14.7-38.15-6.3-31.23 0-11.08 22.3-31.63 6.3-31.23 4.1-9.6 24.5-16.75 17.2-25.52 14.6-14.52 34.6-23.51 56.8-23.51 22.1 0 42.2 8.99 56.7 23.51-10.7 5.27 13.2 15.92 17.2 25.52-17.9-0.9 6.4 20.15 6.4 31.23z" transform="translate(-2.3984 -.0039062) matrix(.94751 0 0 .94751 -2163.7 116.66)" stroke="#000000" stroke-linecap="round" stroke-width="5" fill="#ffffff"/>
    <path id="imagebot_54" stroke-linejoin="round" d="m2316.4 148.33c2.7-7.01 5.4-13.68 9.4-21.77l39 75.32c6 10.18 7.8 9.37 18.3 12.99 53 14.87 104.6 29.37 187.8-4.89 12.4-41.34 31.1-60 50.6-79 3.9 6.63 6.4 14.53 7.2 18.1-15.1 17.57-30.2 30.09-41.3 74.7 5.7 25.99 9.8 73.54-14.5 131.06-60.7 31.31-132.8 35.54-203.8-1.3-14.4-38.19-26.8-100.76-23.5-140.43l-29.2-64.78z" transform="translate(-2.3984 -.0039062) matrix(.94751 0 0 .94751 -2163.7 116.66)" stroke="#000000" stroke-linecap="round" stroke-width="5" fill="#ffffff"/>
    <path id="imagebot_53" d="m2596.2 95.356c-61.8-72.302-169.8-61.825-249.3 2.741 83.2-40.943 168.7-43.771 249.3-2.741z" fill-opacity=".31373" transform="translate(-2.3984 -.0039062) matrix(.94751 0 0 .94751 -2163.7 116.66)" fill="#000000"/>
    <g id="imagebot_43" fill-rule="evenodd" fill="url(#imagebot_1285)" transform="translate(1.25) matrix(.94751 0 0 .94751 -2.3678 149.72)">
      <path id="imagebot_45" d="m55.736 131.04c48.114 17.3-14.163 94.15 37.82 161.2 9.604 12.39-57.868 2.09-81.723-66.59-23.199-66.78-1.133-107.54 43.903-94.61z" stroke="#000000" stroke-width="5"/>
      <path id="imagebot_44" fill-opacity=".31373" d="m4.0625 160.84c-3.4518 16.51-1.2985 38.68 7.7815 64.82 23.855 68.67 91.326 78.98 81.718 66.59-4.108-5.3-7.52-10.67-10.312-16.06-18.952-4.54-54.048-24.38-69.906-70.03-5.8798-16.93-8.8541-32.18-9.2815-45.32zm71.282 6.35c-0.883 8.53-1.856 17.61-2.282 27.12 0.994-9.79 2.08-18.94 2.282-27.12z"/>
    </g>
    <path id="imagebot_42" stroke-linejoin="round" d="m2356.8 156.89c-13.4-4.6-27.3 7.59-29.9 14.18 13.5-3.45 19.7-4.42 23.2-1.38-1.5 3.37-17.4 6.75-22.3 28.87 12.4-8.61 22.3-18.57 26.3-14.48-2.9 5.04-6.2 14.5-4 23.88 7.1-9.42 14.4-19.38 21.1-19.65" fill-rule="evenodd" transform="translate(-2.3984 -.0039062) matrix(.94751 0 0 .94751 -2163.7 116.66)" stroke="#000000" stroke-linecap="round" stroke-width="5" fill="url(#imagebot_1285)"/>
    <path id="imagebot_41" stroke-linejoin="round" d="m2375.1 236.39c61.4 16.45 132 21.46 194.7-0.55 5.9 34.05-13.7 97.43-19.7 110.47-57.5 19.27-96.7 19.92-154.8 1.66-10-34.55-27.2-76.93-20.2-111.58z" transform="translate(-2.3984 -.0039062) matrix(.94751 0 0 .94751 -2163.7 116.66)" stroke="#000000" stroke-linecap="round" stroke-width="5.4329" fill="#ececec"/>
    <g id="imagebot_30" transform="translate(-2.3984 -.0039062) matrix(.94751 0 0 .94751 -2192.3 -820.57)">
      <path id="imagebot_39" d="m2438.9 1022.8l128.7-22.2c13.2 27.9 34.5 54.6 45.2 69-68.7-41.4-172.7-32.4-225 6.9 5.4-22.6 24.7-43.5 51.1-53.7z" fill="#ffffff"/>
      <path id="imagebot_38" d="m2432.9 1027c-2.2-13.5 3.9-25.4 7.3-12 9.3 15-40.6 37.5 16.2 33.2-1.6-1.9-9.3 1-9.3 1 2.1 0.8 16.7-1.9 19.9-18.1 2-8.9 13.7-7.5 14.9 3.1 2.5 11.8-14.7 11.4-21.2 12.7-17-0.5-61.2 15.8-74.6 29.4 2.1-17.3 32.4-29.5 29.3-54l17.5 4.7z" fill="#dbdbdb"/>
      <path id="imagebot_37" stroke-linejoin="round" d="m2414.9 1020l161.8-13c11.1 22.9 11.5 39.1 45.8 70-25.5-28.3-153.8-59.8-241.4 3.1 23.2-28 36-48.1 33.8-60.1z" stroke="#000000" stroke-linecap="round" stroke-width="5" fill="none"/>
      <path id="imagebot_36" d="m2433.3 916.73c50.1-77.58 178.6-52.78 153.8 11.18 72.6 16.23 75.9 140.29-50.1 90.29-21.3 7.4-42.4 15.1-74.6-0.3-116.8 51.2-161.9-117.52-29.1-101.17z" fill="#ffffff"/>
      <path id="imagebot_35" d="m2484.8 877.6c-15.8 12.59-22.4 20.93-32.2 38.71-2 3.64-1.6 4.35-5.9 4.13-5.5-0.29-9.5-1.47-12-1.94 13.8-14.15 20.6-32.12 50.1-40.9z" fill="#dbdbdb"/>
      <path id="imagebot_34" d="m2341 957.83c3.1-19.53 29-44.64 65.1-42.14-79.9 21.35-50 87.01 1.3 100.91 18.3 4.9 40.6 2.3 59.9-4.1 26-8.6 50.7-11.2 10 4-40.5 15.1-96.8 22.7-122.5-6.8-15.5-11.29-15.2-36.8-13.8-51.87z" fill="#dbdbdb"/>
      <path id="imagebot_33" d="m2553.7 1015.7c-3.6-8 6.4-8.5 12.8-5.2 11.7 7.3 25.2 13.9 59.7 11.4l-32.4 7.6c-34.2-5.1-37.6-9.5-40.1-13.8z" fill="#dbdbdb"/>
      <path id="imagebot_32" d="m2527.5 979.33c-10.1-4.57-6.1-10.87 1.5-12.3 29.4-3.89 48.4-13.48 57.4-41.42l2.5 5.66c-15.6 41.69-45.2 53.72-61.4 48.06z" fill="#dbdbdb"/>
      <path id="imagebot_31" d="m2523.7 866.04c-32.6 0.4-68.9 15.31-89.9 48.71-37.7-4.81-63.8 3.03-79.3 16.97-15.7 14.13-20.3 34.2-15.7 52.76 4.6 18.52 18.4 35.72 39.7 44.22 15.5 6.1 35.3 5.8 57.7-0.2-0.3-2.8-1.1-3.5-2.1-3.3-21.1 5.5-39.5 5.7-53.8 0.1-19.9-7.9-32.9-24-37.3-41.58-4.3-17.55 0.1-36.34 14.7-49.46 14.5-13.12 39.4-20.81 76.9-15.72 0.9 0.13 1.9-0.28 2.3-0.97 20.2-33.03 55.5-47.46 86.9-47.83 4.5-0.05 8.9 0.19 13.1 0.69 17.1 2.03 32 8.44 41.3 18.27 9.2 9.83 13 23.05 7.6 39.41-0.3 0.98 0.6 2.12 1.7 2.31 17 2.94 30.2 12.59 38.6 24.84 8.4 12.26 12.1 27.08 10 39.99-2.1 12.95-9.7 23.75-23.9 28.85-10.4 3.7-24.6 4.3-43.1-0.2-5.1-1.6-1.8 3.5 1.3 4.2 18 4 32.4 3.4 43.5-0.6 15.7-5.6 24.2-17.9 26.4-31.74 2.3-13.86-1.5-29.42-10.5-42.39-8.5-12.46-22-22.5-39.3-26.1 4.7-16.5 0.8-30.55-8.9-40.88-10.1-10.73-26.1-17.5-44.1-19.64-4.5-0.53-9.1-0.77-13.8-0.71z" stroke-width="5" fill="#000000"/>
    </g>
    <path id="imagebot_27" d="m2473.5 186.07c-9.3 0-19.4 10.33-19 16.85s16.5 33.7 20.2 33.7c3.6 0 17.7-26.63 17.3-34.24s-12.5-16.85-18.5-16.31z" fill-rule="evenodd" fill-opacity=".31373" transform="translate(-2.3984 -.0039062) matrix(.94751 0 0 .94751 -2163.7 116.66)" fill="#000000"/>
    <path id="imagebot_25" d="m2471.3 175.46c-9.2 0-19.3 9.31-18.9 15.18 0.4 5.88 16.5 30.37 20.2 30.37 3.6 0 17.7-24 17.3-30.86-0.4-6.85-12.5-15.18-18.6-14.69z" fill-rule="evenodd" transform="translate(-2.3984 -.0039062) matrix(.94751 0 0 .94751 -2163.7 116.66)" stroke="#000000" stroke-width="5" fill="url(#imagebot_26)"/>
    <path id="imagebot_24" d="m2335.3 254.86c-0.8 0.17-1.4 0.37-1.6 0.6-0.4 0.76 6.7 1.39 11.4 2.21 2.3 0.42 4.8 0.8 7.4 1.16 0.3-1.44 0.6-2.85 1-4.24l-8.4-0.36c-2-0.08-7.1 0.14-9.8 0.63zm-5.4 26.42c-0.2 0.03-0.3 0.1-0.3 0.2 0.2 1.04 7.9 3.95 10.5 4.65l7.5 2.11c0.2-1.43 0.3-2.82 0.5-4.23-2.4-0.41-4.7-0.82-7-1.14-4.1-0.57-10-1.86-11.2-1.59z" fill-opacity=".31373" transform="translate(-2.3984 -.0039062) matrix(.94751 0 0 .94751 -2163.7 116.66)" fill="#000000"/>
    <g id="imagebot_4" fill-rule="evenodd" fill="url(#imagebot_1285)" transform="translate(-2.3984 -.0039062) matrix(.94751 0 0 .94751 .030622 149.73)">
      <path id="imagebot_6" d="m322.18 131.04c-48.11 17.3 14.16 94.15-37.82 161.2-9.61 12.39 57.87 2.09 81.72-66.59 23.2-66.78 1.13-107.54-43.9-94.61z" stroke="#000000" stroke-width="5"/>
      <path id="imagebot_5" fill-opacity=".31373" d="m337.94 128.66c-0.42 0-0.83 0.02-1.25 0.03 16.21 13.06 23.07 43.29 14.78 85.34-11.02 55.9-53.58 80.01-67.72 81.28 4.59 6.53 60.97-8.12 82.34-69.65 20.3-58.44 5.92-96.95-28.15-97z"/>
    </g>
    <path id="imagebot_3" stroke-linejoin="round" d="m2588.1 156.89c13.4-4.6 27.2 7.59 29.9 14.18-13.5-3.45-19.7-4.42-23.2-1.38 1.5 3.37 17.4 6.75 22.3 28.87-12.4-8.61-22.3-18.57-26.3-14.48 2.9 5.04 6.2 14.5 4 23.88-7.1-9.42-14.4-19.38-21.1-19.65" fill-rule="evenodd" transform="translate(-2.3984 -.0039062) matrix(.94751 0 0 .94751 -2163.7 116.66)" stroke="#000000" stroke-linecap="round" stroke-width="5" fill="url(#imagebot_1285)"/>
    <title>imagebot_2</title>
    <circle id="imagebot_1282" stroke-linecap="round" rx="44.375" ry="44.375" stroke="#000000" cy="259.38" cx="140.25" stroke-width="5" fill="#ffffff"/>
    <ellipse id="imagebot_1283" stroke-linecap="round" rx="40.625" ry="42.312" stroke="#000000" cy="253.67" cx="135.25" stroke-width="5" fill="#ffffff"/>
    <ellipse id="imagebot_1284" stroke-linecap="round" rx="39.158" ry="41.495" stroke="#000000" cy="254.55" cx="214.25" stroke-width="5" fill="#ffffff"/>
    <circle id="imagebot_1290" stroke-linejoin="round" stroke-width="5" stroke-linecap="round" cy="301.25" cx="205.88" r="2.5" fill="#000000"/>
    <ellipse id="imagebot_1296" stroke-linejoin="round" stroke-linecap="round" rx="9.3106" ry="9.3106" stroke="#000000" cy="252.75" cx="133.63" stroke-width="5" fill="#000000"/>
    <ellipse id="imagebot_1297" stroke-linejoin="round" stroke-linecap="round" rx="9.0875" ry="9.0875" stroke="#000000" cy="252.65" cx="214.78" stroke-width="5" fill="#000000"/>
    <ellipse id="imagebot_1299" stroke-linejoin="round" stroke-linecap="round" rx="5" ry="5.7785" stroke="#000000" transform="rotate(-6.15 132.12 252.64) translate(-5 -6.25)" cy="258.88" cx="137.12" stroke-width="5" fill="#ffffff"/>
    <circle id="imagebot_1300" stroke-linejoin="round" stroke-width="5" stroke-linecap="round" stroke="#000000" cy="254.38" cx="215.25" r="4.375" fill="#ffffff"/>
    <path id="imagebot_1305" d="m95.875 245l77.875-1.25c-8.46-54.58-78.167-32.92-77.875 1.25z" stroke="#000000" stroke-linecap="round" stroke-width="5" fill="url(#imagebot_1285)"/>
    <path id="imagebot_1308" d="m177.12 243.75h71.63c-2.63-47.5-72.75-36.25-71.63 0z" stroke="#000000" stroke-linecap="round" stroke-width="5" fill="url(#imagebot_1285)"/>
    <path id="imagebot_1312" stroke-linejoin="round" d="m237.12 242.5h3.76 3.74c1.26 0 2.5-1.25 3.76-1.25 1.24 0 1.24-1.25 3.74-2.5s3.95-1.54 6.26-2.5c1.63-0.68 1.06-2.72 2.5-3.75 2.26-1.63 2.62-2.28 5-3.75 1.06-0.66 1.61-2.13 2.5-1.25 0.88 0.88-1.83 0.87-2.5 2.5-0.48 1.15-1.35 0.77-2.5 1.25-1.64 0.68-1.62 1.62-2.5 2.5-0.89 0.88-1.62 0.37-2.5 1.25-0.89 0.88-0.37 1.62-1.26 2.5-1.76 1.77-2.86 0.37-3.74 1.25-0.89 0.88-3.37 0.57-5 1.25-1.16 0.48-2.6 0.77-3.76 1.25-1.63 0.68-2.5 1.25-3.74 1.25l-1.26 1.25h-1.24" stroke="#000000" stroke-linecap="round" stroke-width="5" fill="none"/>
    <path id="imagebot_1313" stroke-linejoin="round" d="m242.12 243.75h3.76 3.74 3.76c1.24 0 2.59 0.48 3.74 0 1.64-0.68 1.62-1.62 2.5-2.5 1.77-1.77 5.37 0.88 6.26 0 0.88-0.88 1.28-0.96 2.5-1.25 2.72-0.64 3.36-1.82 5-2.5 1.15-0.48 1.24-1.25 3.74-1.25h1.26" stroke="#000000" stroke-linecap="round" stroke-width="5" fill="none"/>
    <path id="imagebot_1314" stroke-linejoin="round" d="m112.12 242.5c-3.74 2.5-5 2.5-6.24 2.5-1.26 0-1.26 1.25-2.5 1.25h-5.005c-1.25 0-2.022-0.1-2.5-1.25-0.676-1.63-2.316-1.47-3.75-2.5-2.267-1.63-5-2.5-6.25-2.5s-2.117-0.57-3.75-1.25c-1.155-0.48-1.345-0.77-2.5-1.25-1.633-0.68-1.25-2.5-2.5-2.5v-1.25h-1.25v-1.25" stroke="#000000" stroke-linecap="round" stroke-width="5" fill="none"/>
    <path id="imagebot_1315" stroke-linejoin="round" d="m109.62 246.25h-3.74c-1.26 0-1.62-0.37-2.5-1.25-0.89-0.88-3.755 0-5.005 0h-6.25-6.25-6.25c-2.5 0-3.53-0.61-6.25-1.25-1.217-0.29-3.983-0.87-6.25-2.5-1.434-1.03-1.217-0.29 0 0 2.72 0.64 4.781 0.12 6.25 2.5 0.657 1.06 1.25 1.25 2.5 1.25 2.5 0 3.75 1.25 5 1.25s2.866-0.88 3.75 0 2.5 1.25 3.75 1.25h5 3.75l2.5-1.25h1.255 1.24" stroke="#000000" stroke-linecap="round" stroke-width="5" fill="none"/>
  </g>
  <metadata>
    <rdf:RDF>
      <cc:Work>
        <dc:format>image/svg+xml</dc:format>
        <dc:type rdf:resource="http://purl.org/dc/dcmitype/StillImage"/>
        <cc:license rdf:resource="http://creativecommons.org/licenses/publicdomain/"/>
        <dc:publisher>
          <cc:Agent rdf:about="http://openclipart.org/">
            <dc:title>Openclipart</dc:title>
          </cc:Agent>
        </dc:publisher>
        <dc:title>Toto</dc:title>
        <dc:date>2012-06-15T11:23:35</dc:date>
        <dc:description>Owl Chef</dc:description>
        <dc:source>https://openclipart.org/detail/170692/toto-by-eloace-170692</dc:source>
        <dc:creator>
          <cc:Agent>
            <dc:title>eloace</dc:title>
          </cc:Agent>
        </dc:creator>
        <dc:subject>
          <rdf:Bag>
            <rdf:li>bird</rdf:li>
            <rdf:li>chef</rdf:li>
            <rdf:li>cook</rdf:li>
            <rdf:li>cartoon</rdf:li>
            <rdf:li>owl</rdf:li>
          </rdf:Bag>
        </dc:subject>
      </cc:Work>
      <cc:License rdf:about="http://creativecommons.org/licenses/publicdomain/">
        <cc:permits rdf:resource="http://creativecommons.org/ns#Reproduction"/>
        <cc:permits rdf:resource="http://creativecommons.org/ns#Distribution"/>
        <cc:permits rdf:resource="http://creativecommons.org/ns#DerivativeWorks"/>
      </cc:License>
    </rdf:RDF>
  </metadata>
</svg>