<?xml version="1.0" encoding="UTF-8"?>
<!DOCTYPE svg PUBLIC "-//W3C//DTD SVG 1.1//EN" "http://www.w3.org/Graphics/SVG/1.1/DTD/svg11.dtd">
<svg version="1.1" xmlns="http://www.w3.org/2000/svg" xmlns:xlink="http://www.w3.org/1999/xlink" x="0" y="0" width="300" height="553" viewBox="0, 0, 300, 553">
  <g id="Layer_1">
    <path d="M107.408,345.977 C108.002,347.079 108.205,347.884 108.111,348.173 C107.908,348.579 107.205,349.181 106.111,349.876 C106.51,348.673 107.01,347.376 107.408,345.977" fill="#E4E4E3"/>
    <path d="M269.908,94.071 C270.408,110.876 269.51,141.079 265.611,160.579 C264.111,157.079 254.705,147.376 240.705,137.485 C246.612,115.384 242.408,98.173 242.408,98.173 C243.111,106.173 240.002,125.782 237.604,135.274 C235.002,133.579 232.315,131.782 229.408,130.173 C231.002,118.173 228.502,107.079 228.502,107.079 C229.01,114.579 227.713,123.478 226.799,128.579 C223.705,126.782 220.502,125.079 217.104,123.579 C217.315,116.782 215.213,105.173 215.213,105.173 C215.213,111.173 214.111,118.173 213.502,121.876 C204.705,117.884 195.213,114.775 185.502,113.282 C149.815,107.485 120.213,113.978 112.205,117.884 C118.408,107.485 131.112,82.181 143.807,62.275 C138.408,57.884 129.51,55.384 135.103,43.282 C141.307,29.876 139.205,7.673 155.408,11.173 C171.705,14.775 180.705,13.079 190.502,8.376 C200.307,3.579 219.205,-4.327 236.002,14.775 C252.713,33.876 269.408,29.579 279.01,41.376 C288.502,53.079 303.807,69.985 293.112,80.978 C283.611,90.673 277.315,93.673 269.908,94.071" fill="#E4E4E3"/>
    <path d="M226.799,128.579 C227.713,129.071 228.502,129.579 229.408,130.173 C232.315,131.782 235.002,133.579 237.604,135.274 C238.705,136.079 239.705,136.782 240.705,137.485 C254.705,147.376 264.111,157.079 265.611,160.579 C268.705,167.775 258.705,190.673 257.205,195.478 C256.205,198.782 255.307,198.173 253.705,197.376 C253.901,196.571 254.205,195.673 254.299,194.775 C253.502,193.673 252.01,192.181 249.908,190.275 C247.713,188.282 244.705,185.978 241.111,183.282 C238.002,180.977 234.408,178.478 230.307,175.978 C221.112,169.985 209.51,163.376 195.807,156.782 C160.002,139.579 119.112,148.376 100.307,156.681 C99.908,157.978 99.409,159.681 99.01,161.477 C93.807,157.376 107.908,122.485 110.213,119.282 C110.502,118.876 111.205,118.478 112.205,117.884 C120.213,113.978 149.815,107.485 185.502,113.282 C195.213,114.775 204.705,117.884 213.502,121.876 C214.705,122.376 215.908,122.978 217.104,123.579 C220.502,125.079 223.705,126.782 226.799,128.579" fill="#CBCCCB"/>
    <path d="M253.705,197.376 C251.908,204.376 249.299,210.977 248.205,213.876 C246.705,213.782 244.908,213.876 242.908,214.376 C244.814,209.986 248.502,197.275 249.908,190.275 C252.01,192.181 253.502,193.673 254.299,194.775 C254.205,195.673 253.901,196.571 253.705,197.376" fill="#86705B"/>
    <path d="M176.908,232.884 C179.01,234.181 195.705,244.181 197.01,250.478 C197.01,250.478 200.611,243.282 176.908,232.884 z M148.807,260.782 C122.01,260.079 101.002,254.181 97.01,250.673 C89.299,243.977 98.502,218.477 98.502,218.477 C92.502,206.079 95.612,176.477 99.01,161.477 C99.409,159.681 99.908,157.978 100.307,156.681 C119.112,148.376 160.002,139.579 195.807,156.782 C209.51,163.376 221.112,169.985 230.307,175.978 C233.9,195.782 226.111,225.579 226.111,225.579 C230.502,223.782 233.807,221.681 236.112,219.681 C239.51,217.079 240.908,214.876 240.908,214.876 C241.611,214.681 242.315,214.47 242.908,214.376 C244.908,213.876 246.705,213.782 248.205,213.876 C262.502,215.173 259.205,239.181 251.705,244.985 C243.002,251.681 228.705,243.478 228.705,243.478 C209.51,253.978 188.408,258.783 168.807,260.275 C161.908,260.782 155.213,260.978 148.807,260.782 z M181.908,185.876 L204.908,178.282 L193.408,170.384 L181.908,185.876 z M193.205,221.571 C196.002,218.876 194.604,202.673 193.205,199.071 C191.705,195.478 184.908,196.173 183.807,198.782 C182.205,203.173 182.908,218.376 185.502,221.571 C188.205,224.681 190.307,224.181 193.205,221.571 z M140.408,238.478 L148.205,223.173 C145.408,226.079 140.408,236.571 140.408,238.478 z M128.205,181.876 L117.908,170.173 L112.408,177.579 L128.205,181.876 z M127.713,221.97 C130.611,219.376 129.111,203.173 127.713,199.579 C126.307,195.977 119.408,196.571 118.408,199.282 C116.705,203.579 117.408,218.876 120.002,221.97 C122.713,225.079 124.814,224.681 127.713,221.97" fill="#F7CCAA"/>
    <path d="M249.908,190.275 C248.502,197.275 244.814,209.986 242.908,214.376 C242.315,214.47 241.611,214.681 240.908,214.876 C240.908,214.876 239.51,217.079 236.112,219.681 C239.01,211.173 241.307,193.478 241.111,183.282 C244.705,185.978 247.713,188.282 249.908,190.275" fill="#A6937F"/>
    <path d="M242.408,98.173 C242.408,98.173 246.612,115.384 240.705,137.485 C239.705,136.782 238.705,136.079 237.604,135.274 C240.002,125.782 243.111,106.173 242.408,98.173" fill="#CBCCCB"/>
    <path d="M241.111,183.282 C241.307,193.478 239.01,211.173 236.112,219.681 C233.807,221.681 230.502,223.782 226.111,225.579 C226.111,225.579 233.9,195.782 230.307,175.978 C234.408,178.478 238.002,180.977 241.111,183.282" fill="#86705B"/>
    <path d="M228.502,107.079 C228.502,107.079 231.002,118.173 229.408,130.173 C228.502,129.579 227.713,129.071 226.799,128.579 C227.713,123.478 229.01,114.579 228.502,107.079" fill="#CBCCCB"/>
    <path d="M215.213,105.173 C215.213,105.173 217.315,116.782 217.104,123.579 C215.908,122.978 214.705,122.376 213.502,121.876 C214.111,118.173 215.213,111.173 215.213,105.173" fill="#CBCCCB"/>
    <path d="M215.104,352.181 C216.205,352.579 216.799,352.978 216.799,353.173 C216.111,360.579 205.807,373.978 202.01,373.579 C201.908,373.579 201.705,373.478 201.51,373.376 C200.807,373.173 200.002,372.485 199.111,371.376 C198.705,370.978 198.307,370.579 198.002,370.079 C194.408,365.477 190.213,357.673 188.611,353.376 C188.205,352.486 188.002,351.681 187.908,351.079 C187.807,349.681 192.604,348.478 198.9,348.876 C205.002,349.376 212.01,350.978 215.104,352.181" fill="#CBCCCB"/>
    <path d="M107.408,345.977 C104.408,339.985 93.111,324.579 91.611,323.376 C91.4,323.173 91.205,323.079 91.002,323.079 C94.299,318.079 119.604,288.579 125.408,282.274 C126.705,284.876 144.205,296.079 144.205,296.079 C143.502,299.181 144.908,304.985 144.908,304.985 C143.9,306.572 138.205,328.876 138.408,329.775 C138.705,330.783 148.705,330.977 150.908,328.579 C153.002,326.173 164.51,329.579 165.002,326.681 C165.408,323.782 157.603,298.673 157.603,298.673 C160.502,297.884 182.315,287.775 187.01,283.978 C194.51,290.079 198.705,294.681 204.205,306.572 C209.51,318.173 216.51,344.876 215.104,352.181 C212.01,350.978 205.002,349.376 198.9,348.876 C192.604,348.478 187.807,349.681 187.908,351.079 C188.002,351.681 188.205,352.486 188.611,353.376 C171.799,353.579 137.01,357.673 133.901,358.376 C132.01,357.884 117.908,356.173 113.002,358.478 L102.807,360.977 C103.408,358.978 104.604,354.876 106.111,349.876 C107.205,349.181 107.908,348.579 108.111,348.173 C108.205,347.884 108.002,347.079 107.408,345.977 z M147.502,345.579 C149.908,345.579 151.799,343.478 151.799,340.782 C151.799,338.173 149.908,335.978 147.502,335.978 C145.104,335.978 143.205,338.173 143.205,340.782 C143.205,343.478 145.104,345.579 147.502,345.579" fill="#E4E4E3"/>
    <path d="M92.01,472.673 C79.604,468.579 68.408,464.579 68.408,464.579 C68.408,464.579 86.612,409.774 91.909,393.079 C98.112,389.775 100.909,385.579 102.103,382.079 L138.408,378.783 L131.705,381.876 L134.408,386.477 L142.315,381.376 L140.104,395.079 L143.002,400.579 L147.01,382.884 L149.01,399.376 L154.51,396.97 L150.908,382.181 L156.799,385.978 L161.112,382.181 L153.307,378.783 C153.307,378.783 189.205,376.173 201.908,375.876 C204.205,393.876 213.612,463.173 214.908,468.876 C214.908,468.876 211.4,471.783 202.104,472.181 C197.104,472.579 190.408,472.181 181.705,470.275 C174.51,468.673 166.908,469.071 159.408,470.477 C149.205,472.181 139.111,475.579 130.213,477.579 C122.807,479.376 116.307,480.173 111.002,478.673 C105.307,476.97 98.502,474.876 92.01,472.673" fill="#CBCCCB"/>
    <path d="M204.908,178.282 L181.908,185.876 L193.408,170.384 L204.908,178.282" fill="#86705B"/>
    <path d="M181.705,470.275 C190.408,472.181 197.104,472.579 202.104,472.181 C201.401,478.782 198.9,501.282 197.713,506.681 C191.611,506.681 174.299,507.977 168.408,508.376 L159.408,470.477 C166.908,469.071 174.51,468.673 181.705,470.275" fill="#E4E4E3"/>
    <path d="M187.104,528.579 C184.814,528.673 182.315,528.783 179.908,528.876 C173.002,528.978 166.799,528.783 165.908,528.173 C163.807,526.681 165.213,509.986 166.4,508.579 C166.4,508.579 167.104,508.478 168.408,508.376 C174.299,507.977 191.611,506.681 197.713,506.681 C199.01,506.681 199.705,506.782 199.908,506.876 C201.111,507.884 203.9,525.274 201.51,526.97 C200.502,527.673 194.205,528.282 187.104,528.579" fill="#CBCCCB"/>
    <path d="M201.51,373.376 C201.612,373.978 201.705,374.876 201.908,375.876 C189.205,376.173 153.307,378.783 153.307,378.783 L161.112,382.181 L156.799,385.978 L150.908,382.181 L154.51,396.97 L149.01,399.376 L147.01,382.884 L143.002,400.579 L140.104,395.079 L142.315,381.376 L134.408,386.477 L131.705,381.876 L138.408,378.783 L102.103,382.079 C103.002,379.376 103.002,377.079 102.908,375.783 L109.705,375.274 C111.307,377.079 114.01,378.673 118.111,377.884 C120.612,377.376 122.908,376.376 125.002,375.173 C145.502,373.876 189.705,371.571 199.111,371.376 C200.002,372.485 200.807,373.173 201.51,373.376" fill="#E4E4E3"/>
    <path d="M198.002,370.079 C198.307,370.579 198.705,370.978 199.111,371.376 C189.705,371.571 145.502,373.876 125.002,375.173 C130.002,372.485 134.205,368.782 138.408,368.782 C143.807,368.782 187.713,370.478 198.002,370.079" fill="#CBCCCB"/>
    <path d="M113.002,358.478 C117.908,356.173 132.01,357.884 133.901,358.376 C137.01,357.673 171.799,353.579 188.611,353.376 C190.213,357.673 194.408,365.477 198.002,370.079 C187.713,370.478 143.807,368.782 138.408,368.782 C134.205,368.782 130.002,372.485 125.002,375.173 C122.908,376.376 120.612,377.376 118.111,377.884 C114.01,378.673 111.307,377.079 109.705,375.274 C108.002,373.579 107.408,371.571 107.408,371.571 C107.408,371.571 117.604,367.774 118.111,364.181 C118.611,360.579 111.908,359.181 111.908,359.181 C112.205,358.876 112.502,358.673 113.002,358.478" fill="#F7CCAA"/>
    <path d="M176.908,232.884 C200.611,243.282 197.01,250.478 197.01,250.478 C195.705,244.181 179.01,234.181 176.908,232.884" fill="#F2B481"/>
    <path d="M193.205,199.071 C194.604,202.673 196.002,218.876 193.205,221.571 C190.307,224.181 188.205,224.681 185.502,221.571 C182.908,218.376 182.205,203.173 183.807,198.782 C184.908,196.173 191.705,195.478 193.205,199.071" fill="#343534"/>
    <path d="M186.205,540.876 C186.002,542.275 189.815,548.673 189.01,549.579 C188.307,550.579 172.603,551.079 171.401,550.173 C170.213,549.181 178.611,542.485 179.51,541.571 C180.307,540.783 180.502,532.978 179.908,528.876 C182.315,528.783 184.814,528.673 187.104,528.579 C186.908,531.783 186.401,539.681 186.205,540.876" fill="#3C3020"/>
    <path d="M125.408,282.274 C125.307,282.181 125.307,282.079 125.307,281.97 C125.502,280.079 133.705,270.478 141.111,270.478 C140.213,273.173 139.908,275.978 139.908,275.978 L139.814,275.978 C141.401,279.876 146.307,290.876 150.213,292.486 C154.908,294.376 173.307,275.579 174.815,273.673 C176.205,271.681 187.713,280.782 187.908,282.977 C187.908,283.173 187.603,283.579 187.01,283.978 C182.315,287.775 160.502,297.884 157.603,298.673 C157.603,298.673 165.408,323.782 165.002,326.681 C164.51,329.579 153.002,326.173 150.908,328.579 C148.705,330.977 138.705,330.783 138.408,329.775 C138.205,328.876 143.9,306.572 144.908,304.985 C144.908,304.985 143.502,299.181 144.205,296.079 C144.205,296.079 126.705,284.876 125.408,282.274" fill="#C35550"/>
    <path d="M147.908,265.384 C151.205,265.876 155.213,267.181 155.213,268.173 C155.213,269.579 154.908,279.876 154.908,279.876 C154.908,279.876 157.603,268.376 158.807,267.673 C159.815,267.079 165.705,265.673 168.807,265.384 C169.408,265.275 169.908,265.275 170.213,265.275 C172.408,265.478 174.51,266.173 173.611,273.673 L174.815,273.673 C173.307,275.579 154.908,294.376 150.213,292.486 C146.307,290.876 141.401,279.876 139.814,275.978 L139.908,275.978 C139.908,275.978 140.213,273.173 141.111,270.478 C141.705,268.173 142.603,265.876 143.9,265.275 C144.604,264.985 146.112,265.079 147.908,265.384" fill="#ECF4DE"/>
    <path d="M168.807,260.275 L168.807,265.384 C165.705,265.673 159.815,267.079 158.807,267.673 C157.603,268.376 154.908,279.876 154.908,279.876 C154.908,279.876 155.213,269.579 155.213,268.173 C155.213,267.181 151.205,265.876 147.908,265.384 L148.807,260.782 C155.213,260.978 161.908,260.782 168.807,260.275" fill="#F7CCAA"/>
    <path d="M151.799,340.782 C151.799,343.478 149.908,345.579 147.502,345.579 C145.104,345.579 143.205,343.478 143.205,340.782 C143.205,338.173 145.104,335.978 147.502,335.978 C149.908,335.978 151.799,338.173 151.799,340.782" fill="#5E605A"/>
    <path d="M148.205,223.173 L140.408,238.478 C140.408,236.571 145.408,226.079 148.205,223.173" fill="#F2B481"/>
    <path d="M116.799,527.978 C114.51,527.978 112.01,527.978 109.603,527.884 C100.408,527.673 91.51,527.079 90.612,526.681 C89.01,525.978 91.4,508.579 92.104,507.376 C92.205,507.181 93.002,506.97 94.408,506.782 C100.909,505.876 119.815,505.079 126.612,505.384 C127.502,505.384 128.205,505.384 128.611,505.478 C131.51,505.978 131.705,525.079 129.408,526.97 C128.502,527.673 123.205,527.978 116.799,527.978" fill="#CBCCCB"/>
    <path d="M130.213,477.579 C129.299,484.579 127.104,501.376 126.612,505.384 C119.815,505.079 100.909,505.876 94.408,506.782 L92.01,472.673 C98.502,474.876 105.307,476.97 111.002,478.673 C116.307,480.173 122.807,479.376 130.213,477.579" fill="#E4E4E3"/>
    <path d="M117.908,170.173 L128.205,181.876 L112.408,177.579 L117.908,170.173" fill="#86705B"/>
    <path d="M127.713,199.579 C129.111,203.173 130.611,219.376 127.713,221.97 C124.814,224.681 122.713,225.079 120.002,221.97 C117.408,218.876 116.705,203.579 118.408,199.282 C119.408,196.571 126.307,195.977 127.713,199.579" fill="#343534"/>
    <path d="M102.103,382.079 C100.909,385.579 98.112,389.775 91.909,393.079 C90.908,393.579 89.705,394.071 88.502,394.579 C71.307,401.283 17.01,407.978 7.909,397.673 C-1.099,387.376 2.01,379.774 14.408,373.782 C14.815,373.579 15.307,373.376 15.705,373.173 C15.104,374.376 14.604,375.478 14.205,376.571 L14.112,376.571 C9.51,379.181 6.307,382.181 7.909,384.985 C8.205,385.579 8.9,386.079 10.002,386.477 C15.002,388.673 27.713,389.072 41.205,388.579 C53.205,388.282 65.908,387.181 74.604,385.978 C95.213,383.079 100.408,371.376 98.807,368.782 C97.104,366.079 90.908,364.579 80.408,363.783 C70.705,362.978 60.307,364.071 51.307,365.579 C51.51,364.681 51.705,363.876 51.799,363.079 C63.409,361.478 77.104,361.282 92.807,363.478 L102.807,360.977 L113.002,358.478 C112.502,358.673 112.205,358.876 111.908,359.181 C111.908,359.181 118.611,360.579 118.111,364.181 C117.604,367.774 107.408,371.571 107.408,371.571 L102.807,374.681 C102.807,374.681 102.908,375.079 102.908,375.783 C103.002,377.079 103.002,379.376 102.103,382.079" fill="#343534"/>
    <path d="M115.002,537.673 C114.51,539.376 117.604,545.876 117.314,547.079 C117.103,548.283 101.51,548.876 98.9,547.673 C96.307,546.478 107.807,539.681 108.705,538.478 C109.603,537.376 110.307,531.282 109.603,527.884 C112.01,527.978 114.51,527.978 116.799,527.978 C116.4,530.384 115.408,536.283 115.002,537.673" fill="#3C3020"/>
    <path d="M85.705,352.079 C83.502,345.977 83.612,328.978 84.908,326.876 L84.908,326.782 C86.112,324.985 89.112,322.486 91.002,323.079 C91.205,323.079 91.4,323.173 91.611,323.376 C93.111,324.579 104.408,339.985 107.408,345.977 C107.01,347.376 106.51,348.673 106.111,349.876 C101.908,352.486 92.807,356.079 87.104,354.181 C86.51,353.978 86.112,353.283 85.705,352.079" fill="#CBCCCB"/>
    <path d="M98.807,368.782 C100.408,371.376 95.213,383.079 74.604,385.978 C65.908,387.181 53.205,388.282 41.205,388.579 C44.01,387.673 46.611,386.681 47.104,386.477 C47.807,386.173 50.002,374.181 51.307,365.579 C60.307,364.071 70.705,362.978 80.408,363.783 C90.908,364.579 97.104,366.079 98.807,368.782" fill="#5F615E"/>
    <path d="M84.908,326.782 L84.908,326.876 C83.612,328.978 83.502,345.977 85.705,352.079 C83.807,352.673 81.612,353.376 79.205,350.579 C76.112,346.97 53.112,318.579 53.112,318.579 C53.112,318.579 51.51,320.275 49.112,322.079 C50.502,314.579 52.104,306.783 53.408,300.079 C53.807,300.876 54.01,301.681 54.111,302.579 C54.111,302.579 75.104,319.282 84.908,326.782" fill="#F7CCAA"/>
    <path d="M49.51,283.673 C50.002,280.079 56.908,280.579 56.51,283.876 C56.401,284.876 55.104,291.478 53.408,300.079 C52.315,297.181 49.909,294.985 47.01,293.876 L49.51,283.673" fill="#B79267"/>
    <path d="M43.611,349.376 C43.611,349.376 52.909,354.181 52.604,357.274 C52.502,357.977 52.315,360.173 51.799,363.079 C49.705,363.282 47.604,363.579 45.612,363.977 C45.807,363.173 45.908,362.775 45.908,362.775 C45.908,362.775 42.807,362.275 42.104,362.775 L41.307,364.774 C40.002,365.079 38.807,365.275 37.604,365.579 C38.112,363.478 38.502,362.079 38.502,362.079 C38.502,362.079 35.408,361.571 34.705,362.079 L32.908,366.876 C31.705,367.181 30.502,367.486 29.408,367.884 C30.409,364.376 31.112,361.571 31.112,361.571 C31.112,361.571 28.002,361.079 27.315,361.571 L24.299,369.579 C21.002,370.782 18.111,371.97 15.705,373.173 C19.408,365.275 23.705,356.571 24.205,355.173 C25.213,352.486 33.502,348.673 33.502,348.673 L39.205,325.673 C42.604,326.173 46.307,324.071 49.112,322.079 C46.205,336.478 43.611,349.376 43.611,349.376" fill="#B79267"/>
    <path d="M51.799,363.079 C51.705,363.876 51.51,364.681 51.307,365.579 C49.01,365.978 46.799,366.376 44.815,366.876 C45.213,365.673 45.409,364.681 45.612,363.977 C47.604,363.579 49.705,363.282 51.799,363.079" fill="#B79267"/>
    <path d="M51.307,365.579 C50.002,374.181 47.807,386.173 47.104,386.477 C46.611,386.681 44.01,387.673 41.205,388.579 C27.713,389.072 15.002,388.673 10.002,386.477 C10.307,385.079 12.01,381.173 14.112,376.571 L14.205,376.571 C17.01,374.986 20.213,373.673 23.205,372.579 L19.705,381.876 C19.705,381.876 22.807,385.673 24.705,382.376 C25.705,380.782 27.315,375.673 28.611,370.876 C28.807,370.782 29.01,370.673 29.205,370.673 C29.908,370.478 30.705,370.275 31.705,369.985 L27.104,382.376 C27.104,382.376 30.213,386.173 32.104,382.884 C33.205,380.876 35.213,374.072 36.705,368.782 C37.807,368.477 39.01,368.173 40.213,367.884 L34.51,383.079 C34.511,383.079 37.604,386.876 39.51,383.579 C40.807,381.173 43.408,372.181 44.815,366.876 C46.799,366.376 49.01,365.978 51.307,365.579" fill="#B79267"/>
    <path d="M53.408,300.079 C52.104,306.783 50.502,314.579 49.112,322.079 C46.307,324.071 42.604,326.173 39.205,325.673 L47.01,293.876 C49.909,294.985 52.315,297.181 53.408,300.079" fill="#F7CCAA"/>
    <path d="M47.01,293.876 L39.205,325.673 C38.502,325.673 37.909,325.579 37.315,325.275 C30.705,322.376 25.611,310.478 31.4,299.47 C34.815,292.978 41.705,291.681 47.01,293.876" fill="#F7CCAA"/>
    <path d="M45.612,363.977 C45.409,364.681 45.213,365.673 44.815,366.876 C43.205,367.181 41.612,367.579 40.213,367.884 L41.307,364.774 C42.713,364.47 44.112,364.181 45.612,363.977" fill="#343534"/>
    <path d="M44.815,366.876 C43.408,372.181 40.807,381.173 39.51,383.579 C37.604,386.876 34.51,383.079 34.51,383.079 L40.213,367.884 C41.612,367.579 43.205,367.181 44.815,366.876" fill="#5F615E"/>
    <path d="M41.307,364.774 L40.213,367.884 C39.01,368.173 37.807,368.477 36.705,368.782 C37.01,367.579 37.315,366.478 37.604,365.579 C38.807,365.275 40.002,365.079 41.307,364.774" fill="#B79267"/>
    <path d="M37.604,365.579 C37.315,366.478 37.01,367.579 36.705,368.782 C34.815,369.181 33.111,369.681 31.705,369.985 L32.908,366.876 C34.408,366.376 35.908,365.978 37.604,365.579" fill="#343534"/>
    <path d="M36.705,368.782 C35.213,374.072 33.205,380.876 32.104,382.884 C30.213,386.173 27.104,382.376 27.104,382.376 L31.705,369.985 C33.111,369.681 34.815,369.181 36.705,368.782" fill="#5F615E"/>
    <path d="M32.908,366.876 L31.705,369.985 C30.705,370.275 29.908,370.478 29.205,370.673 C29.01,370.673 28.807,370.782 28.611,370.876 C28.901,369.775 29.205,368.782 29.408,367.884 C30.502,367.486 31.705,367.181 32.908,366.876" fill="#B79267"/>
    <path d="M29.408,367.884 C29.205,368.782 28.901,369.775 28.611,370.876 C27.104,371.283 25.213,371.876 23.205,372.579 L24.299,369.579 C25.909,368.978 27.604,368.477 29.408,367.884" fill="#343534"/>
    <path d="M28.611,370.876 C27.315,375.673 25.705,380.782 24.705,382.376 C22.807,385.673 19.705,381.876 19.705,381.876 L23.205,372.579 C25.213,371.876 27.104,371.283 28.611,370.876" fill="#5F615E"/>
    <path d="M24.299,369.579 L23.205,372.579 C20.213,373.673 17.01,374.986 14.205,376.571 C14.604,375.478 15.104,374.376 15.705,373.173 C18.111,371.97 21.002,370.782 24.299,369.579" fill="#B79267"/>
    <path d="M14.112,376.571 C12.01,381.173 10.307,385.079 10.002,386.477 C8.9,386.079 8.205,385.579 7.909,384.985 C6.307,382.181 9.51,379.181 14.112,376.571" fill="#5F615E"/>
    <path d="M139.955,243.509 C140.494,248.845 145.916,254.658 153.018,254.806 C160.127,254.962 173.26,250.61 178.596,242.048" fill-opacity="0" stroke="#885A41" stroke-width="2.5" stroke-linecap="round" stroke-linejoin="round"/>
  </g>
</svg>
