<?xml version="1.0" encoding="UTF-8" standalone="no"?>
<!DOCTYPE svg PUBLIC "-//W3C//DTD SVG 1.1//EN" "http://www.w3.org/Graphics/SVG/1.1/DTD/svg11.dtd">
<svg viewBox="0 0 1014 656" version="1.1" xmlns="http://www.w3.org/2000/svg" xmlns:xlink="http://www.w3.org/1999/xlink">
	<defs>
		<path id="ecx" d="m0 0l-39.422 0c1.001 2.5 2.774 4.515 5.321 6.047c2.547 1.531 5.992 2.296 10.336 2.296c3.562 0 8.297-0.765 14.203-2.297c2.437-0.625 4.125-0.937 5.062-0.937c1.282 0 2.36 0.453 3.235 1.359c0.875 0.907 1.312 2.047 1.312 3.422c0 1.25-0.469 2.313-1.406 3.188c-1.25 1.156-4.297 2.258-9.141 3.304c-4.843 1.047-9.5 1.571-13.968 1.571c-7.688 0-13.836-2.172-18.446-6.516c-4.609-4.344-6.914-9.687-6.914-16.031c0-6.75 2.492-12.242 7.477-16.477c4.984-4.234 10.726-6.351 17.226-6.351c3.907 0 7.493 0.687 10.758 2.062c3.266 1.375 5.695 2.86 7.289 4.453c2.25 2.313 4.11 5.172 5.578 8.578c1 2.375 1.5 5.125 1.5 8.25l0 4.079zm-10.64-9.61c-1.469-2.75-3.391-4.804-5.766-6.164c-2.375-1.359-5.203-2.039-8.484-2.039c-3.25 0-6.063 0.68-8.438 2.039c-2.375 1.36-4.312 3.414-5.812 6.164l28.5 0zm59.109-14.812c1.156-1.094 2.344-1.641 3.563-1.641c1.375 0 2.507 0.492 3.398 1.477c0.891 0.984 1.336 2.617 1.336 4.898l0 6.188c0 2.312-0.445 3.953-1.336 4.921c-0.891 0.969-2.055 1.454-3.492 1.454c-1.313 0-2.422-0.375-3.328-1.125c-0.657-0.563-1.172-1.711-1.547-3.446c-0.375-1.734-1.281-3.023-2.719-3.867c-2.531-1.5-5.765-2.25-9.703-2.25c-4.531 0-8.164 1.328-10.898 3.984c-2.735 2.657-4.102 6.016-4.102 10.079c0 3.75 1.313 6.711 3.938 8.882c2.625 2.172 6.984 3.258 13.078 3.258c4 0 7.265-0.406 9.797-1.219c1.5-0.5 2.921-1.351 4.265-2.554c1.344-1.203 2.563-1.805 3.656-1.805c1.313 0 2.446 0.484 3.399 1.453c0.953 0.969 1.43 2.11 1.43 3.422c0 2.125-1.454 4.141-4.36 6.047c-4.312 2.844-10.625 4.266-18.937 4.266c-7.469 0-13.282-1.547-17.438-4.641c-5.625-4.156-8.437-9.844-8.437-17.063c0-6.843 2.281-12.507 6.843-16.992c4.563-4.484 10.516-6.726 17.86-6.726c2.656 0 5.125 0.25 7.406 0.75c2.281 0.5 4.391 1.25 6.328 2.25zm49.828 18.703l14.578 12.515c1.75 0.094 3.063 0.586 3.938 1.477c0.875 0.891 1.312 2.008 1.312 3.352c0 1.406-0.492 2.554-1.476 3.445c-0.985 0.891-2.633 1.336-4.946 1.336l-10.921 0c-2.313 0-3.961-0.445-4.946-1.336c-0.984-0.891-1.476-2.07-1.476-3.539c0-1.125 0.351-2.117 1.054-2.977c0.704-0.859 1.665-1.445 2.883-1.758l-7.172-6.187l-7.312 6.188c1.469 0.375 2.523 0.953 3.164 1.734c0.641 0.781 0.961 1.781 0.961 3c0 1.469-0.484 2.648-1.453 3.539c-0.969 0.891-2.61 1.336-4.922 1.336l-10.828 0c-2.313 0-3.961-0.445-4.946-1.336c-0.984-0.891-1.476-2.055-1.476-3.492c0-1.313 0.437-2.414 1.312-3.305c0.875-0.891 2.188-1.383 3.938-1.477l14.25-12.562l-12.609-10.781c-1.657-0.125-2.915-0.633-3.774-1.524c-0.859-0.89-1.289-1.992-1.289-3.304c0-1.407 0.492-2.555 1.477-3.446c0.984-0.89 2.632-1.336 4.945-1.336l9 0c2.312 0 3.961 0.446 4.945 1.336c0.985 0.891 1.477 2.024 1.477 3.399c0 1.843-0.875 3.343-2.625 4.5l5.812 4.828l5.719-4.922c-1.719-1.219-2.578-2.625-2.578-4.219c0-1.5 0.492-2.695 1.476-3.586c0.985-0.89 2.633-1.336 4.946-1.336l8.906 0c2.313 0 3.961 0.446 4.945 1.336c0.985 0.891 1.477 2.055 1.477 3.492c0 1.282-0.43 2.368-1.289 3.258c-0.86 0.891-2.133 1.399-3.821 1.524l-12.656 10.828z"/>
		<path id="not" d="m0 0l0 3.235c1.75-1.5 3.679-2.625 5.789-3.375c2.109-0.75 4.398-1.125 6.867-1.125c5.687 0 10.187 1.765 13.5 5.297c2.625 2.812 3.937 6.5 3.937 11.062l0 17.859c2.032 0 3.532 0.446 4.5 1.336c0.969 0.891 1.453 2.055 1.453 3.493c0 1.406-0.492 2.554-1.476 3.445c-0.984 0.891-2.633 1.336-4.945 1.336l-8.672 0c-2.313 0-3.961-0.445-4.946-1.336c-0.984-0.891-1.476-2.055-1.476-3.492c0-1.407 0.484-2.555 1.453-3.446c0.969-0.89 2.469-1.336 4.5-1.336l0-18.14c0-2.094-0.562-3.625-1.687-4.594c-1.469-1.25-3.672-1.875-6.61-1.875c-2.219 0-4.164 0.43-5.836 1.289c-1.672 0.86-3.789 2.68-6.351 5.461l0 17.859c2.468 0 4.062 0.235 4.781 0.704c1.531 0.937 2.297 2.312 2.297 4.125c0 1.406-0.492 2.554-1.477 3.445c-0.984 0.891-2.633 1.336-4.945 1.336l-10.922 0c-2.312 0-3.961-0.445-4.945-1.336c-0.985-0.891-1.477-2.055-1.477-3.492c0-1.75 0.75-3.11 2.25-4.078c0.75-0.469 2.36-0.704 4.828-0.704l0-23.343c-2.031 0-3.531-0.453-4.5-1.36c-0.968-0.906-1.453-2.062-1.453-3.468c0-1.407 0.492-2.555 1.477-3.446c0.984-0.89 2.633-1.336 4.945-1.336l9.141 0zm92.296 22.079c0 3.687-1.023 7.257-3.07 10.71c-2.047 3.454-5.094 6.204-9.14 8.25c-4.047 2.047-8.274 3.071-12.68 3.071c-4.375 0-8.563-1.008-12.563-3.024c-4-2.015-7.046-4.758-9.14-8.226c-2.094-3.469-3.141-7.094-3.141-10.875c0-3.844 1.063-7.617 3.188-11.321c2.125-3.703 5.179-6.617 9.164-8.742c3.984-2.125 8.148-3.187 12.492-3.187c4.375 0 8.586 1.086 12.633 3.258c4.047 2.171 7.101 5.093 9.164 8.765c2.062 3.672 3.093 7.445 3.093 11.321zm-9.609 0.046c0-3.093-1.109-5.937-3.328-8.531c-3.031-3.5-7.016-5.25-11.953-5.25c-4.344 0-7.969 1.391-10.875 4.172c-2.906 2.781-4.36 6-4.36 9.656c0 3 1.469 5.805 4.407 8.414c2.937 2.61 6.547 3.914 10.828 3.914c4.312 0 7.937-1.304 10.875-3.914c2.937-2.609 4.406-5.429 4.406-8.461zm39.891-12.515l0 19.265c0 2.063 0.422 3.422 1.265 4.078c1.313 1.032 3.657 1.547 7.032 1.547c4.906 0 9.437-1.047 13.593-3.14c1.594-0.813 2.844-1.219 3.75-1.219c1.25 0 2.336 0.469 3.258 1.406c0.922 0.938 1.383 2.078 1.383 3.422c0 1.25-0.5 2.328-1.5 3.235c-1.531 1.468-4.555 2.82-9.07 4.054c-4.516 1.235-8.321 1.852-11.414 1.852c-5.969 0-10.446-1.289-13.43-3.867c-2.984-2.579-4.477-5.743-4.477-9.493l0-21.14l-3.468 0c-2.313 0-3.961-0.446-4.946-1.336c-0.984-0.891-1.476-2.055-1.476-3.492c0-1.407 0.492-2.555 1.476-3.446c0.985-0.89 2.633-1.336 4.946-1.336l3.468 0l0-8.671c0-2.313 0.446-3.961 1.336-4.946c0.891-0.984 2.055-1.476 3.492-1.476c1.407 0 2.555 0.492 3.446 1.476c0.89 0.985 1.336 2.633 1.336 4.946l0 8.671l17.765 0c2.313 0 3.961 0.446 4.946 1.336c0.984 0.891 1.476 2.055 1.476 3.493c0 1.406-0.492 2.554-1.476 3.445c-0.985 0.89-2.633 1.336-4.946 1.336l-17.765 0z"/>
		<path id="al" d="m0 0l0-2.25c-2.406 1.281-5.062 2.242-7.969 2.883c-2.906 0.64-5.546 0.961-7.921 0.961c-5.157 0-9.344-1.368-12.563-4.102c-3.219-2.734-4.828-5.758-4.828-9.07c0-4.032 2.055-7.774 6.164-11.227c4.109-3.453 9.789-5.18 17.039-5.18c2.906 0 6.266 0.313 10.078 0.938l0-2.297c0-1.437-0.617-2.609-1.851-3.516c-1.235-0.906-3.586-1.359-7.055-1.359c-2.844 0-6.531 0.563-11.063 1.688c-1.687 0.406-3 0.609-3.937 0.609c-1.281 0-2.367-0.461-3.258-1.383c-0.891-0.922-1.336-2.101-1.336-3.539c0-0.812 0.156-1.516 0.469-2.109c0.312-0.594 0.75-1.071 1.312-1.43c0.563-0.359 1.735-0.789 3.516-1.289c2.375-0.656 4.797-1.18 7.266-1.57c2.468-0.391 4.703-0.586 6.703-0.586c5.969 0 10.601 1.289 13.898 3.867c3.297 2.578 4.946 6.101 4.946 10.57l0 19.781l1.64 0c2.313 0 3.961 0.446 4.945 1.336c0.985 0.891 1.477 2.055 1.477 3.493c0 1.406-0.492 2.554-1.477 3.445c-0.984 0.891-2.632 1.336-4.945 1.336l-11.25 0zm0 -17.203c-3.844-0.75-7.39-1.125-10.64-1.125c-3.907 0-7.266 0.953-10.079 2.859c-1.75 1.219-2.625 2.453-2.625 3.703c0 0.906 0.422 1.641 1.266 2.203c1.563 1.032 3.703 1.547 6.422 1.547c2.312 0 4.93-0.453 7.851-1.359c2.922-0.906 5.524-2.141 7.805-3.703l0-4.125zm53.766-43.594l0 51.188l11.531 0c2.313 0 3.961 0.445 4.945 1.335c0.985 0.891 1.477 2.055 1.477 3.493c0 1.406-0.492 2.554-1.477 3.445c-0.984 0.891-2.632 1.336-4.945 1.336l-32.672 0c-2.312 0-3.961-0.445-4.945-1.336c-0.985-0.891-1.477-2.055-1.477-3.492c0-1.406 0.492-2.555 1.477-3.446c0.984-0.89 2.633-1.335 4.945-1.335l11.531 0l0-41.579l-7.734 0c-2.281 0-3.922-0.445-4.922-1.336c-1-0.89-1.5-2.054-1.5-3.492c0-1.406 0.492-2.554 1.477-3.445c0.984-0.891 2.633-1.336 4.945-1.336l17.344 0z"/>
		<path id="comma" d="m0 0l12.843 0l-13.828 26.063c-0.812 1.531-1.828 2.297-3.047 2.297c-0.812 0-1.508-0.266-2.086-0.797c-0.578-0.531-0.867-1.125-0.867-1.781c0-0.469 0.11-1.11 0.328-1.922l6.657-23.86z"/>
		<path id="sub" d="m0 0c-1.562-0.968-3.203-1.695-4.922-2.179c-1.719-0.485-3.515-0.727-5.39-0.727c-3.719 0-6.672 0.609-8.86 1.828c-0.969 0.531-1.453 1.11-1.453 1.735c0 0.718 0.656 1.421 1.969 2.109c1 0.5 3.234 0.984 6.703 1.453c6.375 0.875 10.812 1.75 13.312 2.625c3.282 1.156 5.813 2.875 7.594 5.156c1.781 2.282 2.672 4.688 2.672 7.219c0 3.438-1.516 6.313-4.547 8.625c-4.344 3.344-9.984 5.016-16.922 5.016c-2.781 0-5.351-0.242-7.711-0.727c-2.359-0.484-4.523-1.195-6.492-2.133c-0.469 0.407-0.969 0.719-1.5 0.938c-0.531 0.219-1.078 0.328-1.64 0.328c-1.5 0-2.696-0.492-3.586-1.477c-0.891-0.984-1.336-2.632-1.336-4.945l0-3.234c0-2.313 0.445-3.961 1.336-4.946c0.89-0.984 2.054-1.476 3.492-1.476c1.156 0 2.125 0.32 2.906 0.961c0.781 0.64 1.391 1.742 1.828 3.305c1.469 1.249 3.235 2.195 5.297 2.835c2.063 0.641 4.438 0.961 7.125 0.961c4.406 0 7.828-0.687 10.266-2.062c1.156-0.688 1.734-1.406 1.734-2.156c0-1.25-0.828-2.282-2.484-3.094c-1.657-0.813-5.078-1.5-10.266-2.063c-7.719-0.812-12.875-2.375-15.469-4.687c-2.593-2.281-3.89-5.094-3.89-8.438c0-3.437 1.453-6.297 4.359-8.578c3.938-3.125 9.094-4.687 15.469-4.687c2.219 0 4.351 0.211 6.398 0.633c2.047 0.421 4.008 1.07 5.883 1.945c0.594-0.438 1.148-0.766 1.664-0.984c0.516-0.219 0.992-0.329 1.43-0.329c1.312 0 2.406 0.493 3.281 1.477c0.875 0.984 1.313 2.633 1.313 4.945l0 2.344c0 2.094-0.25 3.516-0.75 4.266c-1 1.437-2.36 2.156-4.079 2.156c-1.156 0-2.171-0.36-3.046-1.078c-0.875-0.719-1.438-1.672-1.688-2.86zm67.641-11.25l0 32.953c2.031 0 3.531 0.454 4.5 1.36c0.968 0.906 1.453 2.062 1.453 3.469c0 1.406-0.492 2.554-1.477 3.445c-0.984 0.891-2.633 1.336-4.945 1.336l-9.141 0l0-2.203c-2.75 1.25-5.375 2.187-7.875 2.812c-2.5 0.625-4.875 0.938-7.125 0.938c-3.156 0-5.89-0.664-8.203-1.992c-2.312-1.329-4.14-3.165-5.484-5.508c-0.969-1.688-1.453-3.797-1.453-6.328l0-20.672l-1.641 0c-2.312 0-3.961-0.446-4.945-1.336c-0.985-0.891-1.477-2.055-1.477-3.492c0-1.407 0.492-2.555 1.477-3.446c0.984-0.89 2.633-1.336 4.945-1.336l11.25 0l0 28.594c0 2.031 0.492 3.524 1.477 4.477c0.984 0.953 2.492 1.429 4.523 1.429c1.938 0 4.023-0.382 6.258-1.148c2.234-0.766 4.992-2.149 8.273-4.149l0-19.593l-3.469 0c-2.312 0-3.96-0.446-4.945-1.336c-0.984-0.891-1.476-2.055-1.476-3.492c0-1.407 0.492-2.555 1.476-3.446c0.985-0.89 2.633-1.336 4.945-1.336l13.079 0zm25.078-18.234l0 21.563c2.343-1.532 4.726-2.68 7.148-3.446c2.422-0.765 4.867-1.148 7.336-1.148c6.656 0 12.297 2.297 16.922 6.89c4.625 4.594 6.937 10.141 6.937 16.641c0 6.219-2.203 11.414-6.609 15.586c-4.406 4.172-10.219 6.258-17.437 6.258c-2.563 0-5.032-0.328-7.407-0.985c-2.375-0.656-4.671-1.625-6.89-2.906l0 2.344l-11.25 0c-2.313 0-3.961-0.445-4.946-1.336c-0.984-0.891-1.476-2.055-1.476-3.492c0-1.406 0.5-2.555 1.5-3.446c1-0.89 2.641-1.335 4.922-1.335l1.64 0l0-41.579l-1.64 0c-2.313 0-3.961-0.445-4.946-1.336c-0.984-0.89-1.476-2.054-1.476-3.492c0-1.406 0.492-2.554 1.476-3.445c0.985-0.891 2.633-1.336 4.946-1.336l11.25 0zm28.734 40.781c0-3.969-1.39-7.328-4.172-10.078c-2.781-2.75-6.187-4.125-10.219-4.125c-3.999 0-7.39 1.375-10.171 4.125c-2.782 2.75-4.172 6.063-4.172 9.938c0 3.531 1.25 6.429 3.75 8.695c2.5 2.266 6.031 3.398 10.593 3.398c4.563 0 8.102-1.132 10.618-3.398c2.515-2.266 3.773-5.117 3.773-8.555z"/>

		<filter id="Asm">
			<feGaussianBlur in="SourceAlpha" stdDeviation="3"/>
			<feOffset dx="5" dy="5" result="Offset"/>
			<feComposite operator="xor" in="SourceGraphic" in2="Offset"/>
		</filter>
	</defs>

	<g id="stringlength" filter="url(#Asm)">
		<title>String Length</title>
		<desc>Assembly language code to find the length of a NUL-terminated string, which I posted on http://www.int80h.org/strlen/ (one of my many web sites) back in 2000, now turned into an SVG graphic. It expects ES:EDI/RDI to point at the start of the string. At the end, the length of the string, not counting the terminating NUL, is in ECX.</desc>

		<g id="opcodes" fill="#008000">
			<use x="363.125" y="33.484" xlink:href="#sub"/>
			<use x="363.125" y="130.484" xlink:href="#sub"/>
			<use x="347.016" y="215.234" xlink:href="#not"/>
			<path id="cld" d="m367.719 312.969c1.156-1.094 2.344-1.641 3.562-1.641c1.375 0 2.508 0.492 3.399 1.477c0.89 0.984 1.336 2.617 1.336 4.898l0 6.188c0 2.312-0.446 3.953-1.336 4.922c-0.891 0.968-2.055 1.453-3.493 1.453c-1.312 0-2.421-0.375-3.328-1.125c-0.656-0.563-1.172-1.711-1.547-3.446c-0.375-1.734-1.281-3.023-2.718-3.867c-2.531-1.5-5.766-2.25-9.703-2.25c-4.532 0-8.164 1.328-10.899 3.985c-2.734 2.656-4.101 6.015-4.101 10.078c0 3.75 1.312 6.711 3.937 8.882c2.625 2.172 6.984 3.258 13.078 3.258c4 0 7.266-0.406 9.797-1.218c1.5-0.501 2.922-1.352 4.266-2.555c1.344-1.203 2.562-1.805 3.656-1.805c1.312 0 2.445 0.484 3.398 1.453c0.954 0.969 1.43 2.11 1.43 3.422c0 2.125-1.453 4.141-4.359 6.047c-4.313 2.844-10.625 4.266-18.938 4.266c-7.468 0-13.281-1.547-17.437-4.641c-5.625-4.156-8.438-9.844-8.438-17.062c0-6.844 2.282-12.508 6.844-16.993c4.563-4.484 10.516-6.726 17.859-6.726c2.657 0 5.125 0.25 7.407 0.75c2.281 0.5 4.39 1.25 6.328 2.25zm47.437-19.969l0 51.188l11.531 0c2.313 0 3.961 0.445 4.946 1.335c0.984 0.891 1.476 2.055 1.476 3.493c0 1.406-0.492 2.554-1.476 3.445c-0.985 0.891-2.633 1.336-4.946 1.336l-32.671 0c-2.313 0-3.961-0.445-4.946-1.336c-0.984-0.891-1.476-2.055-1.476-3.492c0-1.406 0.492-2.555 1.476-3.446c0.985-0.89 2.633-1.335 4.946-1.335l11.531 0l0-41.579l-7.735 0c-2.281 0-3.921-0.445-4.921-1.336c-1-0.89-1.5-2.054-1.5-3.492c0-1.406 0.492-2.554 1.476-3.445c0.985-0.891 2.633-1.336 4.945-1.336l17.344 0zm74.86 0l0 51.188l1.64 0c2.282 0 3.922 0.445 4.922 1.335c1 0.891 1.5 2.055 1.5 3.493c0 1.406-0.492 2.554-1.476 3.445c-0.985 0.891-2.633 1.336-4.946 1.336l-11.25 0l0-2.344c-2.187 1.281-4.476 2.25-6.867 2.906c-2.391 0.657-4.867 0.985-7.43 0.985c-7.218 0-13.031-2.086-17.437-6.258c-4.406-4.172-6.61-9.367-6.61-15.586c0-6.5 2.313-12.047 6.938-16.641c4.625-4.593 10.266-6.89 16.922-6.89c2.5 0 4.953 0.383 7.359 1.148c2.407 0.766 4.781 1.914 7.125 3.445l0-11.953l-1.64 0c-2.313 0-3.961-0.445-4.946-1.336c-0.984-0.89-1.476-2.039-1.476-3.445c0-1.437 0.492-2.601 1.476-3.492c0.985-0.891 2.633-1.336 4.946-1.336l11.25 0zm-9.61 40.781c0-3.969-1.39-7.328-4.172-10.078c-2.781-2.75-6.187-4.125-10.218-4.125c-4 0-7.391 1.375-10.172 4.125c-2.781 2.75-4.172 6.063-4.172 9.938c0 3.531 1.25 6.429 3.75 8.695c2.5 2.266 6.031 3.398 10.594 3.398c4.531 0 8.062-1.132 10.593-3.398c2.532-2.266 3.797-5.117 3.797-8.555z"/>
			<path id="repne" d="m26.75 407.234l0 6c4.031-2.906 7.211-4.843 9.539-5.812c2.328-0.969 4.508-1.453 6.539-1.453c3.125 0 6.156 1.156 9.094 3.469c2 1.562 3 3.156 3 4.781c0 1.375-0.477 2.539-1.43 3.492c-0.953 0.953-2.101 1.43-3.445 1.43c-1.188 0-2.438-0.594-3.75-1.782c-1.313-1.187-2.485-1.781-3.516-1.781c-1.343 0-3.351 0.844-6.023 2.531c-2.672 1.688-6.008 4.219-10.008 7.594l0 14.484l13.687 0c2.313 0 3.961 0.446 4.946 1.336c0.984 0.891 1.476 2.055 1.476 3.493c0 1.406-0.492 2.554-1.476 3.445c-0.985 0.891-2.633 1.336-4.946 1.336l-29.015 0c-2.313 0-3.961-0.445-4.945-1.336c-0.985-0.891-1.477-2.055-1.477-3.492c0-1.406 0.492-2.555 1.477-3.446c0.984-0.89 2.632-1.335 4.945-1.335l5.719 0l0-23.344l-3.469 0c-2.313 0-3.961-0.446-4.945-1.336c-0.985-0.891-1.477-2.055-1.477-3.492c0-1.407 0.492-2.555 1.477-3.446c0.984-0.89 2.632-1.336 4.945-1.336l13.078 0zm83.719 26.157l-39.422 0c1 2.5 2.773 4.515 5.32 6.046c2.547 1.532 5.992 2.297 10.336 2.297c3.563 0 8.297-0.765 14.203-2.297c2.438-0.625 4.125-0.937 5.063-0.937c1.281 0 2.359 0.453 3.234 1.359c0.875 0.907 1.313 2.047 1.313 3.422c0 1.25-0.469 2.313-1.407 3.188c-1.25 1.156-4.296 2.258-9.14 3.304c-4.844 1.047-9.5 1.571-13.969 1.571c-7.688 0-13.836-2.172-18.445-6.516c-4.61-4.344-6.914-9.687-6.914-16.031c0-6.75 2.492-12.242 7.476-16.477c4.985-4.234 10.727-6.351 17.227-6.351c3.906 0 7.492 0.687 10.758 2.062c3.265 1.375 5.695 2.86 7.289 4.453c2.25 2.313 4.109 5.172 5.578 8.579c1 2.374 1.5 5.124 1.5 8.25l0 4.078zm-10.641-9.61c-1.469-2.75-3.39-4.804-5.766-6.164c-2.374-1.359-5.203-2.039-8.484-2.039c-3.25 0-6.062 0.68-8.437 2.039c-2.375 1.36-4.313 3.414-5.813 6.164l28.5 0zm32.203 20.719l0 15.75l5.766 0c2.312 0 3.961 0.445 4.945 1.336c0.985 0.891 1.477 2.055 1.477 3.492c0 1.406-0.492 2.555-1.477 3.445c-0.984 0.891-2.633 1.336-4.945 1.336l-17.016 0c-2.312 0-3.961-0.445-4.945-1.336c-0.984-0.89-1.477-2.039-1.477-3.445c0-1.437 0.5-2.601 1.5-3.492c1-0.891 2.641-1.336 4.922-1.336l1.641 0l0-43.406l-1.641 0c-2.312 0-3.961-0.446-4.945-1.336c-0.984-0.891-1.477-2.055-1.477-3.492c0-1.407 0.493-2.555 1.477-3.446c0.984-0.89 2.633-1.336 4.945-1.336l11.25 0l0 3.282c2.25-1.532 4.578-2.672 6.985-3.422c2.406-0.75 4.875-1.125 7.406-1.125c6.562 0 12.156 2.226 16.781 6.679c4.625 4.454 6.938 9.555 6.938 15.305c0 6.344-2.735 11.578-8.203 15.703c-4.563 3.438-9.704 5.157-15.422 5.157c-2.469 0-4.907-0.36-7.313-1.079c-2.406-0.718-4.797-1.797-7.172-3.234zm28.5-16.5c0-1.344-0.531-3.055-1.594-5.133c-1.062-2.078-2.695-3.812-4.898-5.203c-2.203-1.391-4.789-2.086-7.758-2.086c-4.781 0-8.578 1.797-11.39 5.391c-1.907 2.468-2.86 4.843-2.86 7.125c0 2.562 1.367 5.054 4.102 7.476c2.734 2.422 6.117 3.633 10.148 3.633c4.063 0 7.453-1.203 10.172-3.609c2.719-2.407 4.078-4.938 4.078-7.594zm31.313-20.766l0 3.235c1.75-1.5 3.679-2.625 5.789-3.375c2.109-0.75 4.398-1.125 6.867-1.125c5.688 0 10.188 1.765 13.5 5.297c2.625 2.812 3.938 6.5 3.938 11.062l0 17.859c2.031 0 3.531 0.446 4.5 1.336c0.968 0.891 1.453 2.055 1.453 3.493c0 1.406-0.493 2.554-1.477 3.445c-0.984 0.891-2.633 1.336-4.945 1.336l-8.672 0c-2.313 0-3.961-0.445-4.945-1.336c-0.985-0.891-1.477-2.055-1.477-3.492c0-1.406 0.484-2.555 1.453-3.446c0.969-0.89 2.469-1.335 4.5-1.335l0-18.141c0-2.094-0.562-3.625-1.687-4.594c-1.469-1.25-3.672-1.875-6.61-1.875c-2.218 0-4.164 0.43-5.836 1.289c-1.672 0.86-3.789 2.68-6.351 5.461l0 17.86c2.469 0 4.062 0.234 4.781 0.703c1.531 0.937 2.297 2.312 2.297 4.125c0 1.406-0.492 2.554-1.477 3.445c-0.984 0.891-2.632 1.336-4.945 1.336l-10.922 0c-2.312 0-3.961-0.445-4.945-1.336c-0.985-0.891-1.477-2.055-1.477-3.492c0-1.75 0.75-3.11 2.25-4.078c0.75-0.469 2.36-0.703 4.828-0.703l0-23.344c-2.031 0-3.531-0.453-4.5-1.36c-0.968-0.906-1.453-2.062-1.453-3.468c0-1.407 0.492-2.555 1.477-3.446c0.984-0.89 2.633-1.336 4.945-1.336l9.141 0zm91.453 26.157l-39.422 0c1 2.5 2.773 4.515 5.32 6.046c2.547 1.532 5.993 2.297 10.336 2.297c3.563 0 8.297-0.765 14.203-2.297c2.438-0.625 4.125-0.937 5.063-0.937c1.281 0 2.359 0.453 3.234 1.359c0.875 0.907 1.313 2.047 1.313 3.422c0 1.25-0.469 2.313-1.406 3.188c-1.25 1.156-4.297 2.258-9.141 3.304c-4.844 1.047-9.5 1.571-13.969 1.571c-7.687 0-13.836-2.172-18.445-6.516c-4.61-4.344-6.914-9.687-6.914-16.031c0-6.75 2.492-12.242 7.476-16.477c4.985-4.234 10.727-6.351 17.227-6.351c3.906 0 7.492 0.687 10.758 2.062c3.265 1.375 5.695 2.86 7.289 4.453c2.25 2.313 4.109 5.172 5.578 8.579c1 2.374 1.5 5.124 1.5 8.25l0 4.078zm-10.641-9.61c-1.468-2.75-3.39-4.804-5.765-6.164c-2.375-1.359-5.204-2.039-8.485-2.039c-3.25 0-6.062 0.68-8.437 2.039c-2.375 1.36-4.313 3.414-5.813 6.164l28.5 0z"/>
			<path id="scasb" d="m363.125 418.484c-1.562-0.968-3.203-1.695-4.922-2.179c-1.719-0.485-3.515-0.727-5.39-0.727c-3.719 0-6.672 0.609-8.86 1.828c-0.969 0.531-1.453 1.11-1.453 1.735c0 0.718 0.656 1.421 1.969 2.109c1 0.5 3.234 0.984 6.703 1.453c6.375 0.875 10.812 1.75 13.312 2.625c3.282 1.156 5.813 2.875 7.594 5.156c1.781 2.282 2.672 4.688 2.672 7.219c0 3.438-1.516 6.313-4.547 8.625c-4.344 3.344-9.984 5.016-16.922 5.016c-2.781 0-5.351-0.242-7.711-0.727c-2.359-0.484-4.523-1.195-6.492-2.133c-0.469 0.407-0.969 0.719-1.5 0.938c-0.531 0.219-1.078 0.328-1.64 0.328c-1.5 0-2.696-0.492-3.586-1.477c-0.891-0.984-1.336-2.632-1.336-4.945l0-3.234c0-2.313 0.445-3.961 1.336-4.946c0.89-0.984 2.054-1.476 3.492-1.476c1.156 0 2.125 0.32 2.906 0.961c0.781 0.64 1.391 1.742 1.828 3.304c1.469 1.25 3.235 2.196 5.297 2.836c2.063 0.641 4.438 0.961 7.125 0.961c4.406 0 7.828-0.687 10.266-2.062c1.156-0.688 1.734-1.406 1.734-2.156c0-1.25-0.828-2.282-2.484-3.094c-1.657-0.813-5.078-1.5-10.266-2.063c-7.719-0.812-12.875-2.375-15.469-4.687c-2.593-2.281-3.89-5.094-3.89-8.438c0-3.437 1.453-6.297 4.359-8.578c3.938-3.125 9.094-4.687 15.469-4.687c2.219 0 4.351 0.211 6.398 0.633c2.047 0.421 4.008 1.07 5.883 1.945c0.594-0.438 1.148-0.766 1.664-0.985c0.516-0.218 0.992-0.328 1.43-0.328c1.312 0 2.406 0.493 3.281 1.477c0.875 0.984 1.313 2.633 1.313 4.945l0 2.344c0 2.094-0.25 3.516-0.75 4.266c-1 1.437-2.36 2.156-4.079 2.156c-1.156 0-2.171-0.36-3.046-1.078c-0.875-0.719-1.438-1.672-1.688-2.86zm62.203-9.515c1.156-1.094 2.344-1.641 3.563-1.641c1.375 0 2.507 0.492 3.398 1.477c0.891 0.984 1.336 2.617 1.336 4.898l0 6.188c0 2.312-0.445 3.953-1.336 4.922c-0.891 0.968-2.055 1.453-3.492 1.453c-1.313 0-2.422-0.375-3.328-1.125c-0.657-0.563-1.172-1.711-1.547-3.446c-0.375-1.734-1.281-3.023-2.719-3.867c-2.531-1.5-5.766-2.25-9.703-2.25c-4.531 0-8.164 1.328-10.898 3.985c-2.735 2.656-4.102 6.015-4.102 10.078c0 3.75 1.312 6.711 3.937 8.882c2.625 2.172 6.985 3.258 13.079 3.258c4 0 7.265-0.406 9.796-1.218c1.5-0.501 2.922-1.352 4.266-2.555c1.344-1.203 2.563-1.805 3.656-1.805c1.313 0 2.446 0.484 3.399 1.453c0.953 0.969 1.429 2.11 1.429 3.422c0 2.125-1.453 4.141-4.359 6.047c-4.312 2.844-10.625 4.266-18.937 4.266c-7.469 0-13.282-1.547-17.438-4.641c-5.625-4.156-8.437-9.844-8.437-17.062c0-6.844 2.281-12.508 6.843-16.993c4.563-4.484 10.516-6.726 17.86-6.726c2.656 0 5.125 0.25 7.406 0.75c2.281 0.5 4.391 1.25 6.328 2.25zm51.281 40.828l0-2.25c-2.406 1.281-5.062 2.242-7.968 2.883c-2.907 0.64-5.547 0.961-7.922 0.961c-5.157 0-9.344-1.368-12.563-4.102c-3.218-2.734-4.828-5.758-4.828-9.07c0-4.032 2.055-7.774 6.164-11.227c4.11-3.453 9.789-5.18 17.039-5.18c2.906 0 6.266 0.313 10.078 0.938l0-2.297c0-1.437-0.617-2.609-1.851-3.516c-1.235-0.906-3.586-1.359-7.055-1.359c-2.844 0-6.531 0.563-11.062 1.688c-1.688 0.406-3 0.609-3.938 0.609c-1.281 0-2.367-0.461-3.258-1.383c-0.89-0.922-1.336-2.101-1.336-3.539c0-0.812 0.157-1.516 0.469-2.109c0.313-0.594 0.75-1.071 1.313-1.43c0.562-0.359 1.734-0.789 3.515-1.289c2.375-0.656 4.797-1.18 7.266-1.57c2.469-0.391 4.703-0.586 6.703-0.586c5.969 0 10.602 1.289 13.898 3.867c3.297 2.578 4.946 6.101 4.946 10.57l0 19.781l1.64 0c2.313 0 3.961 0.446 4.946 1.336c0.984 0.891 1.476 2.055 1.476 3.493c0 1.406-0.492 2.554-1.476 3.445c-0.985 0.891-2.633 1.336-4.946 1.336l-11.25 0zm0-17.203c-3.843-0.75-7.39-1.125-10.64-1.125c-3.906 0-7.266 0.953-10.078 2.859c-1.75 1.219-2.625 2.453-2.625 3.703c0 0.906 0.421 1.641 1.265 2.203c1.563 1.032 3.703 1.547 6.422 1.547c2.313 0 4.93-0.453 7.852-1.359c2.922-0.906 5.523-2.141 7.804-3.703l0-4.125zm59.344-14.11c-1.562-0.968-3.203-1.695-4.922-2.179c-1.718-0.485-3.515-0.727-5.39-0.727c-3.719 0-6.672 0.609-8.86 1.828c-0.968 0.531-1.453 1.11-1.453 1.735c0 0.718 0.656 1.421 1.969 2.109c1 0.5 3.234 0.984 6.703 1.453c6.375 0.875 10.813 1.75 13.313 2.625c3.281 1.156 5.812 2.875 7.593 5.156c1.782 2.282 2.672 4.688 2.672 7.219c0 3.438-1.515 6.313-4.547 8.625c-4.343 3.344-9.984 5.016-16.922 5.016c-2.781 0-5.351-0.242-7.711-0.727c-2.359-0.484-4.523-1.195-6.492-2.133c-0.468 0.407-0.968 0.719-1.5 0.938c-0.531 0.219-1.078 0.328-1.64 0.328c-1.5 0-2.696-0.492-3.586-1.477c-0.891-0.984-1.336-2.632-1.336-4.945l0-3.234c0-2.313 0.445-3.961 1.336-4.946c0.89-0.984 2.054-1.476 3.492-1.476c1.156 0 2.125 0.32 2.906 0.961c0.781 0.64 1.391 1.742 1.828 3.304c1.469 1.25 3.235 2.196 5.297 2.836c2.063 0.641 4.438 0.961 7.125 0.961c4.406 0 7.828-0.687 10.266-2.062c1.156-0.688 1.734-1.406 1.734-2.156c0-1.25-0.828-2.282-2.484-3.094c-1.656-0.813-5.078-1.5-10.266-2.063c-7.719-0.812-12.875-2.375-15.469-4.687c-2.593-2.281-3.89-5.094-3.89-8.438c0-3.437 1.453-6.297 4.359-8.578c3.938-3.125 9.094-4.687 15.469-4.687c2.219 0 4.351 0.211 6.398 0.633c2.047 0.421 4.008 1.07 5.883 1.945c0.594-0.438 1.149-0.766 1.664-0.985c0.516-0.218 0.992-0.328 1.43-0.328c1.312 0 2.406 0.493 3.281 1.477c0.875 0.984 1.313 2.633 1.313 4.945l0 2.344c0 2.094-0.25 3.516-0.75 4.266c-1 1.437-2.36 2.156-4.078 2.156c-1.157 0-2.172-0.36-3.047-1.078c-0.875-0.719-1.438-1.672-1.688-2.86zm35.11-29.484l0 21.563c2.343-1.532 4.726-2.68 7.148-3.446c2.422-0.765 4.867-1.148 7.336-1.148c6.656 0 12.297 2.297 16.922 6.89c4.625 4.594 6.937 10.141 6.937 16.641c0 6.219-2.203 11.414-6.609 15.586c-4.406 4.172-10.219 6.258-17.438 6.258c-2.562 0-5.031-0.328-7.406-0.985c-2.375-0.656-4.672-1.625-6.891-2.906l0 2.344l-11.25 0c-2.312 0-3.96-0.445-4.945-1.336c-0.984-0.891-1.476-2.055-1.476-3.492c0-1.406 0.5-2.555 1.5-3.446c1-0.89 2.64-1.335 4.921-1.335l1.641 0l0-41.579l-1.641 0c-2.312 0-3.96-0.445-4.945-1.336c-0.984-0.89-1.476-2.054-1.476-3.492c0-1.406 0.492-2.554 1.476-3.445c0.985-0.891 2.633-1.336 4.945-1.336l11.25 0zm28.734 40.781c0-3.969-1.391-7.328-4.172-10.078c-2.781-2.75-6.188-4.125-10.219-4.125c-4 0-7.39 1.375-10.172 4.125c-2.781 2.75-4.171 6.063-4.171 9.938c0 3.531 1.25 6.429 3.75 8.695c2.5 2.266 6.031 3.398 10.593 3.398c4.563 0 8.102-1.132 10.617-3.398c2.516-2.266 3.774-5.117 3.774-8.555z"/>
			<use x="347.016" y="508.234" xlink:href="#not"/>
			<path id="dec" d="M379.797 576l0 51.188l1.64 0c2.282 0 3.922 0.445 4.922 1.335c1 0.891 1.5 2.055 1.5 3.493c0 1.406-0.492 2.554-1.476 3.445c-0.985 0.891-2.633 1.336-4.946 1.336l-11.25 0l0-2.344c-2.187 1.281-4.476 2.25-6.867 2.906c-2.39 0.657-4.867 0.985-7.429 0.985c-7.219 0-13.032-2.086-17.438-6.258c-4.406-4.172-6.609-9.367-6.609-15.586c0-6.5 2.312-12.047 6.937-16.641c4.625-4.593 10.266-6.89 16.922-6.89c2.5 0 4.953 0.383 7.359 1.148c2.407 0.766 4.782 1.914 7.125 3.445l0-11.953l-1.64 0c-2.313 0-3.961-0.445-4.945-1.336c-0.985-0.89-1.477-2.039-1.477-3.445c0-1.437 0.492-2.601 1.477-3.492c0.984-0.891 2.632-1.336 4.945-1.336l11.25 0zm-9.609 40.781c0-3.969-1.391-7.328-4.172-10.078c-2.782-2.75-6.188-4.125-10.219-4.125c-4 0-7.391 1.375-10.172 4.125c-2.781 2.75-4.172 6.063-4.172 9.938c0 3.531 1.25 6.429 3.75 8.695c2.5 2.266 6.031 3.398 10.594 3.398c4.531 0 8.062-1.132 10.594-3.398c2.531-2.266 3.797-5.117 3.797-8.555zm69.2813.61l-39.422 0c1 2.5 2.773 4.515 5.32 6.047c2.547 1.531 5.992 2.296 10.336 2.296c3.563 0 8.297-0.765 14.203-2.297c2.438-0.625 4.125-0.937 5.063-0.937c1.281 0 2.359 0.453 3.234 1.359c0.875 0.907 1.313 2.047 1.313 3.422c0 1.25-0.469 2.313-1.407 3.188c-1.25 1.156-4.296 2.258-9.14 3.304c-4.844 1.047-9.5 1.571-13.969 1.571c-7.688 0-13.836-2.172-18.445-6.516c-4.61-4.344-6.914-9.687-6.914-16.031c0-6.75 2.492-12.242 7.476-16.477c4.985-4.234 10.727-6.351 17.227-6.351c3.906 0 7.492 0.687 10.758 2.062c3.265 1.375 5.695 2.86 7.289 4.453c2.25 2.313 4.109 5.172 5.578 8.578c1 2.375 1.5 5.125 1.5 8.25l0 4.079zm-10.641-9.61c-1.469-2.75-3.39-4.804-5.766-6.164c-2.374-1.359-5.203-2.039-8.484-2.039c-3.25 0-6.062 0.68-8.437 2.039c-2.375 1.36-4.313 3.414-5.813 6.164l28.5 0zm59.109-14.812c1.157-1.094 2.344-1.641 3.563-1.641c1.375 0 2.508 0.492 3.398 1.477c0.891 0.984 1.336 2.617 1.336 4.898l0 6.188c0 2.312-0.445 3.953-1.336 4.921c-0.89 0.969-2.054 1.454-3.492 1.454c-1.312 0-2.422-0.375-3.328-1.125c-0.656-0.563-1.172-1.711-1.547-3.446c-0.375-1.734-1.281-3.023-2.719-3.867c-2.531-1.5-5.765-2.25-9.703-2.25c-4.531 0-8.164 1.328-10.898 3.984c-2.734 2.657-4.102 6.016-4.102 10.079c0 3.75 1.313 6.711 3.938 8.882c2.625 2.172 6.984 3.258 13.078 3.258c4 0 7.266-0.406 9.797-1.219c1.5-0.5 2.922-1.351 4.265-2.554c1.344-1.203 2.563-1.805 3.657-1.805c1.312 0 2.445 0.484 3.398 1.453c0.953 0.969 1.43 2.11 1.43 3.422c0 2.125-1.453 4.141-4.36 6.047c-4.312 2.844-10.624 4.266-18.937 4.266c-7.469 0-13.281-1.547-17.438-4.641c-5.625-4.156-8.437-9.844-8.437-17.063c0-6.843 2.281-12.507 6.844-16.992c4.562-4.484 10.515-6.726 17.859-6.726c2.656 0 5.125 0.25 7.406 0.75c2.282 0.5 4.391 1.25 6.328 2.25z"/>
		</g>

		<g id="accumulator" fill="#800000">
			<use x="579" y="161.797" xlink:href="#al"/>
			<use x="681.688" y="148.859" xlink:href="#comma"/>
			<use x="809.828" y="161.797" xlink:href="#al"/>
		</g>

		<g id="counter" fill="#000080">
			<use x="592.859" y="49.391" xlink:href="#ecx"/>
			<use x="739.297" y="52.859" xlink:href="#comma"/>
			<use x="880.906" y="49.391" xlink:href="#ecx"/>
			<use x="592.859" y="241.391" xlink:href="#ecx"/>
			<use x="587.859" y="534.391" xlink:href="#ecx"/>
			<use x="592.859" y="625.391" xlink:href="#ecx"/>
		</g>
	</g>
</svg>