<?xml version="1.0" encoding="UTF-8" standalone="no"?>
<!-- Created with Inkscape (http://www.inkscape.org/) -->
<svg xmlns:inkscape="http://www.inkscape.org/namespaces/inkscape" xmlns:rdf="http://www.w3.org/1999/02/22-rdf-syntax-ns#" xmlns="http://www.w3.org/2000/svg" xmlns:xlink="http://www.w3.org/1999/xlink" xmlns:ns1="http://sozi.baierouge.fr" xmlns:cc="http://creativecommons.org/ns#" xmlns:sodipodi="http://sodipodi.sourceforge.net/DTD/sodipodi-0.dtd" xmlns:dc="http://purl.org/dc/elements/1.1/" id="svg2" xml:space="preserve" viewBox="0 0 47.147 22.274" version="1.1" inkscape:version="0.91 r13725">
  <defs id="defs6">
    <radialGradient id="radialGradient34" gradientUnits="userSpaceOnUse" cy="26.75" cx="29.15" gradientTransform="matrix(.8 0 0 .30336 -4.8 2.3246)" r="21.062">
      <stop id="stop36" style="stop-color:#c59f4d" offset="0"/>
      <stop id="stop38" style="stop-color:#9d7b34" offset="1"/>
    </radialGradient>
    <linearGradient id="linearGradient52" y2="35.8" gradientUnits="userSpaceOnUse" x2="50.213" gradientTransform="matrix(.8 0 0 -.8 -4.8 31.84)" y1="35.8" x1="10.388">
      <stop id="stop54" style="stop-color:#bea95b" offset="0"/>
      <stop id="stop56" style="stop-color:#665a2d" offset="1"/>
    </linearGradient>
  </defs>
  <g id="g10" transform="matrix(1.25 0 0 -1.25 0 22.274)">
    <g id="g12">
      <path id="path14" style="fill-rule:evenodd;fill:#f2e396" d="m20.441 16.921h-0.043c-0.105 0.21-0.21 0.371-0.32 0.48h-0.039l-0.16 0.16-0.078 0.039 0.558-0.039c0.243-0.055 0.629-0.082 1.161-0.082 0.558-0.238 0.918-0.371 1.082-0.398 0.343-0.106 0.679-0.16 1-0.16 0.265 0.027 0.691 0.093 1.277 0.199 0.562 0.054 1.094-0.067 1.601-0.36 0.934-0.425 2.055-0.746 3.36-0.961 0.187 0 0.414-0.011 0.68-0.039-0.079-0.082-0.122-0.171-0.122-0.281 0-0.105 0.641-0.215 1.922-0.32-0.293 0.293-0.695 0.48-1.199 0.562h0.117c0.453-0.054 0.84-0.269 1.16-0.64 0.375-0.375 0.696-0.641 0.961-0.801-0.347-0.055-0.601-0.082-0.761-0.082-0.133 0-0.305 0.016-0.52 0.043l-0.117 0.117c-0.082 0.109-0.441 0.32-1.082 0.641-0.16 0.082-0.52 0.121-1.078 0.121-0.293 0-0.668 0.011-1.121 0.039 0.109 0.242 0.121 0.508 0.043 0.801l-0.403-0.079c-0.347-0.054-0.625-0.054-0.84 0-0.16 0.079-0.308 0.145-0.441 0.2-0.16 0.078-0.414 0.078-0.758 0-0.269 0.078-0.48 0.121-0.64 0.121h-0.282l-1.597 0.558-0.16 0.121 1.16-0.96h-0.043l-0.52 0.398-0.719 0.203c-0.242 0.16-0.441 0.266-0.601 0.32v0.079h-2.438zm12.957-2.68c0.137-0.055 0.348-0.121 0.641-0.199-0.348-0.161-0.465-0.348-0.359-0.563l-0.078 0.039c-0.11 0.055-0.293 0.11-0.563 0.16-0.293 0.028-0.492 0.071-0.598 0.121 0.719 0.055 1.039 0.2 0.957 0.442zm2.461-0.942c0.043-0.043 0.09-0.074 0.141-0.101 0.348-0.293 0.586-0.586 0.719-0.879-0.348-0.348-0.68-0.574-1-0.68l-0.117-0.039c-0.43 0.133-0.723 0.254-0.883 0.36l-0.039 0.121-0.239 0.32-0.121 0.359c-0.109 0.215-0.242 0.348-0.398 0.399l-0.043 0.082c0.16-0.11 0.441-0.16 0.84-0.16l0.558-0.082c0.215 0.027 0.43 0.109 0.645 0.242l-0.063 0.058zm1.02-1.859c-0.051 0.133-0.078 0.254-0.078 0.359 0.023-0.203 0.16-0.503 0.418-0.898-0.157 0.207-0.27 0.387-0.34 0.539zm-0.84-3.641c0.082 0.161 0.199 0.282 0.359 0.36h-0.039l0.2 0.082c0.039 0.015 0.082 0.027 0.121 0.039-0.293-0.106-0.508-0.266-0.641-0.481zm-15.641-3.679c-0.105-0.188-0.16-0.399-0.16-0.641 0.137-0.078 0.403-0.133 0.801-0.16h0.723c0.371 0 0.773 0.027 1.199 0.082-0.32-0.27-0.684-0.48-1.082-0.641-0.801-0.347-1.879-0.242-3.238 0.321-0.43 0.211-0.723 0.359-0.883 0.437-0.293 0.16-0.598 0.231-0.918 0.203-0.293-0.027-0.547-0.109-0.762-0.242-0.266-0.16-0.531-0.265-0.801-0.32-0.636-0.16-1.492-0.051-2.558 0.32-0.453 0.133-0.852 0.293-1.199 0.481l-0.36 0.242-0.039-0.043v0.039l-0.121-0.078c-0.586-0.215-1.293-0.309-2.121-0.281-0.531 0.027-1.106 0.32-1.719 0.878-0.586 0.641-1.015 1.043-1.281 1.204-0.266 0.183-0.785 0.359-1.559 0.519-0.746 0.16-1.199 0.305-1.359 0.438-0.32 0.214-0.574 0.668-0.762 1.363l0.481 0.117h-0.52v0.121c-0.426 0.082-0.828 0.227-1.199 0.442-0.266 0.187-0.508 0.507-0.723 0.96 0.028 0.051 0.067 0.106 0.121 0.161 0.321 0.316 0.536 0.586 0.641 0.797 0.027 0.027 0.039 0.066 0.039 0.121 0.082 0.132 0.094 0.293 0.039 0.48-0.023 0.215 0.016 0.441 0.121 0.68 0.106-0.078 0.254-0.094 0.442-0.039 0.16 0.027 0.265 0.093 0.32 0.199l0.598 1.121c0.187 0.105 0.386 0.211 0.601 0.316 0.266 0.082 0.707 0.243 1.32 0.481 0.508 0.215 0.852 0.469 1.04 0.762 0.105 0.16 0.214 0.293 0.32 0.398l0.199-0.039c0.535-0.105 0.949-0.066 1.242 0.121l0.239 0.277h-0.122c0.508 0.055 0.977 0.161 1.403 0.321l0.879 0.562c0.015 0.012 0.027 0.024 0.039 0.039 0.082-0.105 0.215-0.175 0.402-0.199 0.664-0.16 1.172-0.133 1.52 0.078 0.132 0.055 0.254 0.176 0.359 0.36l-1.121 0.121c0.32-0.028 0.828-0.078 1.519-0.16 0.411-0.051 0.723-0.051 0.942 0-0.313-0.083-0.559-0.161-0.738-0.239-0.11-0.054-0.227-0.16-0.364-0.32-0.105-0.16-0.226-0.266-0.359-0.32-0.348-0.106-0.801-0.172-1.359-0.2h-1.399c-0.215 0-0.469-0.07-0.762-0.203-0.293-0.211-0.531-0.359-0.718-0.437-0.453-0.188-0.786-0.281-1-0.281-0.719 0.105-1.106 0.066-1.161-0.122v-0.078l-0.199-0.199c-0.215 0-0.359-0.027-0.441-0.082l-0.039-0.039c-0.16-0.078-0.281-0.188-0.36-0.32l-0.043-0.078c-0.21-0.106-0.558-0.309-1.039-0.602-0.16-0.133-0.398-0.414-0.718-0.84-0.293-0.426-0.481-0.652-0.563-0.68l-1.039-0.839v-0.121c0.535 0.082 1.027 0.082 1.481 0-0.051-0.211-0.079-0.426-0.079-0.641 0-0.774 0.332-1.504 1-2.199-0.027 0-0.054-0.012-0.082-0.039-0.132-0.106-0.171-0.227-0.121-0.36 0.055-0.215 0.254-0.347 0.602-0.402 0.16-0.024 0.305 0.016 0.441 0.121 0.746-0.531 1.731-1.012 2.957-1.441 0.215-0.106 0.442-0.2 0.684-0.278-0.055-0.027-0.11-0.07-0.16-0.121-0.11-0.16 0-0.348 0.316-0.558 0.348-0.215 0.934-0.293 1.762-0.243 0.265 0.055 0.426 0.121 0.48 0.2 0 0.027 0.012 0.043 0.039 0.043 0.746-0.161 1.536-0.309 2.36-0.442 0-0.16 0.16-0.32 0.48-0.48 0.535-0.293 1.121-0.414 1.762-0.36 0.238 0.028 0.492 0.133 0.758 0.321 0.082 0.027 0.187 0.078 0.32 0.16 0.883-0.028 1.801-0.043 2.762-0.043 0.531 0.004 1.066 0.015 1.597 0.043zm-17.117 1.398c0.321-0.105 0.614-0.199 0.879-0.277-0.133 0.023-0.254 0.051-0.359 0.078-0.188 0.055-0.36 0.121-0.52 0.199zm10.84 11.403-0.043 0.238c0.25 0.097 0.492 0.18 0.723 0.242 0-0.242 0.027-0.414 0.078-0.52 0.293-0.082 0.762-0.093 1.402-0.042 0.321 0 0.52 0.203 0.598 0.601 0.293-0.055 0.613-0.121 0.961-0.199 0.125-0.051 0.269-0.078 0.441-0.082h-0.121c-0.48-0.266-0.785-0.414-0.922-0.438-0.16-0.054-0.57-0.082-1.238-0.082-0.508 0.055-0.879 0.082-1.121 0.082h-0.078c-0.215 0.133-0.442 0.2-0.68 0.2zm22.039-6.723c-0.508-0.024-0.734-0.277-0.68-0.758 0.028-0.187 0.188-0.309 0.481-0.359l-0.441-0.16c-0.665-0.133-1.051-0.747-1.161-1.84-0.023-0.535-0.093-0.883-0.199-1.039-0.105-0.11-0.426-0.215-0.961-0.321h-0.117c-0.187 0.028-0.359 0.028-0.52 0l-0.562-0.082c-0.691 0.055-1.117 0.067-1.277 0.039-0.403-0.078-0.856-0.316-1.36-0.718l-0.843-0.641c-0.454-0.266-1.082-0.492-1.879-0.68-0.774-0.105-1.403-0.105-1.883 0-0.266 0.16-0.465 0.227-0.598 0.2h-0.281c0.133 0.187 0.242 0.375 0.32 0.562 2.266 0.293 4.321 0.785 6.16 1.48 3.2 1.172 4.801 2.614 4.801 4.317 0 0.32-0.055 0.629-0.16 0.922h0.199l0.242 0.199c0.051-0.105 0.211-0.32 0.481-0.641l0.238-0.48zm-7.558-5.277-1.043-0.2c-0.184-0.054-0.36-0.093-0.52-0.121-0.266-0.105-0.414-0.215-0.437-0.32 0-0.106 0.16-0.215 0.476-0.32 0.348-0.028 0.684 0.043 1 0.203 0.375 0.183 0.547 0.437 0.524 0.758zm5.558 2.039-0.922-0.121c-0.343-0.106-0.531-0.172-0.558-0.2-0.051-0.078-0.051-0.187 0-0.32 0.027-0.133 0.082-0.227 0.16-0.277 0.293-0.215 0.601-0.203 0.922 0.039 0.316 0.265 0.453 0.558 0.398 0.879zm-7.68 9.8c-0.558 0.293-1.105 0.399-1.64 0.321l0.199-0.321c0.188-0.16 0.453-0.214 0.801-0.16 0.215 0 0.426 0.055 0.64 0.16zm-15.839-13.562c0.32 0.027 0.531 0 0.64-0.078 0.321-0.215 0.641-0.36 0.957-0.442l0.563-0.16c-0.668 0.11-1.149 0.281-1.442 0.52-0.132 0.109-0.371 0.16-0.718 0.16zm8.121-0.879 1.199-0.199h0.277l0.602-0.078h-0.32c-0.774 0.078-1.399 0.172-1.879 0.277-0.098 0.023-0.192 0.039-0.282 0.043h0.2l0.203-0.043zm-17.403 7.562c-0.078-0.32 0-0.523 0.243-0.601 0.265-0.106 0.453-0.016 0.558 0.281 0 0.078 0.028 0.293 0.078 0.641l-0.519 0.199c-0.211-0.055-0.332-0.227-0.36-0.52zm20.86-7.722c0.047 0.015 0.093 0.027 0.14 0.039h0.082c-0.078-0.012-0.148-0.024-0.222-0.039zm4.101 0.84c-0.535-0.024-0.933-0.051-1.199-0.078l0.481 0.078h0.718z" inkscape:connector-curvature="0"/>
      <path id="path16" style="fill-rule:evenodd;fill:#fff5c9" d="m31.121 15.721c0.504-0.082 0.906-0.269 1.199-0.562-1.281 0.105-1.922 0.215-1.922 0.32 0 0.11 0.043 0.199 0.122 0.281l0.039 0.039c0.187 0 0.375-0.027 0.562-0.078zm2.918-1.679 0.441-0.161c0.375-0.054 0.719-0.175 1.04-0.363l0.082-0.078c0.105-0.027 0.187-0.066 0.238-0.121l0.019-0.02 0.063-0.058c-0.215-0.133-0.43-0.215-0.641-0.242l-0.558 0.082c-0.403 0-0.684 0.05-0.844 0.16l-0.117 0.078c-0.055 0.055-0.082 0.109-0.082 0.16-0.106 0.215 0.011 0.402 0.359 0.563zm-31.48-0.641-0.598-1.121c-0.055-0.106-0.16-0.172-0.32-0.199-0.188-0.055-0.336-0.039-0.442 0.039 0.242 0.535 0.696 0.972 1.36 1.32v-0.039zm8.32 3.598l1.121-0.118c-0.105-0.187-0.227-0.308-0.359-0.363-0.348-0.211-0.852-0.238-1.52-0.078-0.187 0.027-0.32 0.094-0.402 0.199 0.027 0.016 0.051 0.028 0.082 0.039 0.101 0.078 0.222 0.145 0.359 0.203l0.399 0.079h0.043c0.105 0.027 0.199 0.039 0.277 0.039zm6 0.441c-0.078-0.398-0.277-0.601-0.598-0.601-0.64-0.051-1.109-0.04-1.402 0.042-0.051 0.106-0.078 0.278-0.078 0.52 0.105 0.023 0.211 0.051 0.32 0.078 0.024 0.027 0.078 0.039 0.16 0.039 0.051 0.028 0.106 0.043 0.16 0.043h0.957c0.161-0.027 0.321-0.066 0.481-0.121zm4.641 0.039c-0.532 0-0.918 0.027-1.161 0.082l-0.558 0.039c0.051 0 0.094 0.012 0.121 0.039h0.039c0.027 0.028 0.051 0.039 0.078 0.039 0.082 0.028 0.176 0.043 0.281 0.043 0.16 0 0.348-0.015 0.559-0.043l0.281-0.078c0.055-0.027 0.121-0.039 0.199-0.039l0.161-0.082zm-1.122-13.359c1.336 0.027 2.602 0.121 3.801 0.281-0.078-0.187-0.187-0.375-0.32-0.559-0.184-0.16-0.332-0.281-0.438-0.363l-0.48-0.078c-0.426-0.055-0.828-0.082-1.199-0.082h-0.723c-0.398 0.027-0.664 0.082-0.801 0.16 0 0.242 0.055 0.453 0.16 0.641zm15.762 6.078c0.238 0 0.426-0.012 0.559-0.039l0.48-0.52c-0.078-0.238-0.133-0.398-0.16-0.48-0.051-0.133-0.211-0.184-0.48-0.16-0.266 0.027-0.465 0.054-0.598 0.082-0.293 0.05-0.453 0.172-0.481 0.359-0.054 0.481 0.172 0.734 0.68 0.758zm-2-3.238c0.051-0.321-0.082-0.614-0.398-0.879-0.321-0.242-0.629-0.254-0.922-0.043-0.078 0.054-0.133 0.148-0.16 0.281-0.051 0.133-0.051 0.242 0 0.32 0.027 0.028 0.215 0.094 0.558 0.2l0.922 0.121zm-5.558-2.039c0.023-0.321-0.149-0.575-0.524-0.762-0.316-0.16-0.652-0.227-1-0.199-0.316 0.105-0.476 0.214-0.476 0.32 0.023 0.105 0.171 0.215 0.437 0.32 0.16 0.028 0.336 0.067 0.52 0.117l1.043 0.204zm-2.122 11.839c-0.214-0.105-0.425-0.16-0.64-0.16-0.348-0.054-0.613 0-0.801 0.16l-0.199 0.321c0.535 0.078 1.082-0.028 1.64-0.321zm-23.039-8.761c0.211-0.211 0.493-0.438 0.84-0.68-0.136-0.105-0.281-0.145-0.441-0.121-0.348 0.055-0.547 0.187-0.602 0.402-0.05 0.133-0.011 0.254 0.121 0.36 0.028 0.027 0.055 0.039 0.082 0.039zm4.481-2.399c0.773-0.242 1.586-0.469 2.437-0.679-0.027 0-0.039-0.016-0.039-0.043-0.054-0.079-0.215-0.145-0.48-0.2-0.828-0.05-1.414 0.028-1.762 0.243-0.316 0.21-0.426 0.398-0.316 0.558 0.05 0.055 0.105 0.094 0.16 0.121zm-6.563 4.281c0.028 0.293 0.149 0.465 0.36 0.52l0.519-0.203c-0.05-0.344-0.078-0.559-0.078-0.637-0.105-0.297-0.293-0.387-0.558-0.281-0.243 0.078-0.321 0.281-0.243 0.601zm11.36-5.402c1.066-0.133 2.176-0.254 3.32-0.359-0.133-0.078-0.238-0.133-0.32-0.16-0.266-0.184-0.52-0.293-0.758-0.321-0.641-0.05-1.227 0.067-1.762 0.36-0.32 0.16-0.48 0.32-0.48 0.48z" inkscape:connector-curvature="0"/>
      <path id="path18" style="fill-rule:evenodd;fill:#d5c578" d="m32.078 14.241c-0.133 0-0.266 0.039-0.398 0.117-0.133 0.082-0.227 0.133-0.282 0.16-0.078 0.082-0.21 0.133-0.398 0.16h-0.961l-1.437 0.403 0.078 0.078c0.453-0.028 0.828-0.039 1.121-0.039 0.558 0 0.918-0.039 1.078-0.121 0.641-0.321 1-0.532 1.082-0.641l0.117-0.117zm3.524-2.641 0.117 0.039c0.32 0.11 0.652 0.336 1 0.68 0.054-0.133 0.082-0.293 0.082-0.48v-0.04c0-0.105 0.027-0.226 0.078-0.359l-0.641 0.039c-0.343 0-0.547-0.027-0.597-0.078 0.027-0.109 0.121-0.227 0.281-0.359 0.105-0.055 0.226-0.137 0.359-0.243l0.481-0.441c0.347-0.266 0.547-0.437 0.597-0.519 0.082-0.211 0.067-0.465-0.039-0.758-0.082-0.293-0.293-0.563-0.64-0.801-0.188 0.133-0.387 0.226-0.602 0.281-0.266 0.028-0.476-0.015-0.637-0.121-0.32-0.215-0.535-0.707-0.64-1.48 0-0.079-0.016-0.282-0.039-0.598v-0.043l0.039-0.359c0-0.079 0.011-0.145 0.039-0.2-0.238-0.16-0.465-0.265-0.68-0.32-0.082 0.027-0.148 0.055-0.199 0.082l-0.883 0.199h0.121c0.535 0.106 0.852 0.211 0.961 0.321 0.106 0.16 0.172 0.507 0.199 1.039 0.106 1.093 0.493 1.707 1.161 1.84l0.441 0.16c0.133-0.028 0.332-0.055 0.598-0.082 0.265-0.024 0.425 0.027 0.48 0.16 0.027 0.082 0.082 0.242 0.16 0.48l-0.48 0.52c-0.133 0.027-0.321 0.043-0.559 0.043l-0.242 0.48c-0.266 0.317-0.426 0.532-0.48 0.637 0.132 0.082 0.226 0.148 0.281 0.203l-0.117 0.078zm-34.161-4.199v0.16c0.051 0.317 0.305 0.547 0.758 0.68 0.188-0.695 0.442-1.149 0.762-1.36 0.16-0.132 0.613-0.281 1.359-0.441 0.774-0.16 1.293-0.332 1.559-0.519 0.266-0.161 0.695-0.559 1.281-1.2 0.613-0.562 1.188-0.855 1.719-0.882 0.828-0.024 1.535 0.066 2.121 0.281-0.215-0.215-0.348-0.332-0.398-0.36-0.321-0.214-0.641-0.359-0.961-0.441-0.188-0.078-0.36-0.133-0.52-0.16h-0.121c-0.348 0.027-0.668 0.109-0.961 0.242l-0.918 0.48c-0.133 0.079-0.266 0.161-0.402 0.239-0.266 0.215-0.492 0.375-0.68 0.48-0.133 0.11-0.25 0.176-0.359 0.199l-0.121 0.563c-0.161 0.348-0.614 0.531-1.36 0.559-0.719 0-1.254 0.039-1.597 0.121l-0.602 0.199c-0.027 0.023-0.055 0.051-0.078 0.078v0.039c-0.027 0-0.055 0.016-0.082 0.043v0.078c-0.051 0.055-0.078 0.121-0.078 0.199-0.055 0.321-0.16 0.563-0.321 0.723zm-1.203 2.48c0.215-0.453 0.457-0.773 0.723-0.96 0.371-0.215 0.773-0.36 1.199-0.442v-0.117c-0.48 0.051-0.801 0.117-0.961 0.199-0.32 0.106-0.547 0.199-0.679 0.281-0.266 0.106-0.442 0.239-0.52 0.399 0 0.105 0.027 0.215 0.078 0.32 0 0.051 0.016 0.094 0.043 0.117l0.039 0.043c0.028 0.051 0.051 0.094 0.078 0.118v0.042zm13.84 7.278 0.043-0.238c-0.402-0.028-0.762-0.215-1.082-0.563-0.078-0.078-0.16-0.227-0.238-0.437-0.856-0.106-1.68-0.254-2.481-0.442-0.453 0.082-0.812 0.082-1.082 0-0.238-0.051-0.476-0.16-0.718-0.32-0.188-0.106-0.305-0.211-0.36-0.317-0.32-0.109-0.629-0.214-0.922-0.32-0.316-0.109-0.625-0.226-0.918-0.359-0.054 0.023-0.105 0.039-0.16 0.039-0.32 0.133-0.558 0.215-0.719 0.238h-0.16l0.199 0.203v0.078c0.051 0.188 0.442 0.227 1.161 0.121 0.214 0 0.547 0.09 1 0.278 0.187 0.082 0.425 0.23 0.718 0.441 0.293 0.133 0.547 0.199 0.762 0.199h1.399c0.558 0.028 1.015 0.094 1.359 0.204 0.133 0.05 0.254 0.16 0.359 0.32 0.137 0.16 0.254 0.265 0.364 0.316 0.179 0.078 0.425 0.16 0.738 0.242h0.019c0.028 0.028 0.067 0.055 0.121 0.079h0.04c0.191 0.089 0.378 0.168 0.558 0.238zm4.32 0c-0.05-0.266-0.238-0.504-0.558-0.719-0.106-0.027-0.188-0.082-0.238-0.16-0.723 0-1.43-0.027-2.122-0.082-0.214 0.215-0.441 0.387-0.679 0.523h0.078c0.242 0 0.613-0.027 1.121-0.082 0.668 0 1.078 0.028 1.238 0.082 0.137 0.024 0.442 0.172 0.922 0.438h0.238zm7.883-1.078-0.281-0.121l-0.641 0.238h0.282c0.16 0 0.371-0.039 0.64-0.117zm-5.84 0.84h2.239c-0.614-0.106-1.106-0.321-1.481-0.641h-0.238c-0.023 0.219-0.125 0.383-0.301 0.5l-0.039 0.019h-0.019l-0.082 0.04-0.079 0.082zm13.239-3.442c0-0.051 0.027-0.105 0.082-0.16l0.117-0.078 0.043-0.082c-0.188 0.055-0.402 0.082-0.641 0.082h-0.281c-0.086 0.066-0.168 0.109-0.238 0.14l-0.684 0.379c0.082 0.028 0.203 0.039 0.363 0.039 0.106-0.05 0.305-0.093 0.598-0.121 0.27-0.05 0.453-0.105 0.563-0.16l0.078-0.039zm1.039-1.519-0.117 0.082c-0.082 0.078-0.137 0.199-0.161 0.359l0.239-0.32 0.039-0.121zm-13.879-9.918-0.602 0.078h-0.277l-1.199 0.199-0.043 0.16c-0.051 0.11-0.293 0.242-0.719 0.402-0.16 0.079-0.359 0.266-0.602 0.559-0.984-0.586-1.773-0.879-2.359-0.879-0.453 0.051-0.801 0.078-1.039 0.078-0.32 0-0.586 0.016-0.801 0.039-0.293 0.055-0.519 0.149-0.679 0.282-0.293 0.082-0.493 0.148-0.598 0.199-0.215 0.082-0.375 0.203-0.481 0.359l-0.32 0.641 0.039 0.039 0.36-0.238c0.347-0.188 0.746-0.348 1.199-0.481 1.066-0.375 1.922-0.48 2.562-0.32 0.266 0.055 0.531 0.16 0.797 0.32 0.215 0.133 0.469 0.215 0.762 0.238 0.32 0.028 0.629-0.039 0.922-0.199l0.879-0.437c1.359-0.563 2.437-0.668 3.238-0.321 0.402 0.161 0.762 0.371 1.082 0.641l0.48 0.078c0.106 0.082 0.254 0.199 0.438 0.36h0.281c-0.16-0.692-0.469-1.145-0.922-1.36-0.211-0.105-0.449-0.199-0.718-0.281h-0.161c-0.047-0.012-0.093-0.024-0.14-0.039-0.379-0.078-0.836-0.117-1.379-0.117zm5.199 0.957h-0.32l-0.957 0.64c0.476-0.105 1.105-0.105 1.879 0 0.8 0.188 1.425 0.414 1.879 0.68l0.839 0.641c0.508 0.398 0.961 0.64 1.36 0.718 0.16 0.028 0.586 0.016 1.281-0.039l-0.762-0.242-1.558-1.117-0.321-0.16c-0.16-0.215-0.293-0.375-0.398-0.481-0.188-0.133-0.375-0.242-0.559-0.32-0.511-0.195-1.297-0.301-2.363-0.32zm-3.16 13.84c0.16-0.051 0.359-0.161 0.601-0.321l0.719-0.199 0.52-0.398c-0.531 0.078-1.078 0.144-1.641 0.199l-0.199 0.199v0.52zm-19.039-4.118c-0.371-0.293-0.668-0.601-0.879-0.922-0.242-0.132-0.535-0.238-0.883-0.32v-0.199c0.215-0.078 0.387-0.149 0.524-0.199-0.028-0.082-0.055-0.16-0.082-0.239-0.454 0.079-0.946 0.079-1.481 0v0.118l1.039 0.839c0.082 0.028 0.27 0.254 0.563 0.68 0.32 0.426 0.558 0.707 0.718 0.84 0.481 0.293 0.829 0.496 1.039 0.602-0.183-0.481-0.371-0.879-0.558-1.2z" inkscape:connector-curvature="0"/>
      <path id="path20" style="fill-rule:evenodd;fill:#a49753" d="m28.602 15.081-1.082 0.32c-0.879 0.211-1.801 0.387-2.758 0.52l-1.16 0.96 0.16-0.121 1.597-0.562 0.641-0.238 0.281 0.121c0.348 0.078 0.598 0.078 0.758 0 0.133-0.055 0.281-0.121 0.441-0.2 0.215-0.054 0.493-0.054 0.84 0l0.403 0.079c0.078-0.293 0.066-0.559-0.043-0.801l-0.078-0.078zm5.839-2.68c0.024-0.16 0.079-0.281 0.161-0.359l0.117-0.082c0.16-0.106 0.453-0.227 0.883-0.36l0.117-0.082c-0.051-0.051-0.145-0.117-0.281-0.199l-0.239-0.199h-0.199c-0.293 0.773-0.961 1.48-2 2.121h0.281c0.239 0 0.453-0.027 0.641-0.082 0.156-0.051 0.293-0.184 0.398-0.399l0.121-0.359zm-1.043 1.84c0.082-0.242-0.238-0.387-0.957-0.442-0.16 0-0.281-0.011-0.363-0.039l-0.797 0.438c-0.402 0.16-0.816 0.32-1.242 0.48h0.961c0.188-0.023 0.32-0.078 0.398-0.16 0.055-0.023 0.149-0.078 0.282-0.156 0.132-0.082 0.265-0.121 0.398-0.121 0.215-0.027 0.387-0.043 0.524-0.043 0.16 0 0.41 0.027 0.757 0.082 0-0.027 0.016-0.039 0.039-0.039zm2-7.84c-0.16-0.27-0.343-0.48-0.558-0.641-0.028 0.051-0.039 0.118-0.039 0.2l-0.039 0.359v0.039c0.023 0.32 0.039 0.52 0.039 0.602 0.105 0.773 0.32 1.265 0.64 1.48 0.161 0.106 0.371 0.149 0.637 0.121 0.215-0.055 0.414-0.148 0.602-0.281 0.347 0.238 0.558 0.508 0.64 0.801 0.106 0.293 0.121 0.547 0.039 0.758-0.05 0.082-0.25 0.253-0.597 0.519l-0.481 0.441c-0.133 0.106-0.254 0.188-0.359 0.243-0.16 0.132-0.254 0.25-0.281 0.359 0.05 0.051 0.254 0.078 0.597 0.078l0.641-0.039c0.07-0.152 0.183-0.332 0.344-0.539 0.039-0.074 0.086-0.148 0.136-0.223l0.161-0.16c0.214-0.371 0.253-0.797 0.121-1.277-0.082-0.266-0.243-0.492-0.481-0.68l-0.039-0.043c-0.133-0.105-0.281-0.183-0.441-0.238-0.043-0.012-0.082-0.024-0.121-0.039l-0.2-0.082h0.039c-0.16-0.078-0.277-0.199-0.359-0.36-0.184-0.16-0.305-0.359-0.359-0.601-0.078-0.293-0.172-0.559-0.282-0.797zm-32.117-0.883-0.16 0.043c-0.109 0.051-0.215 0.106-0.32 0.156h-0.082c-0.321 0.188-0.559 0.364-0.719 0.524l0.602-0.199c0.343-0.082 0.878-0.121 1.597-0.121 0.746-0.028 1.199-0.215 1.36-0.559l0.121-0.563c-0.078 0.055-0.149 0.094-0.2 0.122-0.32 0.132-0.679 0.238-1.082 0.32h-0.238c-0.265 0.078-0.558 0.172-0.879 0.277zm-1.121 2.84h0.52l-0.481-0.117c-0.453-0.133-0.707-0.36-0.758-0.68v-0.16c-0.242 0.184-0.453 0.371-0.64 0.559-0.375 0.32-0.613 0.629-0.723 0.921l-0.039 0.161c-0.027 0.05-0.039 0.117-0.039 0.199 0.078-0.16 0.254-0.293 0.52-0.402 0.132-0.079 0.359-0.172 0.679-0.278 0.16-0.082 0.481-0.148 0.961-0.203zm22.602-4.719 0.957-0.64h-0.117l-0.481-0.078c-0.109 0-0.187-0.016-0.242-0.043-0.559-0.184-1.051-0.348-1.481-0.481l-0.121-0.039h-0.156c-0.215-0.078-0.414-0.133-0.601-0.16 0.265 0.082 0.507 0.176 0.718 0.281 0.453 0.215 0.762 0.668 0.922 1.36 0.133 0.027 0.332-0.04 0.602-0.2zm1.558-0.64h-0.281c1.066 0.019 1.852 0.125 2.359 0.32 0.188 0.082 0.375 0.187 0.563 0.32 0.105 0.106 0.238 0.266 0.398 0.481l0.321 0.16 1.558 1.117 0.762 0.242 0.559 0.078c0.16 0.028 0.332 0.028 0.519 0l0.879-0.199c0.055-0.027 0.121-0.051 0.203-0.078-0.187-0.055-0.469-0.121-0.84-0.199h-0.359c-0.586-0.11-1.309-0.43-2.16-0.961-0.906-0.563-1.668-0.906-2.281-1.039l-0.918-0.16c-0.27-0.055-0.536-0.082-0.801-0.082h-0.481zm-10.84 13.199c-0.906-0.051-1.8-0.145-2.679-0.277 0.078 0.21 0.16 0.359 0.238 0.437 0.32 0.348 0.68 0.535 1.082 0.563 0.238 0 0.465-0.067 0.68-0.2 0.238-0.136 0.465-0.308 0.679-0.523zm-9.16-2.039c-1.039-0.453-1.867-0.934-2.48-1.442 0.187 0.321 0.375 0.723 0.558 1.204l0.043 0.078c0.079 0.132 0.2 0.242 0.36 0.32l0.039 0.043c0.082 0.051 0.226 0.078 0.441 0.078h0.16c0.161-0.027 0.399-0.105 0.719-0.238 0.055-0.004 0.106-0.016 0.16-0.043zm4 1.32c-0.746-0.187-1.465-0.398-2.16-0.64 0.051 0.109 0.172 0.214 0.36 0.32 0.242 0.16 0.48 0.265 0.718 0.32 0.27 0.082 0.629 0.082 1.082 0zm12.758 0.641c-0.613 0.078-1.238 0.133-1.879 0.16 0.375 0.32 0.867 0.535 1.481 0.641h0.199v-0.602l0.199-0.199zm-20.117-4.321c-0.16-0.214-0.281-0.453-0.359-0.718-0.137 0.05-0.309 0.117-0.524 0.199v0.199c0.348 0.082 0.641 0.188 0.883 0.32zm8.039-7.679l0.121 0.082v-0.043l0.32-0.641c0.106-0.156 0.266-0.277 0.481-0.359 0.105-0.051 0.305-0.117 0.598-0.199 0.16-0.133 0.386-0.227 0.679-0.282 0.215-0.023 0.481-0.039 0.801-0.039 0.238 0 0.586-0.027 1.039-0.078 0.586 0 1.375 0.293 2.359 0.879 0.243-0.293 0.442-0.48 0.602-0.559 0.426-0.16 0.668-0.292 0.719-0.402l0.043-0.16-0.203 0.039h-0.239l-0.32 0.082c-0.105 0.027-0.188 0.039-0.238 0.039h-0.282c-0.855-0.051-1.535-0.094-2.039-0.117-0.906 0-1.789 0.051-2.64 0.156l-0.563 0.16c-0.316 0.082-0.636 0.227-0.957 0.442-0.109 0.082-0.32 0.105-0.64 0.082l-0.442-0.043c-0.426-0.051-0.824-0.051-1.199 0h0.121c0.16 0.027 0.332 0.082 0.52 0.16 0.32 0.082 0.64 0.227 0.961 0.441 0.05 0.028 0.183 0.145 0.398 0.36z" inkscape:connector-curvature="0"/>
      <path id="path22" style="fill-rule:evenodd;fill:#786027" d="m24.719 15.921h0.043c0.957-0.133 1.879-0.309 2.758-0.52l1.082-0.32 1.437-0.403c0.426-0.16 0.84-0.316 1.242-0.48l0.797-0.438 0.684-0.382c0.066-0.028 0.133-0.075 0.199-0.137 0.16-0.11 0.32-0.215 0.48-0.32-3.226 1.625-7.105 2.57-11.64 2.839l-0.121 0.121h-0.16c-0.051 0.028-0.094 0.04-0.118 0.04-0.293 0.078-0.441 0.171-0.441 0.277v0.082h0.238c0.641-0.027 1.27-0.082 1.883-0.16 0.559-0.055 1.106-0.121 1.637-0.199zm-22.117-4.84c0.078 0.265 0.199 0.508 0.359 0.718 0.211 0.321 0.504 0.625 0.879 0.918 0.613 0.508 1.441 0.989 2.48 1.442 0.293 0.133 0.602 0.254 0.918 0.359 0.297 0.11 0.602 0.215 0.922 0.321 0.695 0.242 1.414 0.453 2.16 0.64 0.801 0.188 1.625 0.332 2.481 0.442 0.879 0.132 1.773 0.226 2.679 0.277 0.692 0.055 1.399 0.082 2.122 0.082-0.27-0.16-0.469-0.32-0.602-0.481-0.375-0.027-0.734-0.054-1.078-0.082-1.176-0.078-2.297-0.211-3.363-0.398-0.399-0.055-0.774-0.121-1.118-0.199-0.855-0.188-1.679-0.387-2.48-0.602-0.055 0-0.106-0.012-0.16-0.039-0.641-0.187-1.242-0.402-1.801-0.64-1.867-0.774-3.199-1.774-4-3-0.027-0.028-0.039-0.055-0.039-0.083-0.215-0.292-0.375-0.613-0.481-0.957l-0.039 0.399c0 0.215 0.028 0.426 0.079 0.641 0.027 0.082 0.054 0.16 0.082 0.242zm21.597 1.859c-0.015 0.035-0.027 0.066-0.039 0.102 0.481-0.293 0.774-0.551 0.879-0.762 0.16-0.293 0.082-0.668-0.238-1.121-0.348-0.481-0.629-0.774-0.84-0.879-0.293-0.16-0.949-0.32-1.961-0.481-0.906-0.132-1.668-0.121-2.281 0.04-0.934 0.292-1.824 0.574-2.68 0.839-1.094 0.297-1.879 0.723-2.359 1.282 0.078-0.051 0.172-0.106 0.281-0.161 0.105-0.105 0.266-0.199 0.477-0.281 0.027-0.023 0.082-0.039 0.16-0.039 0.109-0.051 0.214-0.105 0.32-0.16 0.723-0.266 1.336-0.48 1.84-0.641 0.16 0 0.297-0.023 0.402-0.078 0.051 0 0.106-0.015 0.16-0.039 0.211-0.027 0.438-0.055 0.68-0.082h0.438c0.562 0.027 1.187 0.094 1.882 0.199 1.118 0.188 1.934 0.536 2.442 1.039 0.078 0.082 0.144 0.176 0.199 0.282l0.238 0.761v0.18z" inkscape:connector-curvature="0"/>
      <g id="g24">
        <g id="g26">
          <g id="g32">
            <path id="path40" style="fill-rule:evenodd;fill:url(#radialGradient34)" d="m10.359 4.921c-0.851 0.21-1.664 0.441-2.437 0.679-0.242 0.082-0.469 0.176-0.684 0.281-1.226 0.426-2.211 0.907-2.957 1.438-0.347 0.242-0.629 0.469-0.84 0.684-0.668 0.691-1 1.425-1 2.199l0.039-0.403c0.106 0.348 0.266 0.668 0.481 0.961 0 0.028 0.012 0.055 0.039 0.082 0.801 1.227 2.133 2.227 4 3 0.559 0.239 1.16 0.454 1.801 0.641 0.054 0.023 0.105 0.039 0.16 0.039 0.801 0.211 1.625 0.414 2.48 0.598 0.348 0.082 0.719 0.148 1.118 0.203 1.066 0.183 2.187 0.32 3.363 0.398 0.344 0.028 0.703 0.055 1.078 0.082-0.078-0.109-0.133-0.214-0.16-0.32l-0.078-0.039c-0.055-0.082-0.176-0.16-0.364-0.242-0.132-0.051-0.238-0.133-0.32-0.238-0.105-0.055-0.172-0.122-0.199-0.204-0.024-0.027-0.051-0.05-0.078-0.078-0.106-0.16-0.242-0.32-0.403-0.48-0.078-0.055-0.132-0.11-0.16-0.16-0.183-0.188-0.304-0.332-0.359-0.442-0.106-0.133-0.184-0.25-0.238-0.359h-0.039c-0.137-0.133-0.215-0.281-0.243-0.442-0.027-0.023-0.039-0.05-0.039-0.078v-0.082c0-0.16 0.055-0.308 0.16-0.441 0.051-0.078 0.122-0.156 0.2-0.238 0.48-0.559 1.265-0.985 2.359-1.282 0.856-0.265 1.75-0.547 2.684-0.839 0.613-0.161 1.371-0.172 2.277-0.04 1.016 0.161 1.668 0.321 1.961 0.481 0.215 0.105 0.492 0.398 0.84 0.879 0.32 0.453 0.398 0.828 0.238 1.121-0.105 0.211-0.398 0.465-0.879 0.758l-0.039 0.043c-0.027 0.07-0.055 0.136-0.082 0.199-0.078 0.133-0.133 0.226-0.16 0.281-0.051 0.106-0.09 0.172-0.117 0.199-0.055 0.051-0.2 0.118-0.442 0.2-0.054 0.027-0.199 0.066-0.441 0.121-0.078 0.023-0.133 0.05-0.156 0.078l-0.043 0.039-0.039 0.043c-0.215 0.183-0.348 0.437-0.403 0.758 0 0.109-0.039 0.226-0.117 0.359-0.055 0.082-0.121 0.176-0.199 0.281l-0.121 0.121c4.535-0.269 8.414-1.214 11.64-2.839-0.16 0.105-0.32 0.21-0.48 0.32-0.066 0.062-0.133 0.109-0.199 0.137 0.07-0.028 0.152-0.075 0.238-0.137 1.039-0.641 1.707-1.348 2-2.121 0.109-0.293 0.16-0.602 0.16-0.922 0-1.707-1.598-3.145-4.801-4.317-1.839-0.695-3.89-1.187-6.16-1.48-1.199-0.16-2.465-0.254-3.797-0.281-0.535-0.028-1.066-0.039-1.601-0.039-0.961 0-1.879 0.011-2.762 0.039-1.144 0.105-2.25 0.226-3.316 0.359-0.828 0.133-1.618 0.281-2.364 0.442z" inkscape:connector-curvature="0"/>
          </g>
        </g>
      </g>
      <g id="g42">
        <g id="g44">
          <g id="g50">
            <path id="path58" style="fill-rule:evenodd;fill:url(#linearGradient52)" d="m25.121 2.921c0.266 0.027 0.664 0.054 1.199 0.078h0.481c0.265 0 0.531 0.027 0.801 0.082l0.918 0.16c0.613 0.133 1.375 0.48 2.281 1.039 0.851 0.535 1.574 0.851 2.16 0.961h0.359c0.371 0.078 0.653 0.148 0.84 0.199 0.215 0.055 0.442 0.16 0.68 0.32 0.215 0.161 0.398 0.371 0.558 0.641-0.078-1.734-1.636-3.227-4.679-4.48-3.117-1.282-6.879-1.922-11.278-1.922-4.375 0-8.121 0.64-11.242 1.922-2.398 0.984-3.867 2.117-4.398 3.398 0.105-0.027 0.226-0.055 0.359-0.078h0.238c0.403-0.082 0.762-0.188 1.082-0.32 0.051-0.028 0.122-0.067 0.2-0.122 0.105-0.027 0.226-0.093 0.359-0.199 0.188-0.109 0.414-0.269 0.68-0.48 0.136-0.082 0.269-0.16 0.402-0.242l0.918-0.481c0.293-0.133 0.613-0.211 0.961-0.238 0.375-0.055 0.773-0.055 1.199 0l0.442 0.039c0.347 0 0.586-0.051 0.718-0.16 0.293-0.239 0.774-0.414 1.442-0.52 0.851-0.105 1.734-0.16 2.64-0.16 0.504 0.027 1.184 0.066 2.039 0.121h0.282c0.05 0 0.133-0.015 0.238-0.039l0.32-0.082h0.039c0.09-0.004 0.184-0.016 0.282-0.039 0.48-0.105 1.105-0.199 1.879-0.281h0.32c0.543 0 1 0.039 1.383 0.121 0.07 0.015 0.144 0.027 0.218 0.039h0.079c0.187 0.027 0.386 0.082 0.601 0.16h0.16l0.117 0.039c0.43 0.133 0.922 0.293 1.481 0.481 0.055 0.027 0.133 0.043 0.242 0.043z" inkscape:connector-curvature="0"/>
          </g>
        </g>
      </g>
      <path id="path60" style="fill-rule:evenodd;fill:#fffcf0" d="m16.84 15.479c0.027 0.11 0.082 0.215 0.16 0.32 0.133 0.161 0.332 0.321 0.602 0.481 0.05 0.078 0.132 0.133 0.238 0.16 0.32 0.215 0.508 0.453 0.558 0.719v0.121c0.188 0.426 0.497 0.601 0.922 0.519 0.16-0.054 0.305-0.105 0.442-0.16-0.59-0.187-0.723-0.453-0.403-0.8l0.2-0.239c0.027-0.105-0.012-0.215-0.118-0.32-0.187-0.16-0.562-0.266-1.121-0.32-0.054-0.133 0.145-0.239 0.602-0.321 0.023 0 0.144-0.05 0.355-0.16 0.297 0 0.496 0.016 0.602 0.039l0.641-0.039-0.122-0.078-0.398-0.16c-0.266-0.055-0.414-0.11-0.441-0.16-0.024-0.055-0.012-0.16 0.043-0.321 0.05-0.187 0.05-0.347 0-0.48-0.11-0.215-0.348-0.332-0.723-0.359-0.426 0-0.719-0.016-0.879-0.04-0.078-0.292 0.254-0.48 1-0.562 0.508-0.051 0.973-0.066 1.398-0.039l-0.957 0.078 1.879-0.039 0.039 0.039 0.161-0.117c0.082-0.133 0-0.32-0.243-0.563-0.183-0.183-0.664-0.316-1.437-0.398-0.293 0.051-0.508 0.066-0.641 0.039-0.078-0.027-0.133-0.039-0.16-0.039s-0.027-0.039 0-0.121c0.16-0.426 0.172-0.707 0.039-0.84-0.078-0.027-0.226-0.039-0.437-0.039-0.215 0.027-0.364 0.039-0.442 0.039-0.375 0-0.652 0.016-0.84 0.043-0.32 0.078-0.746 0.305-1.281 0.68-0.133 0.132-0.266 0.16-0.398 0.078l-0.082-0.039c0.027 0.347 0 0.586-0.078 0.718-0.106 0.161-0.227 0.227-0.36 0.2-0.133-0.024-0.242-0.106-0.32-0.239l-0.199 0.481c0.05 0.105 0.132 0.226 0.238 0.359 0.055 0.106 0.176 0.254 0.359 0.442 0.028 0.05 0.082 0.105 0.16 0.16 0.161 0.16 0.293 0.316 0.403 0.48l-0.039-0.121 0.16-0.562c0.105-0.184 0.266-0.305 0.476-0.36 0.27-0.027 0.414 0.028 0.442 0.16 0.48 0.055 0.785 0.215 0.922 0.481l-0.321-0.082c-0.054-0.133-0.308-0.184-0.761-0.156-0.426 0.105-0.68 0.265-0.758 0.476v0.281l-0.043-0.039c0.027 0.079 0.094 0.145 0.199 0.2 0.082 0.105 0.188 0.187 0.32 0.238 0.188 0.082 0.309 0.16 0.364 0.242l0.039-0.039c0.054-0.109 0.238-0.215 0.558-0.32-0.027 0.027-0.078 0.066-0.16 0.117-0.16 0.082-0.277 0.176-0.359 0.281zm-2.52-2.801v0.043c0 0.024 0.012 0.051 0.039 0.078-0.019-0.023-0.035-0.062-0.039-0.121zm4.559 3-0.199 0.121c0.265 0.028 0.679 0.028 1.242 0l0.156 0.082c-0.105-0.16-0.289-0.214-0.558-0.16-0.293 0.051-0.508 0.078-0.641 0.078v-0.121zm1.781 1.102c0.176-0.117 0.278-0.281 0.301-0.5v-0.039l-0.039 0.16c-0.047 0.164-0.137 0.289-0.262 0.379zm0.301-3.059c-0.055-0.031-0.098-0.054-0.121-0.082h-0.078c0.074 0.024 0.14 0.051 0.199 0.082zm0.84 2.039 0.121-0.121c0.078-0.105 0.144-0.199 0.199-0.281l-0.441 0.523 0.121-0.121zm-3.481-5.199h0.16c0.161-0.027 0.332-0.055 0.52-0.082-0.238 0.027-0.465 0.055-0.68 0.082zm5.801 2.52 0.039-0.039c0.012-0.036 0.024-0.067 0.039-0.102-0.023 0.051-0.051 0.098-0.078 0.141z" inkscape:connector-curvature="0"/>
      <path id="path62" style="fill-rule:evenodd;fill:#f0e6c1" d="m19.801 17.6 0.078-0.039c-0.238-0.082-0.305-0.203-0.199-0.363 0-0.024 0.027-0.067 0.082-0.117 0.05 0 0.078-0.039 0.078-0.121 0-0.161-0.078-0.266-0.238-0.321 0.132-0.027 0.277 0 0.437 0.082l0.043 0.039c0.106 0.028 0.211 0.079 0.32 0.161h0.039l0.082-0.082 0.079-0.04h0.019l0.039-0.019c0.129-0.09 0.215-0.215 0.262-0.379l-0.043-0.121c-0.106-0.16-0.344-0.281-0.719-0.359l-0.082-0.04-0.156-0.082c-0.563 0.028-0.977 0.028-1.242 0l0.199-0.121 0.043-0.039c-0.453 0.082-0.656 0.188-0.602 0.321 0.559 0.054 0.934 0.16 1.121 0.32 0.106 0.105 0.149 0.215 0.121 0.32l-0.203 0.239c-0.32 0.347-0.183 0.613 0.403 0.8l0.039-0.039zm-5.442-4.801c0.028 0.161 0.106 0.309 0.243 0.442h0.039l0.199-0.481c-0.133-0.269-0.238-0.441-0.32-0.519l-0.04-0.043c-0.105 0.133-0.16 0.281-0.16 0.441v0.039c0.004 0.059 0.02 0.098 0.039 0.121zm8.36 1.36v-0.039l-0.039-0.481c-0.028-0.16 0-0.242 0.082-0.242 0.023-0.023 0.105-0.078 0.238-0.156 0.398-0.215 0.387-0.641-0.039-1.281-0.109-0.188-0.242-0.321-0.402-0.403-0.321-0.16-0.664-0.265-1.039-0.316-0.215-0.082-0.387-0.137-0.52-0.16-0.238-0.055-0.414-0.028-0.52 0.078v0.16c-0.105 0.109-0.214 0.176-0.32 0.199-0.051 0.028-0.265 0.071-0.64 0.121 0.027-0.265-0.184-0.414-0.641-0.441-0.504 0.027-0.824 0.043-0.957 0.043-0.402 0-0.695 0.023-0.883 0.078l-1.039 0.199-0.238-0.039-0.16 0.32v0.282l0.078 0.039c0.132 0.082 0.265 0.054 0.398-0.078 0.535-0.375 0.961-0.602 1.281-0.684 0.188-0.027 0.469-0.039 0.84-0.039 0.082 0 0.227-0.012 0.442-0.039 0.214 0 0.359 0.012 0.437 0.039 0.137 0.133 0.121 0.414-0.039 0.84-0.027 0.082-0.027 0.121 0 0.121s0.082 0.012 0.16 0.039c0.133 0.027 0.348 0.016 0.641-0.039 0.773 0.082 1.254 0.215 1.441 0.398 0.239 0.243 0.321 0.43 0.239 0.563l-0.161 0.117c0.11 0.027 0.243 0.094 0.403 0.203 0.105 0.051 0.293 0.133 0.558 0.238l0.36 0.399 0.039-0.039zm-3.278-0.801 0.957-0.078c-0.425-0.027-0.89-0.016-1.398 0.039-0.746 0.082-1.078 0.266-1 0.559 0.16 0.027 0.453 0.043 0.879 0.043 0.375 0.027 0.613 0.144 0.723 0.359 0.05 0.133 0.05 0.293 0 0.48-0.055 0.161-0.067 0.266-0.043 0.321 0.027 0.05 0.175 0.105 0.441 0.16l0.398 0.156 0.122 0.082h0.16c0.132 0 0.265 0.051 0.398 0.16 0.082 0.051 0.188 0.149 0.32 0.282 0.028 0 0.067-0.016 0.122-0.043h0.16l0.441-0.52c-0.055-0.133-0.199-0.199-0.441-0.199-0.375 0-0.547-0.133-0.52-0.399 0-0.027 0.067-0.148 0.199-0.359 0.106-0.109 0.094-0.227-0.039-0.359l-0.16-0.161c-0.082-0.082-0.148-0.132-0.199-0.16-0.059-0.031-0.125-0.054-0.199-0.082-0.028-0.027-0.055-0.039-0.082-0.039h-0.121c-0.348 0.051-0.571 0.067-0.68 0.039l0.121-0.078h-1.52c0.106-0.082 0.426-0.148 0.961-0.203zm-2.761 0.684-0.602 0.078c-0.078-0.215 0.11-0.321 0.563-0.321h0.199c-0.028-0.132-0.172-0.183-0.442-0.16-0.21 0.055-0.371 0.176-0.476 0.36l-0.16 0.562 0.039 0.117c0.027 0.028 0.054 0.055 0.078 0.082l0.043 0.039v-0.281c0.078-0.211 0.332-0.371 0.758-0.476zm0.082 1.398 0.078 0.039c0.082-0.105 0.199-0.199 0.359-0.281 0.082-0.051 0.133-0.09 0.16-0.117-0.32 0.105-0.504 0.211-0.558 0.32l-0.039 0.039z" inkscape:connector-curvature="0"/>
      <path id="path64" style="fill-rule:evenodd;fill:#cdc194" d="m14.68 11.96c-0.078 0.082-0.149 0.16-0.2 0.238l0.04 0.043c0.082 0.078 0.187 0.25 0.32 0.519 0.082 0.133 0.187 0.215 0.32 0.239 0.133 0.027 0.254-0.039 0.36-0.2 0.082-0.132 0.105-0.375 0.082-0.718v-0.282l0.16-0.32 0.238 0.039 1.039-0.199c0.188-0.051 0.481-0.078 0.883-0.078 0.133 0 0.453-0.016 0.957-0.043 0.453 0.027 0.668 0.176 0.641 0.441 0.375-0.05 0.585-0.093 0.64-0.121 0.106-0.023 0.215-0.09 0.32-0.199v-0.16c0.106-0.106 0.282-0.133 0.52-0.078 0.133 0.027 0.309 0.078 0.52 0.16 0.375 0.051 0.718 0.16 1.039 0.32 0.16 0.078 0.293 0.211 0.402 0.399 0.426 0.64 0.437 1.066 0.039 1.281-0.133 0.078-0.215 0.133-0.238 0.16-0.082 0-0.11 0.078-0.082 0.238l0.039 0.481v0.039c0.027-0.028 0.082-0.051 0.16-0.078 0.242-0.055 0.387-0.094 0.441-0.121 0.239-0.082 0.387-0.149 0.442-0.2 0.023-0.027 0.066-0.093 0.117-0.199 0.027-0.055 0.082-0.148 0.16-0.281 0-0.242-0.039-0.387-0.117-0.441-0.11 0-0.215-0.012-0.32-0.04-0.11-0.054-0.161-0.187-0.161-0.402v-0.519c-0.054-0.106-0.148-0.184-0.281-0.239h-0.359c-0.188-0.054-0.348-0.16-0.481-0.32-0.265-0.266-0.519-0.426-0.761-0.48-0.664-0.051-1.145-0.094-1.438-0.122l-0.68-0.039c-0.293 0-0.668 0.055-1.121 0.161-0.132 0-0.359 0.054-0.679 0.16-0.293 0.109-0.52 0.16-0.68 0.16h-0.481l-0.359 0.16h-0.199c-0.11 0.055-0.215 0.105-0.32 0.16-0.082 0-0.137 0.012-0.161 0.039-0.027 0.082-0.043 0.215-0.043 0.403 0.028 0.16 0.016 0.277-0.039 0.359-0.214 0.266-0.347 0.105-0.398-0.481-0.106 0.055-0.199 0.106-0.281 0.161zm2 2.082c0.453-0.028 0.707 0.023 0.761 0.156l0.321 0.082c-0.137-0.266-0.442-0.426-0.922-0.481h-0.199c-0.453 0-0.641 0.106-0.563 0.321l0.602-0.078zm2.761-0.684c-0.535 0.055-0.855 0.121-0.961 0.203h1.52c0.32-0.16 0.68-0.187 1.078-0.082 0.43 0.082 0.734 0.266 0.922 0.559l-0.16 0.16c-0.106-0.133-0.375-0.293-0.801-0.481l-0.199-0.078c0.023 0.024 0.066 0.051 0.121 0.078 0.051 0.028 0.117 0.082 0.199 0.161l0.16 0.16c0.133 0.133 0.145 0.254 0.039 0.359-0.132 0.215-0.199 0.332-0.199 0.359-0.027 0.27 0.149 0.403 0.52 0.403 0.242 0 0.386 0.066 0.441 0.199 0.078-0.133 0.117-0.254 0.117-0.359 0.055-0.321 0.188-0.575 0.403-0.762l0.039-0.039-0.36-0.399c-0.265-0.109-0.453-0.187-0.558-0.242-0.16-0.105-0.297-0.172-0.403-0.199l-0.039-0.039-1.879 0.039zm0.438 2.16c0.293 0.082 0.574 0.231 0.844 0.442l-0.563-0.039c0.375 0.078 0.613 0.199 0.719 0.359l0.043 0.121 0.039-0.16v-0.043c0-0.106 0.148-0.199 0.441-0.277-0.136-0.133-0.242-0.227-0.32-0.282-0.133-0.105-0.27-0.16-0.402-0.16h-0.16l-0.641 0.039zm0 2.043 0.16-0.16h0.039c0.11-0.109 0.215-0.27 0.32-0.48-0.105-0.082-0.21-0.133-0.32-0.161l-0.039-0.039c-0.16-0.082-0.305-0.109-0.437-0.082 0.16 0.055 0.238 0.16 0.238 0.321 0 0.082-0.028 0.121-0.078 0.121-0.055 0.05-0.082 0.093-0.082 0.117-0.106 0.16-0.039 0.281 0.199 0.363z" inkscape:connector-curvature="0"/>
      <path id="path66" style="fill-rule:evenodd;fill:#958b6a" d="m20.16 15.921 0.559 0.039c-0.266-0.211-0.547-0.36-0.84-0.442-0.106-0.023-0.305-0.039-0.602-0.039-0.211 0.11-0.332 0.16-0.355 0.16l-0.043 0.039v0.121c0.133 0 0.348-0.027 0.641-0.082 0.269-0.05 0.453 0 0.558 0.161l0.082 0.043zm0.68-2.282 0.199 0.082c0.426 0.184 0.695 0.344 0.801 0.481l0.16-0.16c-0.188-0.293-0.492-0.481-0.922-0.563-0.398-0.105-0.758-0.078-1.078 0.082l-0.121 0.082c0.109 0.024 0.336 0.012 0.683-0.043h0.118c0.027 0 0.054 0.016 0.082 0.043 0.023-0.004 0.05-0.004 0.078-0.004zm-1.84-3.16c-0.188 0.027-0.359 0.055-0.52 0.082h-0.16c-0.054 0.028-0.105 0.039-0.16 0.039-0.105 0.055-0.238 0.082-0.398 0.082-0.508 0.16-1.121 0.371-1.84 0.637h0.199l0.359-0.156h0.481c0.16 0 0.387-0.055 0.68-0.16 0.32-0.11 0.547-0.161 0.679-0.161 0.453-0.109 0.828-0.16 1.121-0.16l0.68 0.039c0.293 0.028 0.774 0.067 1.441 0.121 0.239 0.051 0.493 0.211 0.758 0.481 0.133 0.16 0.293 0.266 0.481 0.32h0.359c0.133 0.051 0.227 0.133 0.281 0.238v0.52c0 0.215 0.051 0.348 0.161 0.398 0.105 0.028 0.21 0.043 0.32 0.043 0.078 0.051 0.117 0.2 0.117 0.438 0.027-0.059 0.055-0.125 0.082-0.199 0.027-0.043 0.055-0.09 0.078-0.141v-0.18l-0.238-0.757c-0.055-0.11-0.121-0.204-0.199-0.282-0.508-0.507-1.321-0.855-2.442-1.039-0.695-0.109-1.32-0.176-1.879-0.203h-0.441zm-4.039 1.32c0.051 0.586 0.184 0.747 0.398 0.481 0.055-0.082 0.067-0.199 0.039-0.359 0-0.188 0.016-0.321 0.043-0.403-0.214 0.082-0.375 0.176-0.48 0.281z" inkscape:connector-curvature="0"/>
    </g>
  </g>
<metadata><rdf:RDF><cc:Work><dc:format>image/svg+xml</dc:format><dc:type rdf:resource="http://purl.org/dc/dcmitype/StillImage"/><cc:license rdf:resource="http://creativecommons.org/licenses/publicdomain/"/><dc:publisher><cc:Agent rdf:about="http://openclipart.org/"><dc:title>Openclipart</dc:title></cc:Agent></dc:publisher></cc:Work><cc:License rdf:about="http://creativecommons.org/licenses/publicdomain/"><cc:permits rdf:resource="http://creativecommons.org/ns#Reproduction"/><cc:permits rdf:resource="http://creativecommons.org/ns#Distribution"/><cc:permits rdf:resource="http://creativecommons.org/ns#DerivativeWorks"/></cc:License></rdf:RDF></metadata></svg>