<?xml version="1.0" encoding="UTF-8" standalone="no"?>
<!-- Generator: Adobe Illustrator 12.0.0, SVG Export Plug-In . SVG Version: 6.00 Build 51448)  -->
<svg xmlns:inkscape="http://www.inkscape.org/namespaces/inkscape" xmlns:rdf="http://www.w3.org/1999/02/22-rdf-syntax-ns#" xmlns="http://www.w3.org/2000/svg" xmlns:cc="http://web.resource.org/cc/" xmlns:dc="http://purl.org/dc/elements/1.1/" xmlns:sodipodi="http://inkscape.sourceforge.net/DTD/sodipodi-0.dtd" xmlns:svg="http://www.w3.org/2000/svg" xmlns:ns1="http://sozi.baierouge.fr" xmlns:xlink="http://www.w3.org/1999/xlink" id="Layer_1" style="enable-background:new 0 0 178.635 264.113" sodipodi:docname="Libro di ricette.svg" xml:space="preserve" viewBox="0 0 178.635 264.113" sodipodi:version="0.32" version="1.0" inkscape:version="0.40+cvs" sodipodi:docbase="F:\openclip\svg3">
<sodipodi:namedview id="base" bordercolor="#666666" inkscape:pageshadow="2" inkscape:window-width="640" pagecolor="#ffffff" inkscape:zoom="1.4312055" inkscape:window-x="22" borderopacity="1.0" inkscape:current-layer="Layer_1" inkscape:cx="89.317496" inkscape:cy="132.05650" inkscape:window-y="22" inkscape:window-height="540" inkscape:pageopacity="0.0"/>
<g id="g3">
	<path id="path5" d="m141.36 0.577c0 2.086-0.967 8.048 0.654 8.952 0.988 0.551 3.473-0.566 4.41-0.917 2.848-1.066 1.173 0.638 2.358 1.311 0.424 0.241-0.139 1.076 1.136 1.288 0.874 0.146 2.04-0.39 2.839-0.153 3.919 1.163 1.479 4.624 6.463 4.345 3.048-0.17 2.647 3.21 4.805 4.651 1.617 1.08 4.088 0.625 4.848 2.708 0.183 0.501-2.856 0.964-0.634 2.162 1.248 0.672 2.51 0.528 3.516 1.55 1.5 1.524-1.468 1.906 1.791 2.489 1.498 0.268 3.356-0.604 4.957-0.437 0.546 0.057-0.778 19.329-0.896 21.836-1.397 29.937-1.631 59.957-1.987 89.92-0.181 15.117-0.285 30.235-0.38 45.354-0.052 8.222-0.078 16.441-0.078 24.663 0 3.235 0.009 6.471 0.022 9.706 0.011 2.704 0.939 7.88-0.153 10.415-1.596 3.701-7.495 3.515-10.958 4.147-6.862 1.255-13.695 2.686-20.524 4.105-13.737 2.857-27.426 5.996-41.231 8.521-14.396 2.633-28.656 6.091-43.039 8.775-7.075 1.32-14.252 2.008-21.383 2.943-3.271 0.43-6.512 1.019-9.759 1.595-0.771 0.138-2.238 2.438-3.467 2.928-5.748 2.288-10.881-1.685-15.066-4.825-2.428-1.822-4.95-3.802-6.398-6.528-1.403-2.641-0.405-7.242-0.421-10.29-0.083-15.363-0.179-30.727-0.257-46.091-0.16-31.768-0.304-63.535-0.472-95.303-0.074-13.943 1.168-28.7-0.357-42.567-0.603-5.48-4.613-14.147 2.328-16.98 1.64-0.67 3.338-1.52 5.075-1.886 2.35-0.495 4.312 0.872 6.834 0.611 13.635-1.412 27.768-8.289 40.677-12.619 14.304-4.797 28.6-9.622 42.947-14.29 7.394-2.406 14.787-4.809 22.191-7.182 3.65-1.183 17.13-7.394 19.61-4.92"/>
	<path id="path7" style="fill:#FFFFFF" d="m139.22 4.07c-25.924 9.709-52.598 18.111-78.26 28.255-11.459 4.53-23.41 7.907-34.98 12.228-2.602 0.972-5.462 2.407-7.904 2.271-2.075-0.116-3.586-1.249-5.896-0.786-1.968 0.394-2.464 1.217-1.048 2.838 1.152 1.318 1.569-0.352 1.965-0.131v-0.699c1.56 3.237 4.828 4.848 8.167 5.677-4.713-1.545-12.094-4.018-13.445-9.55-1.113-4.557 3.976-1.7 5.007-1.894 12.829-2.416 24.289-7.415 36.577-11.487 14.165-4.694 28.304-9.468 42.502-14.062 13.246-4.286 26.928-7.233 40.022-11.832 1.79-0.628 7.88-4.349 7.29-0.828"/>
	<path id="path9" style="fill:#00FF00" d="m139.57 10.141c-18.383 7.552-37.23 13.658-56.112 19.813-9.001 2.934-18.262 4.998-27.257 8.049-7.777 2.639-19.234 8.867-27.513 7.904 19.866-6.997 39.788-13.835 59.654-20.831 16.937-5.964 33.532-13.864 50.879-18.474-0.22 1.286-0.52 2.566 0.35 3.539"/>
	<path id="path11" style="fill:#00FF00" d="m146.99 10.839c0.244 0.741-0.136 1.136 0.395 1.79-36.14 11.429-71.884 24.373-108.78 33.278 19.625-6.57 39.502-12.289 59.282-18.369 9.848-3.027 19.547-6.446 29.211-10.011 6.42-2.367 13.17-5.789 19.9-6.688"/>
	<path id="path13" style="fill:#00FF00" d="m153.76 14.376c1.846 3.906-7.289 4.499-10.045 5.153-4.771 1.133-9.57 2.161-14.361 3.2-9.201 1.995-18.324 4.189-27.345 6.889 8.465-2.694 16.882-5.525 25.322-8.292 3.69-1.211 24.72-9.741 26.42-6.95"/>
	<path id="path15" style="fill:#00FF00" d="m162.24 21.801c0.597 0.117 1.193 0.233 1.79 0.35-42.68 10.433-86.297 16.678-128.97 27.294 24.034-7.582 48.841-12.407 73.016-19.232 10.785-3.045 21.67-5.128 32.538-7.845 5.459-1.365 10.891-2.845 16.36-4.166 4.71-1.138 1.88 2.218 5.26 3.599"/>
	<path id="path17" style="fill:#00FF00" d="m165.77 24.29c0.041 3.722-41.226 8.212-46.729 8.865 7.95-1.176 15.882-2.5 23.752-4.133 4.109-0.853 8.221-1.691 12.313-2.626 2.83-0.645 8.14-2.847 10.67-2.106"/>
	<path id="path19" style="fill:#00FF00" d="m168.96 29.225c-21.122 3.066-41.783 8.233-62.751 12.128-19.001 3.53-38.46 5.899-57.695 7.743 20.063-4.243 40.139-8.388 60.34-11.926 20.114-3.523 40.44-5.878 60.499-9.692-0.04 0.174-0.39 1.732-0.4 1.747"/>
	<path id="path21" style="fill:#FFFFFF" d="m176.04 30.666c1.117 61.495-2.644 123.13-2.786 184.64-0.006 2.595 0.028 5.173 0.106 7.767 0.11 3.649 1.877 7.476-2.057 8.212-7.722 1.447-15.437 2.926-23.148 4.427-13.19 2.566-26.339 5.363-39.501 8.071-26.81 5.516-53.809 9.653-80.662 14.718-0.649-61.332 0.245-122.72 0.611-184.05 0.007-1.278-0.44-20.316 0.266-20.395 7.59-0.841 15.174-1.706 22.757-2.605 13.105-1.556 26.189-3.493 39.211-5.632 28.217-4.647 56.767-13.005 85.207-15.162"/>
	<path id="path23" style="fill:#FFFFFF" d="m13.445 53.332c1.453 0.085 2.035 0.995 3.275 1.441 2.91 1.047 5.928 0.948 9.127 1.091-2.842 5.477-10.687 0.98-14.193-1.091-2.446-1.445-13.754-9.764-6.331-12.403-0.802 5.056 4.594 8.64 8.122 10.962"/>
	<path id="path25" style="fill:#00FF00" d="m21.219 49.794c-0.397-0.167-0.738-0.212-1.004-0.699 1.878-0.83 3.755-1.66 5.633-2.49 0.95 2.839-2.728 2.804-4.629 3.189"/>
	<path id="path27" d="m157.96 50.886c0.821 0.127 1.963 0.536 2.184 1.397 0.214 0.832-2.461 2.329-2.489 3.231-0.025 0.82 1.982 2.783 2.489 3.494-3.684 2.443-4.28 2.389-4.28 6.77-1.85-0.267-4.007-1.489-5.873-1.048-3.011 0.71-2.141 1.638-3.735-0.655-1.047-1.506 0.742-2.114-1.768-3.276-1.902-0.881-2.377-1.63-1.9-3.362 0.505-1.833 3.168-2.207 2.729-4.695-0.625-3.546 1.196-1.148 3.561-1.55 1.964-0.333 3.387-2.643 4.781-1.463 1.41 1.2 2.52 3.5 4.3 1.157"/>
	<path id="path29" style="fill:#00FF00" d="m32.181 49.794c-1.878 0.248-3.756 0.495-5.634 0.743 1.665-1.126 3.866-0.659 5.634-0.743"/>
	<path id="path31" style="fill:#FFFFFF" d="m23.01 60.8c0.836-0.485 1.932-0.783 2.838-1.092-0.36 65.554-0.72 131.11-1.08 196.66-0.016 2.934 1.209 4.354-2.37 5.057-5.292 1.04-9.969-3.267-13.735-6.332-5.799-4.722-3.787-13.53-3.843-20.417-0.066-8.156-0.13-16.313-0.195-24.47-0.232-29.286-0.46-58.573-0.667-87.859-0.102-14.362-0.2-28.723-0.292-43.084-0.059-9.154 0.89-19.316-0.833-28.378 5.292 5.509 12.188 10.343 20.177 9.912"/>
	<path id="path33" style="fill:#00FF00" d="m25.499 52.982c-0.48 0.364-0.961 0.728-1.441 1.092 0.508-1.618 0.04-0.84-0.699-2.489 0.35-0.233 0.699-0.466 1.048-0.699 0.207 0.858 0.841 1.412 1.092 2.096"/>
	<path id="path35" style="fill:#FFFF00" d="m155.51 54.729c0.383-0.311 0.671-0.506 0.742-1.005-1.089 3.401-7.051-0.648-8.079 4.062-0.847 3.877 3.259 4.192 5.939 4.411v0.743c-1.795-0.435-4.022-1.463-5.328 0.349 0.196-2.501-1.716-4.604-4.235-4.629 1.937-1.377 2.897-3.679 2.489-6.027 2.004 0.074 5.31 3.649 5.284-0.699 1.08 1.066 1.55 2.935 3.2 2.795"/>
	<path id="path37" style="fill:#FF0000" d="m154.11 57.568c-0.63 4.838-6.96-0.705 0 0"/>
	<path id="path39" style="fill:#FFFF00" d="m156.21 59.009c0.015-0.582 0.028-1.165 0.043-1.747 0.35 0.349 0.698 0.699 1.048 1.048-0.06 0.039-1.07 0.672-1.09 0.699"/>
	<path id="path41" d="m114.41 61.499c0.263 2.201-1.767 10.252 0 11.704 0.995 0.818 4.479-0.691 5.677-0.743-0.802 3.426 1.952 7.977-1.877 9.783-2.22 1.047-4.682-1.3-4.477 3.079 0.136 2.896-0.519 6.164 1.746 8.428 1.492 1.492 4.729-3.362 5.35-4.52 3.52-6.557 4.907-20.533 16.377-18.386 2.271 0.425 10.432 2.477 10.591 4.651 0.362 4.957-1.579 10.343 0.634 15.045 2.259-2.994 3.479-8.438 7.293-8.604 4.997-0.217 2.298 3.155 0.873 5.765-2.099 3.844-6.36 14.03-12.228 10.7-3.037-1.724-2.855-5.885-3.363-8.909-5.707 8.579-10.847 17.168-19.128 6.376-3.169 2.92-3.83 8.312-9.39 6.922-4.283-1.071-3.592-4.741-5.503-7.621-1.7 5.391-7.836 13.404-14.192 7.774-4.462 5.731-9.59 5.973-12.01-1.747-2.931 5.11-12.379 17.109-16.944 6.834-1.571-3.535-0.778-9.235 0-12.927 0.499-2.365 2.727-5.338 2.402-7.402-1.618 2.652-3.495 5.085-5.481 7.468-1.655 1.986-6.148 4.675-4.625 6.964 1.663 2.5 5.481 6.383 4.909 9.02-0.269 1.24-2.736 3.988-3.799 4.673-4.054 2.61-4.641-3.21-6.725-6.419-3.532-5.439-7.544-10.596-10.525-16.377-1.691 1.553-2.492 3.891-3.188 6.027-2.352-2.507-6.206-6.12-4.696-8.966 4.339-8.182 10.799-15.462 19.086-19.792 12.489-6.524 21.667 4.98 15.395 16.704l0.349 0.349c1.545-2.083 3.745-3.355 6.245-3.93 1.981-0.456 5.6 0.763 7.206 0.043 1.984-0.889 0.663-4.296 4.281-1.397 0.021-4.011 2.537-8.065 6.244-9.651 5.486-2.348 9.454-0.052 12.534 4.323 0.899-0.553 4.687-0.929 4.541-2.162-0.268-2.257-1.115-8.098 0.044-9.542 2.57 2.724 3.96-3.43 6.38-3.52"/>
	<path id="path43" style="fill:#FF0000" d="m111.92 75.691c1.603 2.191 3.862-0.324 6.027-0.742 0 0.792 0.391 4.605-0.314 4.648-1.499 0.092-5.257-0.489-5.473 1.16-0.467 3.554-1.084 7.304-0.262 10.852 1.168 5.041 4.363 5.911 7.84 2.861-1.349 1.885-2.225 4.668-4.303 5.874-3.616 2.098-5.509-3.666-6.175-6.335-0.891-3.567-0.558-7.337 0.036-10.918 0.278-1.677-0.142-5.27-2.313-2.072-1.586-3.784 2.483-2.687 3.233-5.678 0.736-2.938-3.08-7.571 1.702-8.865-0.02 3.076-0.02 6.148-0.02 9.219"/>
	<path id="path45" style="fill:#FF0000" d="m64.454 72.459c5.715 6.378-0.166 15.387-4.598 20.65-1.414 1.679-8.186 6.408-7.892 8.129 0.193 1.13 1.715 0.763 2.271 1.441 1.136 1.387 2.081 3.032 3.101 4.563 0.982 1.475 1.985 3.2 1.004 4.913-1.766 3.086-2.93 0.798-4.324-0.568-3.127-3.063-5.542-8.011-7.877-11.708-0.764-1.21-5.813-10.499-6.469-10.281-2.046 0.683-2.607 3.896-3.559 5.568-7.244-4.61 16.977-33.075 28.343-22.7"/>
	<path id="path47" style="fill:#FF0000" d="m141.71 76.041c3.754 0 4.153 0.265 3.888 3.887-2.145-2.366-7.234 9.393-8.316 11.403-1.881 3.492-6.4 10.633-11.052 6.415-4.821-4.371-2.324-12.479 0.066-17.569 2.02-4.323 12.67-12.544 15.41-4.136"/>
	<path id="path49" style="fill:#FF0000" d="m101.31 77.438c0.803 1.73 0.224 3.892-1.79 4.28-0.413-8.394-15.059-2.677-4.936 3.494 5.362 3.269 13.293 4.018 8.953 12.752-1.627 3.273-5.816 5.972-9.303 3.582 2.554-2.04 7.306-0.435 8.319-4.499 1.618-6.486-5.219-7.615-9.804-9.477-14.819-6.019 3.185-20.633 8.554-10.136"/>
	<path id="path51" d="m141.71 77.438c0.452 2.505-3.78 8.994-4.89 11.092-1.407 2.661-5.51 11.23-9.39 6.9-3.576-3.992 0.575-13.631 3.316-16.995 4.53-5.558 6.09-1.725 10.96-0.997"/>
	<path id="path53" d="m62.664 78.836c0.444 6.856-3.599 12.173-8.297 16.486-0.979 0.898-1.636 2.432-2.839 3.035-2.136 1.07-1.735-1.037-2.402-1.834-2.105-2.515-3.677-6.113-5.437-8.926-1.405-2.246 2.128-4.773 3.934-6.383 4.741-4.231 10.334-7.472 15.041-2.378"/>
	<path id="path55" style="fill:#FFFFFF" d="m139.22 78.137c-2.064 5.969-5.318 11.653-9.564 16.333-2.64-3.955 0.153-11.113 2.664-14.63 2.59-3.631 3.53-1.372 6.9-1.703"/>
	<path id="path57" style="fill:#FFFFFF" d="m60.567 79.185c1.512 7.106-4.917 12.115-9.564 16.333-1.72-2.772-3.44-5.545-5.161-8.318-0.599-0.965 3.842-5.387 4.637-6.094 2.377-2.114 7.565-5.297 10.088-1.921"/>
	<path id="path59" style="fill:#FFFFFF" d="m106.25 83.814c0.894 0.526 0.551 4.646 0.044 6.376-1.204-2.743-3.205-5.655-6.419-6.027 3.18-0.673 4.128-2.49 4.279-5.633 0.66 1.847-0.73 5.634 2.1 5.284"/>
	<path id="path61" style="fill:#FFFFFF" d="m96.685 80.233c-0.612 1.241 0.021 2.512 0.74 3.581-1.064-0.445-3.78-1.776-3.886-3.057-0.184-2.242 2.278-1.51 3.146-0.524"/>
	<path id="path63" style="fill:#FF0000" d="m147.69 93.378c3.39-1.208 6.237-9.452 8.559-8.865-1.472 3.303-7.962 15.564-11.792 10.874-2.54-3.11-0.518-9.761 0.787-12.97 0.09 3.686-0.13 8.21 2.44 10.961"/>
	<path id="path65" style="fill:#FF0000" d="m83.582 95.475c-2.713-3.661-6.003 6.874-7.336 8.866-1.892 2.826-6.246 7.931-9.739 4.192-2.886-3.089-1.073-12.771 0.456-16.265 1.854-4.236 5.002-7.708 9.894-7.404-5.389 1.798-7.052 7.354-7.773 12.402-0.333 2.329-1.632 8.342 1.223 9.695 4.901 2.323 12.714-19.406 12.577-23.496 1.279 3.736 0.719 8.305 0.698 12.011"/>
	<path id="path67" style="fill:#FFFFFF" d="m99.172 92.287c1.969 2.713-0.515 7.915-3.493 4.979 4.348 1.5 3.052-3.134 0.699-4.891-2.413-1.802-5.393-1.297-7.25 1.113-1.019 1.322 0.407 10.411-2.882 5.831-1.963-2.735-0.743-12.234-0.873-15.154 2.395 5.566 8.806 6.355 13.799 8.122"/>
	<path id="path69" style="fill:#FFFFFF" d="m79.695 88.443c-2.096 5.61-5.568 10.549-8.123 15.94-0.242-4.461-0.538-9.87 1.92-13.826 0.863-1.389 2.724-4.176 4.587-4.211 1.584-0.025 2.481 0.544 1.616 2.1"/>
	<path id="path71" style="fill:#FF0000" d="m94.894 94.427c-1.091 0.895-1.991 2.12-1.704 3.537-4.294 0.683-1.199-7.46 1.704-3.537"/>
	<path id="path73" style="fill:#FF0000" d="m85.329 102.94c2.891-0.01 5.012 0.137 6.07-2.839 0.118 0.069 0.57 0.308 0.699 0.349-1.48 1.737-3.179 5.307-5.875 4.892-3.944-0.608-2.947-6.625-2.947-9.127 0.414 2.313 0.27 5.107 2.053 6.727"/>
	<path id="path75" d="m150.88 102.59c2.457-0.765 3.038 0.436 2.467 2.38-0.649 2.214-0.068 1.402 0.634 2.686 0.623 1.138 2.938 0.375 1.267 2.882-0.56 0.84-2.911 0.65-3.625 1.747-0.479 0.738 0.656 2.844 0 3.756-1.107 1.54-1.187 0.131-2.488 0.218-0.907 0.061-1.568-0.838-2.796-0.611-1.462 0.271-1.811 2.639-3.537 1.354-0.693-0.516-0.213-2.096-0.655-2.751-0.782-1.16-1.593-1.028-2.228-1.703-1.382-1.468-2.367-0.071-1.483-2.708 0.499-1.491 2.774-1.84 3.077-3.56 0.313-1.774-1.784-2.365 0.021-3.69 0.87-0.639 2.657 0.897 3.823 0 2.24-1.72 3.94 2.66 5.53-0.01"/>
	<path id="path77" style="fill:#FFFF00" d="m150.18 106.13c0.232-0.35 0.466-0.699 0.698-1.048-0.08 0.909-0.422 1.967-0.698 2.838-4.029-5.438-8.777 4.676-3.844 4.935-0.532 0.649-1.422 1.351-2.139 1.791 0.45-3.091-0.866-3.691-3.582-3.93 1.803-1.522 3.756-3.587 2.14-5.983 1.453 1.099 2.581 1.863 3.648 0.114 0.44-0.73 2.65 1.47 3.77 1.28"/>
	<path id="path79" d="m132.1 107.88c5.729 8.866-9.838 17.701-11.923 9.695-0.513-1.968 0.868-5.106 3.036-5.503 2.959-0.542 5.158 4.02 2.51 4.367-1.575 0.207-0.491-3.952-3.012-1.921-0.675 0.543-1.214 2.122-0.831 2.97 1.085 2.407 4.773 1.253 6.311 0.306 2.778-1.712 4.646-4.575 2.992-7.773-2.997-5.799-9.734-2.1-13.494 0.742-10.731 8.112-18.236 19.547-31.828 23.544-6.441 1.894-26.86 1.258-22.871-10.77 2.907-8.769 13.25 1.668 6.397 2.817-3.739 0.627 2.337-2.69-0.087-4.455-2.969-2.161-5.314 2.565-4.717 4.891 1.57 6.113 11.49 7.75 16.552 6.987 7.75-1.168 14.173-5.604 19.937-10.656 6.27-5.52 22.37-25.973 31.02-15.26"/>
	<path id="path81" style="fill:#FFFF00" d="m153.02 108.97c-0.684 0.561-1.645 0.907-2.49 1.048v-1.398c0.98 0.75 1.52 0.18 2.49 0.35"/>
	<path id="path83" style="fill:#FF0000" d="m146.99 110.72c-0.218-0.233-0.437-0.466-0.654-0.699 0.489-0.357 1.169-0.886 1.747-1.048 0.58 1.27-0.24 1.17-1.1 1.75"/>
	<path id="path85" d="m86.77 109.67c0.983 2.767 2.71 0.195 4.542 0.393 4.568 0.494-1.489 4.41 1.529 7.424 2.738 2.734-3.306 2.933-4.891 4.804-0.78 0.921-0.538 3.377-1.835 3.712-1.062 0.274-2.342-1.938-3.669-2.183-2.303-0.426-6.75 2.875-4.869-2.031 1.708-4.455-2.064-1.949-2.817-4.651-0.464-1.665 1.834-1.728 2.794-2.665 0.716-0.699 1.908-3.963 2.14-4.105 1.292-0.793 1.887-0.186 3.167 0.502 2.039 1.11 1.103-2.55 3.909-1.19"/>
	<path id="path87" style="fill:#FFFF00" d="m90.308 112.51c-1.12 1.851-1.787 4.326 0.393 5.678-0.511 0.342-1.527 0.677-2.14 0.742 0.437-3.374-3.472-6.508-6.026-3.319-2.765 3.452 2.214 7.027 4.935 4.018-0.814 1.165-1.63 2.329-2.444 3.494-1.224-2.868-3.471-1.167-5.679-0.698 1.084-2.434 2.506-5.445-1.397-5.634 1.838-0.536 3.003-2.438 3.188-4.28 1.628 1.127 3.693 2.629 4.237-0.699 1.455 2.31 2.831 2.35 4.933 0.7"/>
	<path id="path89" style="fill:#FFFF00" d="m149.13 113.95c-0.466-0.364-0.933-0.728-1.398-1.092 0.372-0.168 1.311-0.316 1.746-0.349-0.12 0.48-0.23 0.96-0.35 1.44"/>
	<path id="path91" style="fill:#FF0000" d="m86.071 117.79c-0.646 0.333-1.262 0.578-2.096 0.393 0.233-0.466 0.466-0.932 0.699-1.397 0.668 0.21 1.138 0.62 1.397 1.01"/>
	<path id="path93" d="m160.1 120.28c-0.12 5.06-3.86-3.16 0 0"/>
	<path id="path95" d="m154.81 122.42c-1.171 3.886 1.605 1.619 1.921 2.489 0.781 2.154 0.219 0.013-0.48 1.572-0.548 1.222-3.115 0.4-1.44 3.406 0.143 0.255 2.624 0.996 3.188 1.791 3.624-9.61 6.66 5.15 7.056 9.053 0.873 8.594-3.613 16.94-10.243 22.435 2.266 1.53 0.522 10.063 0.439 12.943-0.141 4.891-0.143 9.776-0.095 14.669 0.067 6.88-0.058 14.987-0.388 20.601-0.109 1.854-0.195 4.631 0.043 6.726 0.585 5.135 1.132 0.731 3.537 2.926 1.667 1.521-1.641 1.383-1.966 1.835-1.321 1.837-0.422 3.223-1.571 5.153-1.278-0.82-0.822-1.956-1.616-2.796-0.268-0.283 0.097-1.271-0.174-1.483-0.717-0.561-4.444 0.352-5.489 0.485-7.121 0.911-14.19 2.078-21.23 3.486-14.303 2.858-28.771 4.354-43.002 7.6-10.15 2.314-20.169 4.496-30.287 6.856-2.565 0.599-5.157 1.095-7.73 1.66-0.769 0.169-3.296 0.308-3.843 0.873-0.858 0.887 0.292 4.958-0.961 5.328-2.312 0.683-1.056-3.498-0.938-4.083 0.431-2.157-2.96 0.433-3.363-1.311-0.234-1.014 3.123-0.87 3.123-2.552v-9.349c0-2.972 1.858-14.844-1.048-16.42 1.533-1.693 1.411-3.485 1.432-6.369 0.05-6.56 0.324-13.118 0.472-19.676 0.162-7.187 0.221-14.361 0.11-21.549-0.052-3.372-0.276-6.737-0.514-10.1-0.201-2.832 1.388-8.336 0.029-10.479-0.502-0.792-3.661 0.698-2.511-1.267 0.617-1.055 2.598-1.198 3.472-2.096 0.115-0.118-1.391-3.257 0.655-2.097 1.002 0.568 0.204 2.776 1.092 3.494 0.785 0.635 5.692-0.596 6.721-0.703 13.837-1.447 27.621-3.814 41.251-6.58 12.596-2.555 25.135-5.325 37.691-8.063 6.712-1.463 13.406-3.013 20.132-4.393 0.775-0.159 3.925 0.017 4.389-0.437 0.477-0.467 0.082-1.49 0.393-1.833 0.78-0.85-0.94-3.45 1.75-1.74"/>
	<path id="path97" style="fill:#FF0000" d="m152.32 128.1c0.244 2.668-2.148 4.91-1.791 8.167-0.792-1.579-2.646-3.215-4.542-2.49-2.833 1.082-2.139 5.896-2.139 8.167-0.912-2.109-3.905-9.881-2.142-12.054 1.13-1.4 8.81-1.75 10.61-1.8"/>
	<path id="path99" style="fill:#FF0000" d="m139.92 138.75c-2.538 1.259-1.655 5.676-1.791 8.123 0.044 0.047-0.66-0.332-0.698-0.349 2.642-2.535-1.45-2.28-2.859-1.944-2.358 0.563-4.796 0.646-7.054 1.595 0.367-4.174-0.702-11.066 2.882-13.364 2.105-1.351 6.733-1.857 9.172-2.227 0.12 2.72 0.23 5.44 0.35 8.16"/>
	<path id="path101" style="fill:#BFDFFF" d="m160.79 130.54c3.712 12.665 2.879 22.784-8.432 31.169-11.817 8.761-20.982 20.326-31.637 30.449-3.549 3.372-7.35 6.257-11.246 9.174-4.11 3.077-8.614 9.446-11.313 14.324-0.569 1.029-3.084 9.023-3.58 9.171-1.847 0.549-2.455-2.194-2.357-3.385 0.573-6.977 4.722-12.332 9.267-17.333 2.875-3.163 5.851-6.27 9.817-7.669 1.814-0.64 6.029-0.842 3.451-3.844 3.083-0.982 6.207-5.388 8.634-7.597 3.238-2.947 6.612-5.874 9.467-9.205 2.169-2.53 5.365-5.653 5.48-9.139 0.084-2.546-1.648-5.317-2.314-7.729 2.094 2.205 6.947 8.377 8.473 2.14 0.821-3.359-2.343-8.273-2.796-11.704 1.696 1.927 2.478 4.496 4.236 6.354 2.529 2.671 5.188 0.95 4.936-2.489-0.205-2.775-2.085-5.035-2.577-7.708-0.383-2.082-1.046-3.537 1.529-0.742 1.645 1.785 1.653 6.454 4.41 7.249 3.369 0.972 2.56-3.293 2.184-5.502-0.571-3.36-2.285-6.557-2.664-9.913 3.581 0.646 3.199 10.446 6.813 8.777 4.65-2.15-1.45-12.02 0.22-14.86"/>
	<path id="path103" style="fill:#BFDFFF" d="m159.74 140.5c0.015 0.364 0.029 0.728 0.044 1.092-0.677-1.713-1.424-3.368-2.467-4.892-1.188-1.732-4.01-1.978-3.865-3.318 0.35-3.12 6.6 4.31 6.3 7.12"/>
	<path id="path105" style="fill:#FF0000" d="m125.38 146.88c-2.348 0.671-4.738 1.741-6.682-0.327-1.114-1.186-4.866-0.848-5.175-1.464-0.778-1.55-2.357-6.932-0.895-8.471 0.698-0.735 5.631-0.978 6.855-1.311 2.22-0.604 4.402-1.325 6.638-1.879-0.27 4.49-0.95 8.93-0.74 13.45"/>
	<path id="path107" style="fill:#BFDFFF" d="m151.62 139.1c1.621 3.373 2.609 6.923 3.188 10.612-1.404-2.813-4.103-10.673-8.473-8.473 0.117-1.659 0.233-3.318 0.351-4.978 2.19 0.41 2.43 4.98 4.93 2.84"/>
	<path id="path109" style="fill:#FF0000" d="m110.48 141.2c-1.551-0.372-2.896 0.027-2.797 1.79-3.459-0.917 1.482 3.818 1.442 5.066-0.061 1.912-2.37-2.362-2.62-2.664-2.074-2.501-5.861-4.341-9.085-3.45-1.393-4.364 9.733-4.389 12.754-4.979 0.12 1.35 0.27 3.06 0.31 4.23"/>
	<path id="path111" style="fill:#FF0000" d="m94.894 139.8c1.197 5.041-4.884 7.528-2.795 12.403-9.027 2.191-4.328 10.188-7.074 15.94-0.06-1.755-0.512-3.451-0.613-5.197-0.114-1.963 0.966-3.778 0.962-5.415-0.005-2.235-1.422-5.101-1.485-7.643-0.067-2.705 0.229-5.319-0.611-7.948 3.838-0.73 7.917-1.42 11.616-2.13"/>
	<path id="path113" d="m37.509 141.9c-1.489 4.3-3.125-3.77 0 0"/>
	<path id="path115" style="fill:#BFDFFF" d="m143.46 145.09c2.904-1.304 5.37 6.908 4.978 9.607-2.091-1.582-2.491-4.279-4.127-6.201-0.782-0.919-3.358-1.127-3.69-1.616-0.653-0.963 0-4.413 0-5.634 1.31 1.07 1.56 2.99 2.84 3.84"/>
	<path id="path117" style="fill:#FF0000" d="m81.442 156.79c-1.296 0.247-2.592 0.495-3.888 0.742 1.369-3.003 1.439-5.334-0.698-7.927-1.705-2.068-6.041-2.698-6.333-4.825 3.649-0.731 7.322-1.37 10.961-2.14 0.001 4.66 0.144 9.67-0.042 14.15"/>
	<path id="path119" style="fill:#00FF00" d="m110.13 144.74c-0.218-0.466-0.437-0.932-0.654-1.397h0.699c-0.01-0.26 0.05 1.86-0.05 1.4"/>
	<path id="path121" style="fill:#FFFF00" d="m103.8 145.44c-2.138-0.51-4.586-0.724-6.07 1.201-1.056 1.37-1.019 7.328-3.232 5.524-1.432-1.167-0.352-5.801 1.551-6.026 1.498-0.178 1.803-1.618 2.927-2.336 1.454-0.92 3.704 1.07 4.824 1.65"/>
	<path id="path123" style="fill:#FF0000" d="m68.34 146.18c-5.811-0.406-10.512 2.351-13.058 7.468-0.246-4.601-0.227-6.649 4.236-7.468 2.898-0.531 5.932-0.76 8.865-1.048 0.002 0.02-0.038 1.12-0.043 1.05"/>
	<path id="path125" style="fill:#FF0000" d="m105.2 149.02c3.068 5.359-4.308 0.219-6.727 1.049 1.023-3.41 4.707-4.06 6.727-1.05"/>
	<path id="path127" style="fill:#FF0000" d="m52.794 154.3c0.768 0.748 0.484 1.379 1.747 1.441-1.098 3.16-3.575 0.347-5.983 0.743-3.283 0.54-3.714 3.938-6.419 5.284-0.093-3.58-1.725-12.078 0.83-13.582 2.229-1.312 7.894-0.704 10.524-0.961-0.228 2.32-0.476 4.92-0.699 7.08"/>
	<path id="path129" style="fill:#FF0000" d="m133.15 147.23c-1.022 2.108 0.895 3.847 0.437 6.026-5.605-5.129-4.646 5.06-3.778 7.665 0.921 2.766 3.931 6.75 3.604 9.542-0.276 2.357-2.931 4.276-4.455 5.852 0.82-1.204 3.545-5.747 0.044-5.677-2.57 0.052 0.264 6.518-3.975 5.284 3.197-5.866 3.071-10.787 2.654-17.33-0.133-2.075-1.122-9.474 0.949-10.228 1.46-0.51 3.16-0.84 4.53-1.12"/>
	<path id="path131" style="fill:#FFFF00" d="m121.84 151.85c0.461 3.611-1.139 5.87-4.259 7.512-1.033 0.543-6.263 0.53-6.136 0.394-0.972 1.05 0.401 2.72 1.463 2.97 6.908 1.624 13.562-6.723 10.722-13.015 0.582-0.116 1.164-0.233 1.746-0.35-0.277 5.699-0.731 11.892-7.292 14.412-2.101 0.808-3.359 0.197-4.893-0.044-0.801-0.126-1.704-2.476-2.576-0.306-0.403 1.004 0.18 2.192-0.392 3.188-0.853 1.483-3.065 0.64-2.535 2.971-2.976-0.549-4.7-1.002-4.628-4.586 0.051-2.53 2.359-7.743 4.979-4.323-2.556-1.431-4.985 2.975-3.494 5.152 2.224 3.248 6.018-1.556 6.027-4.018 0.009-2.224-2.808-4.795-4.979-4.498-3.115 0.426-4.441 4.882-4.564 7.445-0.055 1.142 0.416 3.703-0.72 3.734-1.4 0.038-1.435-3.256-1.463-3.975-0.09-2.267 0.475-4.653 1.921-6.441 0.76-0.938 4.064-0.616 4.084-1.593 0.077-3.893-5.229-0.205-6.093 0.851-2.003 2.447-2.265 5.983-2.031 9.063-1.249-1.844-3.696-4.994-1.899-8.254 1.117-2.024 2.498-6.085 5.395-6.026 1.011 0.021 6.918 2.808 8.144 3.646 1.986 1.357 1.896 3.41 4.586 3.822 2.171 0.331 3.791-1 5.132-2.577 4.246-4.994 1.627-7.799-3.669-9.433 2.94 0.37 5.75 1.99 7.43 4.29"/>
	<path id="path133" style="fill:#BFDFFF" d="m139.22 149.36c0.495 3.961 2.108 7.687 2.488 11.661-1.942-0.918-4.748-6.575-7.423-4.193-2.116 1.885 1.663 8.822 1.396 11.312-3.189-3.588-4.258-8.792-4.586-13.451 5.843 5.261 4.285-3.733 4.237-7.118 0.7 1.56 2.25 2.67 3.88 1.79"/>
	<path id="path135" style="fill:#DFDFBF" d="m74.716 150.41c8.167 8.17-11.728 13.68-15.021 16.866-3.778 3.657-7.467 6.691-12.535 3.31-2.194-1.464-3.196-3.422-2.795-5.983 0.316-2.02 1.876-4.652 3.756-5.437 2.751-1.148 3.924 1.669 6.463 1.55 2.258-0.105 4.974-3.145 5.24-5.283 0.51-4.094-2.547 0.396-3.144 1.396 1.943-4.372 3.727-8.047 8.865-8.56 3.176-0.32 6.499 0.36 9.171 2.13"/>
	<path id="path137" style="fill:#FFFF00" d="m118.3 151.16c-2.478-0.241-7.32-0.32-5.373 3.801 1.222 2.586 1.668-3.365 4.673-1.311-0.667 1.486-1.774 2.999-3.341 3.603-3.819 1.473-3.034-4.725-3.034-6.485 1.17 1.38 4.35-2.66 7.07 0.4"/>
	<path id="path139" style="fill:#FF0000" d="m108.39 150.76c0.189 0.582 0.618 1.748 0.044 2.489 0.03-0.82-0.06-1.75-0.04-2.49"/>
	<path id="path141" style="fill:#FFFF00" d="m94.544 154.3c-0.148 0.62-0.599 1.271-1.005 1.791-2.952-3.211-5.464 5.064-4.279 7.424 0.843 1.679 6.958 5.786 8.165 4.63 0.367 0.375 1.164 1.322 1.398 1.79-2.358-0.116-4.716-0.232-7.074-0.349 4.384-0.346-2.611-3.416-3.406-4.936-2.222-4.24 0.845-11.6 6.201-10.34"/>
	<path id="path143" style="fill:#FF0000" d="m92.448 163.91c-2.255-1.527-1.503-5.202 0.349-6.726-0.357 2.22-0.383 4.49-0.349 6.73"/>
	<path id="path145" style="fill:#FF0000" d="m82.141 174.17c-1.65 0.772-3.351 0.396-5.043 0.895-2.318 0.683-1.928 2.495 0.436 2.358 0.765-0.044 4.968-1.424 5.016-0.461 0.214 4.347 1.375 6.162-2.417 8.059-1.586 0.794-4.15 2.297-5.59 1.508-1.714-0.939-0.897-3.504-1.703-4.018-4.964-3.164-1.401 3.615-0.917 4.761-1.411 0.521-2.818 0.375-4.236-0.067-1.292-0.402-2.022-2.356-2.228-2.423-2.759-0.891-3.986 5.083-7.73 5.678 0.75-1.957 1.697-4.017 1.966-6.114 0.28-2.184-1.281-4.001-1.223-5.59 0.067-1.816 2.771-5.363 4.192-6.376-0.35-0.35-0.699-0.699-1.048-1.049 0.992-0.764 2.017-1.396 3.188-1.746-1.168 0.952-1.297 3.418 0.479 3.887 1.083 0.286 1.229-1.882 2.599-1.987 1.122-0.087 1.545-1.069 2.467-1.463 1.933-0.825 6.749-3.781 5.852 0.698-0.504 2.52-3.197 6.323-6.07 5.59 4.557-0.425 1.4-4.09-1.048-2.489-2.973 1.944 1.398 3.704-0.349 5.328-1.057-1.835-5.768-5.158-4.28-1.092 0.148 0.404 3.115 3.222 3.668 3.406 1.637 0.547 4.045-1.646 2.751-3.057 4.298 0.141 10.504-7.937 6.486-11.333-2.334-1.974-4.951-0.759-7.185 0.578-5.703 3.412-2.204 0.637-2.14-1.647 4.087-0.246 5.44-4.511 8.735-6.158 1.599-0.8 3.406-0.37 5.066-0.567 0.116 4.93 0.451 10.04 0.306 14.89"/>
	<path id="path147" style="fill:#FF0000" d="m123.63 163.17c0.464-0.875 1.177-1.678 1.746-2.489 0.116 1.193 0.233 2.388 0.35 3.581-0.68-0.35-1.52-0.62-2.1-1.09"/>
	<path id="path149" style="fill:#FF0000" d="m149.83 167.75c-0.466 0.015-0.932 0.029-1.397 0.044 1.775-1.179 3.552-2.358 5.327-3.537 0.32 2.27-2.26 2.96-3.93 3.5"/>
	<path id="path151" style="fill:#FFFF00" d="m120.79 166.7c-2.067 2.658-6.672 2.107-10.265 2.532 0.851-0.444 1.295-1.901 1.879-2.183 0.872-0.42 1.104 0.135 2.314-0.131 1.8-0.39 5.13-1.4 6.08-0.22"/>
	<path id="path153" style="fill:#FFFF00" d="m125.38 167.05c0.017 0.727 0 1.455 0 2.183 0.295-1.593-0.658-2.909-2.095-3.58 0.85 0.33 1.51 0.93 2.1 1.4"/>
	<path id="path155" style="fill:#DFDFBF" d="m64.104 167.05c-2.63 2.05-5.736 5.954-8.472 7.119 0.681-2.03 6.576-7.14 8.472-7.12"/>
	<path id="path157" style="fill:#FFFF00" d="m122.89 170.24c-0.219 0.247-0.438 0.495-0.656 0.742 0.656-1.343 1.002-2.935-0.35-3.887 1.18 0.81 1.68 2.06 1.01 3.15"/>
	<path id="path159" style="fill:#FF0000" d="m51.352 174.17c0.797 0.584 3.538 3.788 3.538 4.432 0 2.266-10.563 2.056-12.402 2.293-0.117-4.483-0.233-8.968-0.35-13.451 1.625 3.56 5.202 6.6 9.214 6.73"/>
	<path id="path161" style="fill:#FF0000" d="m88.909 170.24c-1.97 1.111-2.562-0.554-1.092-2.096 1.266 0.68 1.263 1.2 1.092 2.1"/>
	<path id="path163" style="fill:#FF0000" d="m153.02 180.5c-3.457 1.421-7.256 1.949-10.962 2.184 0.251-3.671-1.246-9.879 2.839-12.054 2.5-1.331 5.836-0.133 8.472-1.746 0.36 3.85-0.55 7.91-0.35 11.62"/>
	<path id="path165" style="fill:#BFBFBF" d="m119.7 170.59c-0.209 6.998-2.986 14.796-9.127 18.298-0.556 0.316-1.588 1.48-2.229 1.484-1.103 0.006-1.279-1.589-1.571-1.571-1.29 0.076-1.954-0.041-1.921 1.66-4.367-0.775-7.898-4.021-9.957-7.817 2.546-0.617 5.166-3.327 0.785-4.236 0.54-0.35 0.853-1.06 1.398-1.398-1.118-1.103-2.771-1.188-4.28-1.091 2.169-1.333-0.683-2.059 0.35-3.406 0.962-1.255 6.544-0.46 8.208-0.481 6.1-0.07 12.52-0.24 18.35-1.43"/>
	<path id="path167" style="fill:#FF0000" d="m89.958 172.73c0.452-0.267 0.524-0.603 1.092-0.699v1.398c-2.128-1.056-7.871 2.715-6.375-2.097 1.054 1.89 3.394 2.08 5.283 1.4"/>
	<path id="path169" style="fill:#FFFF00" d="m123.28 174.17c0.441-0.957 0.932-1.894 1.396-2.84-0.19 1.2-0.74 1.94-1.4 2.84"/>
	<path id="path171" d="m116.56 173.43c-3.35 1.97-0.56-4.4 0 0"/>
	<path id="path173" d="m108 175.57c-3.27-0.17 0.15-3.33 0 0"/>
	<path id="path175" d="m98.125 174.17c-0.63 3.75-3.278-0.8 0 0"/>
	<path id="path177" d="m103.45 174.87c-0.837 1.17-2.316 1.073-2.49-0.698 1.06-0.23 1.77 0.08 2.49 0.7"/>
	<path id="path179" style="fill:#FF0000" d="m85.329 181.6c-1.704-4.909-0.249-5.395 4.629-6.725-2.688 1.2-1.972 5.28-4.629 6.72"/>
	<path id="path181" d="m117.95 176.31c-2.76 3.2-1.98-3.75 0 0"/>
	<path id="path183" style="fill:#FF0000" d="m127.17 178.06c-4.6 4.135-9.2 8.269-13.8 12.403 4.344-3.857 7.12-8.838 8.166-14.543 1.61 1.28 3.44 3.46 5.63 2.14"/>
	<path id="path185" style="fill:#FF0000" d="m136.03 183.69l-3.537 0.393c2.475-2.722 4.949-5.444 7.424-8.166-0.17 2.67 1.13 9.7-3.88 7.78"/>
	<path id="path187" d="m112.27 177.36c-0.08 4.51-3.83-2.05 0 0"/>
	<path id="path189" d="m105.55 180.5c-1.315 1.125-3.257 2.077-2.837-0.655 1.27-0.28 2.16 0.04 2.84 0.66"/>
	<path id="path191" d="m109.78 180.85c-1.04 1.276-1.611 0.829-1.746-1.004 1.18-0.16 1.3 0.38 1.75 1"/>
	<path id="path193" style="fill:#FF0000" d="m57.335 184.43c-0.451 1.659-0.902 3.319-1.354 4.979-1.389-0.387-7.091-9.313-7.447-5.022-0.266 3.216 1.959 3.703 3.254 5.721 2.771 4.317-2.319 1.636-5.24 3.102-4.392 2.203 2.538 2.104 3.755 1.878-1.239 3.101-5.621 1.314-8.167 2.096v-14.498c4.244 0.316 8.116-0.55 12.272-1.136 5.254-0.74 1.131 0.42 2.927 2.88"/>
	<path id="path195" d="m65.153 182.29c-1.543 0.581-6.698 0.003-3.538-1.353 1.181-0.51 3.469 0.42 3.538 1.35"/>
	<path id="path197" d="m114.76 182.64c-3.92 2.44 0.73-5.01 0 0"/>
	<path id="path199" style="fill:#FF0000" d="m93.495 182.99c-0.797 2.367 1.741 3.673 2.533 5.678-2.97 0.713-5.938 1.427-8.908 2.14-0.041-1.863-1.052-6.388-0.262-7.686 1.105-1.81 4.634-0.62 6.637-0.13"/>
	<path id="path201" style="fill:#FF0000" d="m152.67 194.35c-3.585 0.84-7.305 1.112-10.963 1.442 0-3.896-2.049-10.523 2.469-10.919 2.853-0.25 6.141-1.676 8.844-1.484-0.12 3.61-0.23 7.5-0.35 10.96"/>
	<path id="path203" d="m100.96 184.78c-1.77 3.77-2.927-2.54 0 0"/>
	<path id="path205" d="m104.85 184.43c0.8 4.4-4.31 0.45 0 0"/>
	<path id="path207" d="m109.09 184.78c0.192 1.194 0.416 1.918-1.048 2.49-0.44-1.46-0.24-2.55 1.05-2.49"/>
	<path id="path209" d="m113.37 185.83c-1.73 3.75-3.15-2.84 0 0"/>
	<path id="path211" style="fill:#DFDFBF" d="m69.04 193.6c-0.75-0.003-1.354-0.095-1.311 1.049 0.082 2.171 4.653 1.324 5.495 1.273 3.406-0.21 2.623 2.966 3.305 5.997 0.562 2.495 1.525 5.457 1.333 7.533-0.198 2.136 1.264 2.055-1.959 2.897-2.863 0.749-5.942 0.771-8.881 0.771-6.073 0-12.26-1.107-18.158-2.489 1.776-4.134 3.551-8.269 5.327-12.402 3.181 4.995 9.529-1.718 4.281-5.635 2.203-0.399 2.854-2.122 4.586-3.188 2.812-1.729 2.297-0.451 4.978 0 4.974 0.837 11.246-1.014 15.242-3.93-3.695 3.93-8.004 10.27-14.238 8.12"/>
	<path id="path213" style="fill:#FF0000" d="m139.57 196.09c-3.654 0.714-7.309 1.427-10.963 2.141 0-3.919-1.603-9.307 2.01-11.225 2.528-1.342 6.215-0.611 8.953-1.527v10.62"/>
	<path id="path215" style="fill:#FF0000" d="m82.84 191.51c-0.772 0.152-1.656 0.029-2.446 0.044 1.623-1.726 3.633-3.164 4.63-5.372-0.231 1.89 1.107 6.04-2.184 5.33"/>
	<path id="path217" style="fill:#FF0000" d="m99.522 190.81c-2.108 3.94-6.647 5.389 1.092 6.027-0.672 2.779 0.194 5.878-2.84 7.468-1.042 0.546-3.882 0.526-5.239 0.96-1.838 0.587-3.46 1.339-5.415 1.529v-7.613c0-3.193-0.638-4.971 1.31-6.318 2.218-1.54 8.443-2.39 11.096-2.06"/>
	<path id="path219" style="fill:#FF0000" d="m116.2 200.37c-0.102-2.901 7.598-7.839 9.912-9.913 0 1.061 0.443 8.042-0.23 8.164-3.22 0.59-6.45 1.17-9.68 1.75"/>
	<path id="path221" style="fill:#BFBFBF" d="m112.27 193.26c-0.44 2.663-9.873 1.269-12.401 1.135 1.645-3.2 5.473-1.323 8.209-1.419 1.85-0.07 3.55-2.24 4.19 0.28"/>
	<path id="path223" style="fill:#FF0000" d="m84.63 209.94c-0.979-0.827-1.729-0.009-3.057 0.523-2.003 0.801-1.922-3.388-2.271-4.826-0.797-3.287-0.429-8.957-1.748-10.896 2.203-1.033 4.752-1.032 7.12-1.441 0.001 5.53 0.189 11.21-0.044 16.65"/>
	<path id="path225" style="fill:#DFDFBF" d="m58.776 195.74c-0.06 0.886-0.517 2.1-1.484 2.183-2.16 0.185-1.066-3.213-0.961-4.279 1.139 0.28 2.086 1.18 2.445 2.1"/>
	<path id="path227" style="fill:#FF0000" d="m46.024 212.43c1.003 1.813 3.468 0.072 5.328 0.698-1.735 0.354-3.433 0.92-5.174 1.223-0.754 0.132-1.792 0.485-2.555 0.35-2.28-0.406-1.383 0.304-2.096-1.703-0.751-2.112 0.486-6.496 0.611-8.778 0.244-4.424-0.909-5.149 3.93-5.634-2.128 4.842 6.346-2.306 7.424-3.144-2.146 5.8-5.422 11.16-7.468 16.98"/>
	<path id="path229" style="fill:#FF0000" d="m141.36 210.29c0.065-2.276-1.066-10.499 0.348-12.053 2.035-2.236 8.483 0.26 10.963-2.097v12.566c0 0.58-10.02 1.42-11.31 1.58"/>
	<path id="path231" style="fill:#FF0000" d="m105.2 197.19c-0.713 0.794-1.679 1.443-2.489 2.141-0.094-0.702 0.141-1.808 0.349-2.489 0.79 0.51 1.3 0.11 2.14 0.35"/>
	<path id="path233" style="fill:#FF0000" d="m139.22 210.64c-3.664 0.74-7.331 1.463-11.006 2.14 0-3.21-1.739-11.692 1.682-12.381 3.134-0.63 6.148-1.712 9.324-2.161 0.01 4.13 0.01 8.26 0.01 12.4"/>
	<path id="path235" style="fill:#FF0000" d="m125.72 201.07c0 2.116 1.305 10.953 0 12.402-0.865 0.961-8.647 1.529-10.263 1.79-0.097-2.049-0.782-11.406 0.393-12.752 1.1-1.25 7.99-0.78 9.87-1.44"/>
	<path id="path237" style="fill:#FF0000" d="m113.37 215.62c-3.083 0.632-6.013 1.839-9.215 1.441 0.455-4.635 2.11-13.853 8.822-13.845 0.12 4.13 0.26 8.26 0.39 12.4"/>
	<path id="path239" style="fill:#FF0000" d="m95.636 207.1c-1.873 2.617-3.784 7.998-6.376 9.216 1.273 0.601 0.724 2.085 0.349 3.581-1.145-1.658-3.45-3.211-1.048-4.979-1.786-1.385-0.744-3.74-1.44-5.677 2.902-0.38 5.711-2.11 8.515-2.14"/>
	<path id="path241" style="fill:#FF0000" d="m83.931 215.27c-1.851 0.38-3.241-0.149-2.729-2.03 0.328-1.203 2.995-1.089 3.823-2.25 0.097 1.53 0.395 3.44-1.094 4.28"/>
	<path id="path243" style="fill:#FF0000" d="m152.67 221.25c-3.771 0.597-7.54 1.194-11.311 1.791v-10.023c0-0.658 5.097-1.118 5.896-1.2 0.667-0.068 5.415-0.61 5.415 0.136-0.01 3.05-0.01 6.39-0.01 9.29"/>
	<path id="path245" d="m97.382 212.78c0.923 2.825-1.976 7.798-4.323 6.813 0.69-1.73 3.246-6.66 4.323-6.81"/>
	<path id="path247" style="fill:#FF0000" d="m139.22 223.39c-3.785 0.713-7.57 1.427-11.355 2.14-0.016-1.277 0.314-2.215 1.093-2.838-1.821-1.334 1.211-3.667-0.743-3.888 0-4.277 0.131-3.67 3.953-4.279 2.363-0.377 4.705-0.932 7.053-1.397 0.01 3.43 0.01 6.85 0.01 10.27"/>
	<path id="path249" style="fill:#FF0000" d="m78.996 213.48c0.085 0.31 0.048 0.512 0.35 0.742-2.521-0.259-4.938 0.421-7.424 0.698 2.391-0.24 4.757-0.82 7.074-1.44"/>
	<path id="path251" style="fill:#FF0000" d="m100.22 218.41c-0.967-0.686 0.919-2.967 1.789-4.585 0.13 1.8 0.24 4.19-1.79 4.59"/>
	<path id="path253" style="fill:#FF0000" d="m60.917 214.92c0.452 2.799-4.214 3.201-6.114 4.368-4.294 2.637-6.035 5.166-5.59 10.175-2.468 0.008-5.012-0.284-7.424 0.35v-9.034c0-3.596-0.502-3.4 2.707-3.936 1.697-0.283 8.187-2.451 7.97-0.066-0.232 2.568 2.424 4.293 2.424 1.311 0-4.66 0.864-3.85 6.027-3.16"/>
	<path id="path255" style="fill:#FF0000" d="m126.12 225.88c-3.405 0.582-6.812 1.207-10.263 1.441v-1.092c0.733 0.069 0.89-0.178 1.398-0.35-1.787-0.668-2.769-6.616-1.398-8.166 1.026-1.161 7.926-1.997 9.87-2.097 0.13 3.43-0.27 6.89 0.39 10.27"/>
	<path id="path257" style="fill:#FFFF40" d="m70.48 223.39c1.665 0.208 6.928 1.954 6.551-0.917-0.407-3.093-7.716-1.268-5.721-4.629 1.992-3.355 11.764-0.592 14.192 1.397 4.441 3.637 0.935 6.398-2.293 9.192-5.616 4.864-23.477 7.316-29.674 2.599-6.063-4.615 1.723-10.829 6.682-11.485 0.285 3.025-0.536 6.858 4.28 6.552 4.85-0.309 4.155-5.344-1.092-4.806 1.063-1.659 2.125-3.318 3.188-4.978 2.603 1.76 0.42 6.25 3.887 7.09"/>
	<path id="path259" style="fill:#FF0000" d="m112.97 228.02c-3.132 0.071-6.045 1.41-9.172 1.44-0.009-0.463 0.543-3.096 0.523-3.122-0.756-1.038-0.771-3.083-0.523-4.302 0.515-2.538 0.271-2.086 3.078-2.62 2.041-0.39 4.078-0.802 6.094-1.311v9.91"/>
	<path id="path261" style="fill:#FF0000" d="m101.31 220.55c-0.089 2.216 0.824 5.547-1.091 7.119 0.48 0.116 0.961 0.233 1.441 0.35-0.908 3.544-7.979 2.945-11.705 3.537-0.001-0.368 0.196-0.411 0.35-0.699-2.55-1.018-1.994-4.399-0.35-6.026 1.839 2.029 4.445 4.345 6.857 1.746 1.71-1.843 0.409-3.581 1.31-5.633 1.06-0.09 2.208-0.32 3.188-0.4"/>
	<path id="path263" d="m160.79 225.53c-3.58 4.84-2.51-4.85 0 0"/>
	<path id="path265" style="fill:#FF0000" d="m87.469 231.16c-0.784 2.686-11.565 3.082-14.499 4.28v-0.698c3.454-0.951 6.878-2.085 10.066-3.735 2.822-1.45 2.924-2.18 4.433 0.16"/>
	<path id="path267" style="fill:#FF0000" d="m53.143 233.65c0.021 1.193-0.682 5.02 0.698 5.721 2.533 1.287 1.773-3.607 1.792-4.628 4.693 1.578 10.125 0.875 14.891 0-3.267 2.471-7.512 2.61-11.354 3.536-5.914 1.425-11.722 2.897-17.73 3.931 0.132-2.962 0.098-6.023 1.135-8.21 0.535-1.128 0.459-0.643 0.306-1.703 3.425-1.58 7.492-0.83 10.262 1.35"/>
	<path id="path269" d="m37.509 249.64c-2.855 2.57-1.04-4.96 0 0"/>
	<path id="path271" style="fill:#FFFFFF" d="m58.427 178.76c0.999-2.165 1.91-5.104 4.062-6.289-0.291-0.379-0.583-0.757-0.874-1.136 0.933-1.006 1.943-1.663 3.188-1.746-1.003 0.742-0.919 2.193-0.787 3.144-0.167-0.147 0.183-0.136 0.132-0.218 1.521 1.937 5.466-2.985 7.861-3.888 7.946-2.993 3.043 8.909-1.878 7.687 4.415-1.119 0.888-4.11-1.267-2.401-2.205 1.749 0.552 2.812 0.393 3.799-0.279 1.728-0.241 1.455-2.008-0.305-1.457-1.451-4.328-1.81-2.795 0.654 1.836 0.815 3.014 4.409 5.328 2.97 0.09 1.024-0.21 2.289 0.132 3.231 0.296 0.816 1.925 1.222 1.877 2.228-0.139 2.953-4.996 0.177-6.245-0.48-1.342-0.707 0.998-2.654-1.878-1.092-0.731 0.397-1.253 2.263-1.79 2.926-1.092 1.35-2.196 2.674-4.149 2.621 1.442-3.7 3.384-8.14 0.698-11.7"/>
</g>
<metadata><rdf:RDF><cc:Work><dc:format>image/svg+xml</dc:format><dc:type rdf:resource="http://purl.org/dc/dcmitype/StillImage"/><cc:license rdf:resource="http://creativecommons.org/licenses/publicdomain/"/><dc:publisher><cc:Agent rdf:about="http://openclipart.org/"><dc:title>Openclipart</dc:title></cc:Agent></dc:publisher><dc:title>Architetto -- libro di ricette</dc:title><dc:date>2010-03-18T09:28:18</dc:date><dc:description>Drawing by Francesco 'Architetto' Rollandin. From OCAL 0.18 release.</dc:description><dc:source>https://openclipart.org/detail/32005/architetto----libro-di-ricette-by-anonymous</dc:source><dc:creator><cc:Agent><dc:title>Anonymous</dc:title></cc:Agent></dc:creator><dc:subject><rdf:Bag><rdf:li>book</rdf:li><rdf:li>kithcen</rdf:li><rdf:li>recipe</rdf:li></rdf:Bag></dc:subject></cc:Work><cc:License rdf:about="http://creativecommons.org/licenses/publicdomain/"><cc:permits rdf:resource="http://creativecommons.org/ns#Reproduction"/><cc:permits rdf:resource="http://creativecommons.org/ns#Distribution"/><cc:permits rdf:resource="http://creativecommons.org/ns#DerivativeWorks"/></cc:License></rdf:RDF></metadata></svg>