<?xml version="1.0" encoding="UTF-8"?>
<!-- Generator: Adobe Illustrator 16.0.0, SVG Export Plug-In . SVG Version: 6.00 Build 0)  -->
<!DOCTYPE svg PUBLIC "-//W3C//DTD SVG 1.1//EN" "http://www.w3.org/Graphics/SVG/1.1/DTD/svg11.dtd">
<svg version="1.1" id="refrigerator" xmlns="http://www.w3.org/2000/svg" xmlns:xlink="http://www.w3.org/1999/xlink" x="0px" y="0px" width="221px" height="314px" viewBox="0 0 221 314" enable-background="new 0 0 221 314" xml:space="preserve">
<g>
	<path fill="#BAE3E0" d="M199.637,27.455c0-4.092-2.73-6.818-6.818-6.818H29.182c-4.091,0-6.818,2.727-6.818,6.818v95.455h177.273   V27.455z"/>
	<path fill="#89FFD8" d="M192.818,20.636v95.455H22.364v6.818h177.273V27.455C199.637,23.363,196.906,20.636,192.818,20.636"/>
	<path fill="#BAE3E0" d="M199.637,136.545H22.364v129.545c0,4.089,2.727,6.818,6.818,6.818h163.637c4.088,0,6.818-2.729,6.818-6.818   V136.545z"/>
	<path fill="#89FFD8" d="M192.818,136.545v122.727c0,4.089-2.73,6.818-6.818,6.818H22.364c0,4.089,2.727,6.818,6.818,6.818h163.637   c4.088,0,6.818-2.729,6.818-6.818V136.545H192.818z"/>
	<path fill="none" stroke="#000000" stroke-width="5" stroke-miterlimit="10" d="M179.182,109.272c-4.088,0-6.818-2.727-6.818-6.818   V88.818c0-4.092,2.73-6.818,6.818-6.818S186,84.727,186,88.818v13.636C186,106.546,183.27,109.272,179.182,109.272"/>
	<path fill="none" stroke="#000000" stroke-width="5" stroke-miterlimit="10" d="M179.182,191.091c-4.088,0-6.818-2.729-6.818-6.818   V157c0-4.092,2.73-6.818,6.818-6.818S186,152.908,186,157v27.272C186,188.361,183.27,191.091,179.182,191.091"/>
	<path fill="#ECF0F9" d="M56.455,218.363c3.762,0,6.818,3.05,6.818,6.818S60.217,232,56.455,232s-6.818-3.05-6.818-6.818   S52.692,218.363,56.455,218.363"/>
	<path fill="#FFFFFF" d="M56.455,95.636c-4.092,0-6.818-2.727-6.818-6.818V47.909c0-4.092,2.727-6.818,6.818-6.818   c4.091,0,6.818,2.727,6.818,6.818v40.909C63.272,92.91,60.546,95.636,56.455,95.636"/>
	<path fill="#ECF0F9" d="M56.455,211.545c-4.092,0-6.818-2.729-6.818-6.817v-40.909c0-4.088,2.727-6.818,6.818-6.818   c4.091,0,6.818,2.73,6.818,6.818v40.909C63.272,208.815,60.546,211.545,56.455,211.545"/>
	<rect x="42.818" y="286.545" fill="#B0C4D8" width="136.363" height="6.818"/>
	<path fill="none" stroke="#000000" stroke-width="5" stroke-miterlimit="10" d="M192.818,7H29.182   C17.59,7,8.728,15.862,8.728,27.455v102.273v136.363c0,11.593,8.862,20.454,20.454,20.454v13.637c0,4.088,2.727,6.818,6.818,6.818   h150c4.088,0,6.818-2.73,6.818-6.818v-13.637c11.592,0,20.454-8.861,20.454-20.454V129.728V27.455   C213.272,15.862,204.41,7,192.818,7"/>
	<g>
		<path d="M179.182,286.545v6.818H42.818v-6.818H179.182 M179.182,283.545H42.818c-1.657,0-3,1.343-3,3v6.818c0,1.657,1.343,3,3,3    h136.363c1.657,0,3-1.343,3-3v-6.818C182.182,284.888,180.839,283.545,179.182,283.545L179.182,283.545z"/>
	</g>
	<path fill="none" stroke="#000000" stroke-width="5" stroke-miterlimit="10" d="M199.637,266.091c0,4.089-2.73,6.818-6.818,6.818   H186H36h-6.818c-4.091,0-6.818-2.729-6.818-6.818V136.545h177.273V266.091z"/>
	<path fill="none" stroke="#000000" stroke-width="5" stroke-miterlimit="10" d="M199.637,122.909H22.364V27.455   c0-4.092,2.727-6.818,6.818-6.818h163.637c4.088,0,6.818,2.727,6.818,6.818V122.909z"/>
</g>
</svg>